<?xml version="1.0" encoding="UTF-8" standalone="no"?>
<!-- Created with sK1/UniConvertor (http://sk1project.org/) -->

<svg
   xmlns:dc="http://purl.org/dc/elements/1.1/"
   xmlns:cc="http://creativecommons.org/ns#"
   xmlns:rdf="http://www.w3.org/1999/02/22-rdf-syntax-ns#"
   xmlns:svg="http://www.w3.org/2000/svg"
   xmlns="http://www.w3.org/2000/svg"
   xmlns:sodipodi="http://sodipodi.sourceforge.net/DTD/sodipodi-0.dtd"
   xmlns:inkscape="http://www.inkscape.org/namespaces/inkscape"
   width="411.8894"
   height="108.395"
   viewBox="0 0 329.51154 86.715993"
   id="svg2"
   version="1.1"
   inkscape:version="0.48.4 r9939"
   sodipodi:docname="logos.svg"
   style="fill-rule:evenodd">
  <metadata
     id="metadata4722">
    <rdf:RDF>
      <cc:Work
         rdf:about="">
        <dc:format>image/svg+xml</dc:format>
        <dc:type
           rdf:resource="http://purl.org/dc/dcmitype/StillImage" />
        <dc:title></dc:title>
      </cc:Work>
    </rdf:RDF>
  </metadata>
  <sodipodi:namedview
     pagecolor="#ffffff"
     bordercolor="#666666"
     borderopacity="1"
     objecttolerance="10"
     gridtolerance="10"
     guidetolerance="10"
     inkscape:pageopacity="0"
     inkscape:pageshadow="2"
     inkscape:window-width="1366"
     inkscape:window-height="744"
     id="namedview4720"
     showgrid="false"
     inkscape:snap-grids="false"
     inkscape:zoom="0.4555983"
     inkscape:cx="608.67677"
     inkscape:cy="450.00925"
     inkscape:window-x="0"
     inkscape:window-y="24"
     inkscape:window-maximized="1"
     inkscape:current-layer="svg2"
     fit-margin-top="0"
     fit-margin-left="0"
     fit-margin-right="0"
     fit-margin-bottom="0" />
  <defs
     id="defs4">
    <marker
       id="ArrowEnd"
       viewBox="0 0 10 10"
       refX="0"
       refY="5"
       markerUnits="strokeWidth"
       markerWidth="4"
       markerHeight="3"
       orient="auto">
      <path
         d="M 0,0 10,5 0,10 z"
         id="path7"
         inkscape:connector-curvature="0" />
    </marker>
    <marker
       id="ArrowStart"
       viewBox="0 0 10 10"
       refX="10"
       refY="5"
       markerUnits="strokeWidth"
       markerWidth="4"
       markerHeight="3"
       orient="auto">
      <path
         d="M 10,0 0,5 10,10 z"
         id="path10"
         inkscape:connector-curvature="0" />
    </marker>
  </defs>
  <g
     id="g13636"
     transform="translate(644.52852,-596.27768)">
    <path
       style="fill:#000000;stroke:none"
       d="m -411.16098,614.26064 1.907,0 0,7.279 c 0,0.578 0.175,1.046 0.528,1.408 0.352,0.361 0.835,0.541 1.451,0.541 0.69,0 1.226,-0.175 1.609,-0.531 0.385,-0.355 0.575,-0.838 0.575,-1.453 l 0,-7.244 1.908,0 0,7.389 c 0,1.106 -0.371,1.969 -1.112,2.595 -0.741,0.626 -1.729,0.938 -2.965,0.938 -1.246,0 -2.207,-0.305 -2.885,-0.916 -0.676,-0.61 -1.016,-1.486 -1.016,-2.624 l 0,-7.382 z m 15.592,10.857 -4.169,-5.438 0,5.326 -1.466,0 0,-8.599 0.733,0 4.056,5.185 0,-5.185 1.466,0 0,8.711 -0.62,0 z m 2.41,-0.118 0,-8.593 1.525,0 0,8.593 -1.525,0 z m 6.516,0.118 -0.838,0 -3.214,-8.711 1.677,0 1.989,5.808 2.1,-5.808 1.641,0 -3.355,8.711 z m 5.79,-7.354 0,2.012 2.838,0 0,1.296 -2.838,0 0,2.575 3.894,0 0,1.353 -5.418,0 0,-8.593 5.482,0 0,1.357 -3.958,0 z m 10.152,7.236 -2.295,-3.548 c -0.23,-0.005 -0.553,-0.017 -0.969,-0.04 l 0,3.588 -1.581,0 0,-8.593 c 0.085,0 0.416,-0.012 0.991,-0.042 0.573,-0.03 1.038,-0.045 1.389,-0.045 2.182,0 3.272,0.846 3.272,2.535 0,0.508 -0.149,0.971 -0.452,1.389 -0.3,0.418 -0.678,0.713 -1.136,0.885 l 2.54001,3.871 -1.75901,0 z m -3.264,-7.266 0,2.387 c 0.284,0.022 0.498,0.035 0.646,0.035 0.639,0 1.104,-0.09 1.399,-0.27 0.296,-0.181 0.443,-0.528 0.443,-1.049 0,-0.422 -0.157,-0.718 -0.476,-0.885 -0.315,-0.168 -0.813,-0.253 -1.493,-0.253 -0.165,0 -0.338,0.012 -0.519,0.035 z m 5.346,6.791 0.562,-1.366 c 0.601,0.423 1.194,0.633 1.777,0.633 0.894,0 1.341,-0.313 1.341,-0.938 0,-0.294 -0.105,-0.573 -0.315,-0.839 -0.212,-0.265 -0.645,-0.563 -1.306,-0.893 -0.658,-0.33 -1.101,-0.603 -1.331,-0.816 -0.228,-0.213 -0.403,-0.468 -0.529,-0.761 -0.122,-0.292 -0.182,-0.618 -0.182,-0.973 0,-0.663 0.243,-1.216 0.728,-1.654 0.488,-0.438 1.112,-0.656 1.874,-0.656 0.994,0 1.723,0.185 2.188,0.556 l -0.463,1.314 c -0.536,-0.383 -1.101,-0.573 -1.695,-0.573 -0.352,0 -0.625,0.092 -0.818,0.277 -0.192,0.186 -0.29,0.428 -0.29,0.726 0,0.49 0.545,1.004 1.636,1.536 0.576,0.281 0.989,0.541 1.244,0.776 0.253,0.238 0.448,0.513 0.581,0.828 0.132,0.313 0.198,0.666 0.198,1.051 0,0.696 -0.273,1.269 -0.824,1.719 -0.548,0.451 -1.286,0.676 -2.207,0.676 -0.803,0 -1.526,-0.208 -2.169,-0.623 z m 6.578,0.475 0,-8.593 1.526,0 0,8.593 -1.526,0 z m 5.22,0 -1.904,0 0,-8.585 c 1.216,-0.042 1.98,-0.065 2.292,-0.065 1.251,0 2.242,0.365 2.975,1.098 0.733,0.734 1.101,1.707 1.101,2.918 0,3.091 -1.489,4.634 -4.464,4.634 z m -0.38,-7.254 0,5.866 c 0.245,0.022 0.512,0.035 0.798,0.035 0.77,0 1.374,-0.281 1.809,-0.841 0.435,-0.558 0.654,-1.341 0.654,-2.345 0,-1.836 -0.854,-2.757 -2.563,-2.757 -0.166,0 -0.398,0.015 -0.698,0.042 z m 11.205,7.254 -0.625,-1.741 -2.946,0 -0.598,1.741 -1.694,0 3.424,-8.708 0.67,0 3.453,8.708 -1.684,0 z m -2.104,-6.08 -1.032,3.17 2.065,0 -1.033,-3.17 z m 6.604,6.08 -1.905,0 0,-8.585 c 1.216,-0.042 1.979,-0.065 2.292,-0.065 1.251,0 2.242,0.365 2.976,1.098 0.732,0.734 1.101,1.707 1.101,2.918 0,3.091 -1.489,4.634 -4.464,4.634 z m -0.381,-7.254 0,5.866 c 0.245,0.022 0.513,0.035 0.799,0.035 0.77,0 1.373,-0.281 1.808,-0.841 0.436,-0.558 0.654,-1.341 0.654,-2.345 0,-1.836 -0.853,-2.757 -2.563,-2.757 -0.165,0 -0.398,0.015 -0.698,0.042 z m 7.717,0.018 0,2.012 2.838,0 0,1.296 -2.838,0 0,2.575 3.894,0 0,1.353 -5.418,0 0,-8.593 5.483,0 0,1.357 -3.959,0 z"
       id="path916"
       inkscape:connector-curvature="0" />
    <path
       style="fill:#000000;stroke:none"
       d="m -409.25398,635.40664 0,2.516 3.775,0 0,1.619 -3.775,0 0,4.912 -1.907,0 0,-10.741 7.076,0 0,1.694 -5.169,0 z m 8.159,1.81 0,2.011 2.839,0 0,1.297 -2.839,0 0,2.575 3.894,0 0,1.354 -5.418,0 0,-8.593 5.484,0 0,1.356 -3.96,0 z m 7.212,7.237 -1.904,0 0,-8.586 c 1.216,-0.042 1.98,-0.065 2.292,-0.065 1.251,0 2.242,0.365 2.976,1.099 0.732,0.733 1.101,1.706 1.101,2.917 0,3.09 -1.489,4.635 -4.465,4.635 z m -0.38,-7.255 0,5.865 c 0.245,0.023 0.513,0.036 0.798,0.036 0.771,0 1.374,-0.281 1.809,-0.841 0.435,-0.558 0.654,-1.341 0.654,-2.345 0,-1.836 -0.854,-2.757 -2.563,-2.757 -0.165,0 -0.397,0.015 -0.698,0.042 z m 7.717,0.018 0,2.011 2.837,0 0,1.297 -2.837,0 0,2.575 3.894,0 0,1.354 -5.418,0 0,-8.593 5.483,0 0,1.356 -3.959,0 z m 10.151,7.237 -2.294,-3.549 c -0.229,-0.005 -0.553,-0.017 -0.968,-0.04 l 0,3.589 -1.582,0 0,-8.593 c 0.086,0 0.416,-0.013 0.991,-0.043 0.573,-0.03 1.039,-0.045 1.389,-0.045 2.182,0 3.273,0.846 3.273,2.535 0,0.508 -0.15,0.971 -0.453,1.389 -0.3,0.417 -0.678,0.713 -1.136,0.885 l 2.54,3.872 -1.76,0 z m -3.262,-7.268 0,2.388 c 0.282,0.022 0.498,0.035 0.646,0.035 0.637,0 1.104,-0.09 1.398,-0.27 0.296,-0.18 0.443,-0.528 0.443,-1.049 0,-0.422 -0.157,-0.718 -0.475,-0.886 -0.315,-0.167 -0.813,-0.252 -1.494,-0.252 -0.165,0 -0.338,0.012 -0.518,0.034 z m 10.39201,7.268 -0.62601,-1.742 -2.945,0 -0.598,1.742 -1.694,0 3.424,-8.709 0.67,0 3.453,8.709 -1.68399,0 z m -2.10401,-6.081 -1.031,3.17 2.064,0 -1.033,-3.17 z m 4.699,6.081 0,-8.593 1.524,0 0,7.239 3.884,0 0,1.354 -5.408,0 z"
       id="path918"
       inkscape:connector-curvature="0" />
    <path
       style="fill:#000000;stroke:none"
       d="m -409.47498,663.57564 -1.904,0 0,-8.586 c 1.216,-0.042 1.98,-0.065 2.292,-0.065 1.251,0 2.242,0.366 2.976,1.099 0.733,0.733 1.1,1.706 1.1,2.918 0,3.09 -1.489,4.634 -4.464,4.634 z m -0.38,-7.254 0,5.865 c 0.246,0.023 0.513,0.035 0.798,0.035 0.771,0 1.374,-0.28 1.81,-0.841 0.435,-0.558 0.653,-1.341 0.653,-2.344 0,-1.837 -0.854,-2.758 -2.563,-2.758 -0.165,0 -0.398,0.015 -0.698,0.043 z m 7.717,0.017 0,2.012 2.838,0 0,1.296 -2.838,0 0,2.575 3.894,0 0,1.354 -5.418,0 0,-8.593 5.483,0 0,1.356 -3.959,0 z m 11.956,3.286 0,3.951 -1.907,0 0,-10.733 c 1.272,-0.054 2.015,-0.08 2.23,-0.08 1.696,0 2.936,0.261 3.721,0.781 0.783,0.521 1.176,1.331 1.176,2.437 0,2.463 -1.451,3.694 -4.354,3.694 -0.215,0 -0.503,-0.015 -0.866,-0.05 z m 0,-5.132 0,3.438 c 0.323,0.035 0.578,0.052 0.764,0.052 0.87,0 1.503,-0.145 1.906,-0.438 0.4,-0.29 0.601,-0.763 0.601,-1.419 0,-1.113 -0.898,-1.671 -2.691,-1.671 -0.199,0 -0.394,0.012 -0.58,0.038 z m 8.211,1.846 0,2.012 2.837,0 0,1.296 -2.837,0 0,2.575 3.893,0 0,1.354 -5.417,0 0,-8.593 5.482,0 0,1.356 -3.958,0 z m 10.151,7.237 -2.294,-3.548 c -0.231,-0.005 -0.553,-0.018 -0.968,-0.041 l 0,3.589 -1.582,0 0,-8.593 c 0.085,0 0.415,-0.013 0.991,-0.043 0.573,-0.03 1.038,-0.045 1.388,-0.045 2.183,0 3.273,0.846 3.273,2.535 0,0.508 -0.149,0.971 -0.453,1.389 -0.3,0.418 -0.678,0.713 -1.135,0.886 l 2.539,3.871 -1.759,0 z m -3.262,-7.267 0,2.388 c 0.282,0.022 0.497,0.034 0.645,0.034 0.638,0 1.103,-0.089 1.398,-0.27 0.296,-0.18 0.444,-0.528 0.444,-1.048 0,-0.423 -0.158,-0.719 -0.476,-0.886 -0.315,-0.168 -0.813,-0.253 -1.494,-0.253 -0.165,0 -0.338,0.013 -0.517,0.035 z m 11.39,7.385 -4.169,-5.438 0,5.325 -1.46699,0 0,-8.598 0.73399,0 4.056,5.185 0,-5.185 1.466,0 0,8.711 -0.62,0 z m 7.394,-0.118 -0.625,-1.742 -2.946,0 -0.598,1.742 -1.694,0 3.423,-8.708 0.671,0 3.453,8.708 -1.684,0 z m -2.104,-6.081 -1.031,3.171 2.065,0 -1.034,-3.171 z m 12.709,6.086 -1.476,0 -0.894,-4.632 -1.729,4.745 -0.545,0 -1.732,-4.745 -0.926,4.632 -1.471,0 1.729,-8.598 0.811,0 1.859,5.79 1.816,-5.79 0.804,0 1.754,8.598 z m 3.569,-0.005 -2.628,0 0,-8.586 c 1.156,-0.055 1.966,-0.082 2.432,-0.082 0.891,0 1.589,0.19 2.092,0.57 0.503,0.383 0.754,0.926 0.754,1.634 0,0.681 -0.361,1.219 -1.079,1.614 1.066,0.371 1.601,1.137 1.601,2.297 0,0.784 -0.295,1.404 -0.886,1.865 -0.59,0.458 -1.353,0.688 -2.286,0.688 z m -1.104,-7.367 0,2.06 c 0.235,0.015 0.48,0.022 0.738,0.022 0.994,0 1.492,-0.373 1.492,-1.118 0,-0.661 -0.453,-0.991 -1.357,-0.991 -0.237,0 -0.53,0.007 -0.873,0.027 z m 0,3.251 0,2.837 c 0.308,0.028 0.558,0.041 0.75,0.041 0.681,0 1.174,-0.116 1.482,-0.346 0.305,-0.23 0.461,-0.613 0.461,-1.149 0,-0.49 -0.143,-0.845 -0.428,-1.068 -0.286,-0.223 -0.787,-0.333 -1.498,-0.333 -0.146,0 -0.405,0.005 -0.767,0.018 z m 5.625,-4.477 1.524,0 0,5.825 c 0,0.461 0.14,0.836 0.423,1.127 0.28,0.287 0.668,0.432 1.16,0.432 0.551,0 0.982,-0.14 1.287,-0.425 0.307,-0.283 0.461,-0.671 0.461,-1.164 l 0,-5.795 1.526,0 0,5.913 c 0,0.883 -0.298,1.576 -0.891,2.077 -0.59,0.5 -1.382,0.751 -2.373,0.751 -0.995,0 -1.763,-0.246 -2.306,-0.734 -0.541,-0.49 -0.811,-1.188 -0.811,-2.099 l 0,-5.908 z m 14.028,0.458 -0.628,1.261 c -0.341,-0.34 -0.889,-0.51 -1.641,-0.51 -0.717,0 -1.305,0.3 -1.76,0.9 -0.458,0.601 -0.688,1.359 -0.688,2.28 0,0.919 0.213,1.647 0.638,2.187 0.423,0.538 0.988,0.808 1.696,0.808 0.812,0 1.444,-0.287 1.902,-0.868 l 0.709,1.231 c -0.621,0.663 -1.532,0.994 -2.733,0.994 -1.201,0 -2.132,-0.396 -2.797,-1.186 -0.666,-0.789 -0.996,-1.867 -0.996,-3.231 0,-1.271 0.367,-2.335 1.103,-3.188 0.738,-0.853 1.682,-1.281 2.83,-1.281 0.986,0 1.774,0.2 2.365,0.603 z m 1.051,3.766 c 0,-1.224 0.333,-2.26 1.003,-3.106 0.671,-0.845 1.57,-1.27 2.691,-1.27 1.235,0 2.179,0.385 2.832,1.15 0.653,0.766 0.981,1.842 0.981,3.226 0,1.383 -0.343,2.482 -1.024,3.295 -0.683,0.814 -1.651,1.222 -2.907,1.222 -1.154,0 -2.037,-0.403 -2.653,-1.209 -0.616,-0.806 -0.923,-1.909 -0.923,-3.308 z m 1.582,0 c 0,1.003 0.17,1.781 0.51,2.335 0.34,0.55 0.835,0.825 1.484,0.825 0.763,0 1.343,-0.27 1.744,-0.808 0.403,-0.54 0.603,-1.324 0.603,-2.352 0,-2.014 -0.743,-3.02 -2.229,-3.02 -0.681,0 -1.202,0.273 -1.567,0.818 -0.363,0.545 -0.545,1.279 -0.545,2.202 z"
       id="path920"
       inkscape:connector-curvature="0" />
    <g
       id="g13610">
      <path
         inkscape:connector-curvature="0"
         id="path922"
         d="m -476.27997,668.02764 c 18.455,-4.178 38.35899,-3.19 52.93599,0 l -0.898,5.194 c 1.039,0.192 2.125,0.414 3.227,0.668 l -1.487,7.192 c -1.936,-0.509 -7.864,-1.567 -10.037,-1.683 l 7.26,-1.982 0,-0.125 c -14.273,-3.017 -32.269,-3.786 -49.28199,0.045 l 0,0.08 7.309,1.98 c -2.135,0.103 -8.135,1.173 -10.085,1.685 l -1.488,-7.192 c 1.176,-0.271 2.333,-0.505 3.437,-0.707 l -0.892,-5.155 z m 4.45,6.148 -2.02,-3.559 0.822,-0.149 1.565,2.753 0.52,-3.132 0.555,-0.101 -0.669,4.048 -0.773,0.14 z m 2.614,-0.503 -0.523,-3.829 0.774,-0.112 0.523,3.829 -0.774,0.112 z m 1.723,-0.313 -0.457,-3.837 1.395,-0.177 c 0.286,-0.036 0.508,-0.026 0.666,0.029 0.157,0.054 0.289,0.151 0.393,0.29 0.105,0.138 0.168,0.301 0.191,0.489 0.026,0.225 -0.011,0.445 -0.113,0.661 -0.103,0.215 -0.262,0.391 -0.48,0.525 l 1.433,1.637 -0.944,0.12 -1.114,-1.451 -0.425,0.053 0.186,1.569 -0.731,0.092 z m 0.482,-2.187 0.177,-0.023 c 0.321,-0.04 0.533,-0.14 0.637,-0.298 0.104,-0.159 0.145,-0.33 0.124,-0.511 -0.019,-0.158 -0.084,-0.276 -0.193,-0.355 -0.111,-0.081 -0.317,-0.102 -0.621,-0.063 l -0.269,0.034 0.145,1.216 z m 3.982,1.639 -0.282,-3.323 -1.34,0.121 -0.045,-0.529 3.45999,-0.312 0.045,0.529 -1.34,0.12 0.283,3.324 -0.781,0.07 z m 2.367,-4.084 0.779,-0.056 0.161,2.364 c 0.029,0.426 0.118,0.704 0.269,0.834 0.151,0.128 0.337,0.185 0.562,0.168 0.221,-0.015 0.392,-0.097 0.514,-0.243 0.121,-0.147 0.169,-0.416 0.142,-0.81 l -0.16401,-2.42 0.678,-0.049 0.161,2.369 c 0.03,0.447 -0.002,0.771 -0.098,0.972 -0.096,0.201 -0.24299,0.366 -0.441,0.492 -0.199,0.126 -0.455,0.2 -0.76999,0.223 -0.312,0.022 -0.58101,-0.011 -0.81101,-0.098 -0.23,-0.088 -0.417,-0.228 -0.56,-0.424 -0.145,-0.194 -0.231,-0.514 -0.262,-0.961 l -0.16,-2.361 z m 3.908,3.525 -0.023,-0.663 c 0.297,0.114 0.519,0.181 0.664,0.2 0.146,0.018 0.279,0.026 0.4,0.022 0.221,-0.008 0.382,-0.065 0.486,-0.17 0.105,-0.104 0.155,-0.227 0.15,-0.368 -0.004,-0.108 -0.037,-0.204 -0.101,-0.289 -0.062,-0.083 -0.214,-0.188 -0.454,-0.316 l -0.258,-0.134 c -0.369,-0.194 -0.62,-0.376 -0.753,-0.547 -0.136,-0.171 -0.208,-0.373 -0.216,-0.605 -0.01,-0.29 0.09,-0.543 0.298,-0.757 0.21,-0.216 0.516,-0.33 0.921,-0.345 0.302,-0.011 0.644,0.022 1.026,0.096 l 0.021,0.619 c -0.393,-0.133 -0.703,-0.196 -0.931,-0.188 -0.189,0.007 -0.331,0.054 -0.427,0.142 -0.096,0.088 -0.142,0.19 -0.137,0.309 0.003,0.091 0.036,0.174 0.098,0.25 0.061,0.076 0.212,0.178 0.451,0.305 l 0.277,0.145 c 0.422,0.223 0.693,0.421 0.814,0.592 0.119,0.174 0.181,0.371 0.189,0.592 0.011,0.317 -0.097,0.591 -0.324,0.824 -0.227,0.234 -0.596,0.359 -1.108,0.377 -0.303,0.011 -0.657,-0.02 -1.063,-0.091 z m 4.841,-0.127 -0.066,-3.865 0.781,-0.014 0.065,3.865 -0.78,0.014 z m 1.72299,0.009 0,-3.866 1.033,0 0.906,2.719 0.932,-2.719 0.908,0 0,3.866 -0.721,0 0,-2.918 -0.917,2.66 -0.629,0 -0.898,-2.699 0,2.957 -0.614,0 z m 4.716,0.071 0.131,-3.864 1.291,0.046 c 0.376,0.013 0.638,0.063 0.788,0.149 0.149,0.087 0.261,0.206 0.333,0.357 0.073,0.151 0.105,0.338 0.098,0.563 -0.015,0.431 -0.159,0.755 -0.43,0.972 -0.273,0.217 -0.631,0.317 -1.074,0.301 l -0.319,-0.011 -0.051,1.514 -0.767,-0.027 z m 0.835,-2.017 0.148,0.005 c 0.287,0.01 0.5,-0.053 0.64,-0.19 0.139,-0.137 0.212,-0.301 0.218,-0.493 0.005,-0.108 -0.014,-0.207 -0.053,-0.295 -0.04,-0.09 -0.103,-0.161 -0.19,-0.215 -0.087,-0.054 -0.228,-0.084 -0.425,-0.091 l -0.293,-0.011 -0.045,1.29 z m 1.942,2.163 1.655,-3.782 0.782,0.042 1.262,3.94 -0.802,-0.043 -0.337,-1.052 -1.55,-0.083 -0.442,1.009 -0.568,-0.031 z m 1.23,-1.482 1.163,0.063 -0.503,-1.571 -0.66,1.508 z m 3.933,1.823 -1.056,-3.976 0.832,0.075 0.819,3.077 1.289,-2.887 0.561,0.05 -1.663,3.732 -0.782,-0.071 z m 2.651,0.348 0.393,-3.844 0.777,0.084 -0.393,3.845 -0.777,-0.085 z m 1.721,0.178 0.522,-3.829 1.601,0.232 c 0.429,0.062 0.754,0.181 0.972,0.356 0.221,0.176 0.382,0.412 0.486,0.708 0.103,0.295 0.129,0.638 0.076,1.028 -0.052,0.381 -0.167,0.712 -0.342,0.992 -0.175,0.281 -0.404,0.49 -0.687,0.627 -0.282,0.136 -0.647,0.173 -1.095,0.108 l -1.533,-0.222 z m 0.848,-0.431 0.578,0.083 c 0.301,0.044 0.538,0.029 0.712,-0.044 0.173,-0.073 0.322,-0.219 0.446,-0.436 0.125,-0.217 0.207,-0.467 0.245,-0.749 0.037,-0.27 0.024,-0.517 -0.038,-0.739 -0.062,-0.222 -0.166,-0.398 -0.31,-0.529 -0.146,-0.131 -0.409,-0.224 -0.789,-0.279 l -0.468,-0.067 -0.376,2.76 z m 2.814,1.015 2.029,-3.584 0.775,0.127 0.855,4.054 -0.793,-0.13 -0.228,-1.082 -1.534,-0.25 -0.542,0.956 -0.562,-0.091 z m 1.373,-1.342 1.151,0.188 -0.341,-1.616 -0.81,1.428 z"
         style="fill:#990000;fill-opacity:1;stroke:#8b0000;stroke-width:0;stroke-miterlimit:4;stroke-opacity:1;stroke-dasharray:none" />
      <path
         inkscape:connector-curvature="0"
         id="path924"
         d="m -449.84298,613.09464 c -1.312,0.009 -5.48699,-0.756 -5.509,-3.521 -0.009,-1.051 0.872,-2.038 1.396,-2.944 3.231,-4.329 5.054,-6.313 2.768,-10.352 0.711,0.124 1.795,1.118 2.356,1.846 0.991,1.705 1.084,3.481 0.449,5.452 -0.67,1.641 -2.863,3.691 -2.174,5.573 0.644,1.76 2.893,1.899 2.161,0.051 -0.377,-0.954 -0.843,-1.048 -0.549,-2.15 0.475,-1.773 2.759,-4.02 1.759,-6.156 2.303,1.314 0.89,4.896 1.107,5.521 0.121,0.52 1.9,2.1 1.767,3.171 -0.324,2.626 -3.375,3.629 -5.531,3.509 z"
         style="fill:#990000;fill-opacity:1;stroke:#8b0000;stroke-width:0;stroke-miterlimit:4;stroke-opacity:1;stroke-dasharray:none" />
      <path
         inkscape:connector-curvature="0"
         id="path926"
         d="m -464.53898,613.77964 c -1.31099,0.01 -5.48699,-0.756 -5.50899,-3.52 -0.008,-1.051 0.872,-2.039 1.396,-2.944 3.231,-4.33 5.054,-6.314 2.768,-10.353 0.71,0.124 1.795,1.118 2.356,1.847 0.991,1.704 1.085,3.48 0.449,5.451 -0.67,1.641 -2.863,3.691 -2.174,5.574 0.644,1.759 2.893,1.898 2.161,0.05 -0.377,-0.954 -0.84301,-1.048 -0.54901,-2.149 0.474,-1.775 2.76001,-4.021 1.759,-6.156 2.303,1.313 0.89,4.895 1.107,5.52 0.121,0.52 1.90001,2.1 1.767,3.172 -0.324,2.626 -3.375,3.628 -5.531,3.508 z"
         style="fill:#990000;fill-opacity:1;stroke:#8b0000;stroke-width:0;stroke-miterlimit:4;stroke-opacity:1;stroke-dasharray:none" />
      <path
         inkscape:connector-curvature="0"
         id="path928"
         d="m -435.14698,613.77964 c -1.311,0.01 -5.487,-0.756 -5.509,-3.52 -0.008,-1.051 0.872,-2.039 1.396,-2.944 3.231,-4.33 5.054,-6.314 2.768,-10.353 0.711,0.124 1.795,1.118 2.356,1.847 0.991,1.704 1.085,3.48 0.449,5.451 -0.67,1.641 -2.863,3.691 -2.174,5.574 0.644,1.759 2.892,1.898 2.162,0.05 -0.377,-0.954 -0.845,-1.048 -0.55,-2.149 0.475,-1.775 2.76,-4.021 1.759,-6.156 2.303,1.313 0.89,4.895 1.107,5.52 0.122,0.52 1.9,2.1 1.768,3.172 -0.326,2.626 -3.376,3.628 -5.532,3.508 z"
         style="fill:#990000;fill-opacity:1;stroke:#8b0000;stroke-width:0;stroke-miterlimit:4;stroke-opacity:1;stroke-dasharray:none" />
      <path
         inkscape:connector-curvature="0"
         id="path930"
         d="m -449.82798,623.11364 c -7.268,0 -15.10099,0.586 -22.16799,2.241 0.619,11.259 0.014,33.896 5.154,39.967 -0.64,0.105 -1.28,0.215 -1.919,0.333 -3.712,-6.135 -4.132,-21.443 -4.458,-33.232 -0.086,-3.113 -0.164,-5.981 -0.285,-8.37 l -0.014,-0.018 0.014,-0.005 c 7.723,-1.806 15.764,-2.483 23.67599,-2.483 7.913,0 15.952,0.676 23.672,2.483 l 0.018,0.005 -10e-4,0.018 c -0.131,2.389 -0.21,5.257 -0.297,8.37 -0.326,11.789 -0.749,27.097 -4.448,33.232 -0.646,-0.118 -1.291,-0.228 -1.934,-0.333 5.148,-6.071 4.54,-28.708 5.158,-39.967 -7.069,-1.655 -14.9,-2.241 -22.168,-2.241 z"
         style="fill:#000000;stroke:none" />
      <path
         inkscape:connector-curvature="0"
         id="path932"
         d="m -446.03698,617.67464 c -1.106,-0.279 -2.47,-0.4 -3.791,-0.4 -1.32199,0 -2.68599,0.121 -3.79199,0.4 -1.59,-1.028 -1.733,-2.907 -0.033,-3.653 1.25,-0.21 2.575,-0.359 3.82499,-0.359 1.25,0 2.576,0.149 3.825,0.359 1.699,0.746 1.557,2.625 -0.034,3.653 z"
         style="fill:#000000;stroke:none" />
      <path
         inkscape:connector-curvature="0"
         id="path934"
         d="m -466.12997,631.64664 c -1.144,-3.909 2.339,-6.232 4.653,-6.402 6.343,-0.465 10.035,1.102 17.07999,1.529 2.62,0.024 5.179,-0.088 7.817,-1.181 -0.603,1.865 -8.702,3.318 -12.017,3.335 -1.168,0.007 -2.41399,-0.072 -3.55999,-0.25 -0.713,-0.11 -11.401,-1.762 -11.078,1.73 0.03,0.32 0.446,0.318 0.575,0.265 1.963,-0.804 3.353,-1.435 5.405,-1.51 4.094,-0.148 6.90999,1.096 11.41099,0.174 -3.143,2.06 -11.14399,1.341 -12.76399,1.829 -1.646,0.496 -2.97,1.398 -4.45,1.817 -2.392,0.677 -2.992,-1.064 -3.072,-1.336 z"
         style="fill:#000000;stroke:none" />
      <path
         inkscape:connector-curvature="0"
         id="path936"
         d="m -462.59497,641.15164 c 0.322,-0.658 0.732,-1.351 1.304,-1.809 0.955,-0.765 2.137,1.185 0.943,1.625 -0.692,0.254 -1.499,0.218 -2.247,0.184 z"
         style="fill:#000000;stroke:none" />
      <path
         inkscape:connector-curvature="0"
         id="path938"
         d="m -465.99797,642.62864 c -0.563,-0.278 -1.237,-0.576 -1.848,-0.763 0.567,-0.154 1.136,-0.429 1.671,-0.681 -0.611,-0.503 -1.268,-1.055 -2,-1.271 -1.084,-0.322 -1.353,1.45 -0.619,1.923 -0.838,0.365 -0.697,2.074 0.287,2.108 -0.327,0.524 0.223,1.614 0.918,1.248 0.519,-0.273 1.082,-0.961 1.299,-1.251 -0.433,-0.107 -0.901,-0.218 -1.345,-0.259 0.565,-0.29 1.13,-0.686 1.637,-1.054 z"
         style="fill:#000000;stroke:none" />
      <path
         inkscape:connector-curvature="0"
         id="path940"
         d="m -462.96997,664.58564 c 2.921,-0.512 4.18099,-1.017 5.97499,-1.809 1.919,-0.721 3.515,-1.594 5.425,-2.78 -1.761,-0.114 -3.228,-0.792 -4.362,-1.647 -1.488,-1.122 -2.391,-2.545 -2.58799,-3.415 -0.17101,0.979 -0.5,1.813 -1.084,2.638 -0.637,0.901 -1.80501,2.753 -2.948,1.571 -0.54,-0.366 -2.13,0.446 -3.04,0.237 -1.803,-0.413 -1.771,1.484 -0.755,1.993 -0.847,0.584 -0.488,2.096 0.678,2.227 -0.371,0.59 0.474,1.573 1.422,1.228 0.437,-0.159 0.784,-0.146 1.277,-0.243 z"
         style="fill:#000000;stroke:none" />
      <path
         inkscape:connector-curvature="0"
         id="path942"
         d="m -461.55698,649.83964 c 0.36101,0.21 0.881,0.506 1.18201,0.736 l 0.001,0 c 0.031,0.024 0.058,0.045 0.082,0.063 0.172,-0.53 0.383,-0.96 0.625,-1.311 0.247,-0.359 0.526,-0.635 0.83,-0.853 0.09,-0.525 0.22,-0.905 0.31101,-1.278 0.084,-0.346 0.56,-1.112 0.921,-1.495 -0.158,-0.077 -0.481,-0.094 -0.719,-0.129 -0.887,-0.13 -2.186,-0.486 -2.721,-0.833 -0.075,0.859 -0.165,1.699 -0.255,2.539 -0.091,0.845 -0.182,1.69 -0.257,2.561 z"
         style="fill:#000000;stroke:none" />
      <path
         inkscape:connector-curvature="0"
         id="path944"
         d="m -460.99397,633.66864 c 0.735,0.396 1.35299,0.772 1.32399,1.949 -0.019,0.756 -0.724,1.875 -1.32399,2.123 l -7.049,0 c -0.6,-0.248 -1.305,-1.367 -1.324,-2.123 -0.028,-1.177 0.589,-1.553 1.324,-1.949 l 7.049,0 z"
         style="fill:#000000;stroke:none" />
      <path
         inkscape:connector-curvature="0"
         id="path946"
         d="m -435.23998,664.85964 c 0.827,-0.514 1.535,-1.228 2.11,-2.147 l 0,-10e-4 c 0.775,-1.223 1.215,-2.64 1.227,-4.194 0.009,-1.209 -0.165,-2.501 -0.329,-3.85 -0.208,-1.704 -3.635,-9.929 -4.408,-11.501 -0.61,-1.24 -1.697,-3.373 -1.615,-4.301 0.052,-2.009 1.687,-3.214 3.69,-3.198 1.127,0.01 2.376,0.819 3.007,1.844 l 0,0 c 0.47,0.84 0.536,1.92 0.302,3.247 0,0.004 -0.007,0.018 -0.01,0.02 -2.062,1.957 -1.652,3.352 -0.935,5.791 0.434,1.479 0.982,3.339 1.163,5.934 0.217,-2.138 0.412,-4.216 0.59,-6.287 0.191,-2.22 0.444,-3.309 0.603,-5.576 0,0 0,0 0,-10e-4 l 0,10e-4 c 0,0 0,0 0,-10e-4 0.066,-1.573 -0.191,-3.157 -0.998,-4.257 -0.879,-1.197 -2.219,-2.001 -3.936,-1.914 -3.99,0.202 -5.933,3.642 -4.204,6.995 1.309,2.538 2.993,6.743 4.037,9.421 1.048,2.688 1.534,4.97 0.599,5.897 -0.016,0.015 -0.046,0.013 -0.058,-0.005 -0.984,-1.373 -2.409,-1.865 -3.884,-2.376 -1.737,-0.601 -3.641,-1.42 -4.892,-3.525 -0.265,0.544 -0.731,1.026 -1.247,1.417 -0.704,0.533 -2.037,1.233 -2.545,1.346 -0.029,0.007 -0.054,-0.023 -0.042,-0.05 0.057,-0.121 0.114,-0.247 0.155,-0.41 0.036,-0.148 0.06,-0.327 0.058,-0.564 -0.471,0.409 -0.664,0.456 -1.444,0.869 -1.836,0.972 -3.78599,1.866 -3.60099,3.849 0.211,2.251 2.77199,2.852 5.59299,3.026 1.637,0.1 3.271,0.205 4.579,0.72 0.01,-0.234 0.17,-0.675 0.398,-1.07 0.167,-0.289 0.401,-0.553 0.713,-0.696 0.03,-0.014 0.065,0.02 0.05,0.049 -0.31,0.589 -0.45,1.653 -0.438,2.184 0.066,2.813 3.654,3.081 5.712,3.314 z"
         style="fill:#000000;stroke:none" />
      <path
         inkscape:connector-curvature="0"
         id="path948"
         d="m -458.66897,653.11064 c 0.034,-0.086 0.172,-0.08 0.197,0.007 0.546,1.821 1.603,3.502 3.064,4.707 1.198,0.988 2.668,1.658 4.351,1.824 -0.342,-0.201 -0.68,-0.491 -0.957,-0.848 -0.357,-0.461 -0.614,-1.034 -0.648,-1.67 -0.033,-0.635 0.156,-1.332 0.689,-2.041 0.649,-0.865 1.81299,-1.748 3.71399,-2.558 0.268,-0.14 0.862,-0.442 1.402,-0.924 0.537,-0.48 1.028,-1.143 1.1,-2.009 0.008,-0.097 0.171,-0.115 0.203,-0.021 0.136,0.406 0.17,0.837 0.13,1.28 -0.033,0.365 -0.116,0.739 -0.233,1.116 0.991,-0.542 1.712,-1.486 2.23,-2.521 0.939,-1.879 1.21,-4.056 1.218,-4.728 0,-0.082 0.108,-0.127 0.173,-0.071 0.134,0.115 0.272,0.267 0.392,0.457 0.023,0.035 0.044,0.073 0.065,0.111 0.056,-1.25 -0.071,-2.328 -0.374,-3.337 -0.34,-1.131 -0.9,-2.178 -1.672,-3.288 -0.043,-0.063 0.002,-0.15 0.08,-0.154 0.111,-0.005 0.234,0.017 0.369,0.071 0.051,0.021 0.104,0.046 0.159,0.076 -0.573,-1.419 -1.33,-2.29 -2.258,-3.356 -0.098,-0.112 -0.197,-0.226 -0.279,-0.322 -0.013,-0.015 -0.026,-0.064 -0.022,-0.083 0.072,-0.311 0.119,-0.472 0.225,-0.611 0.094,-0.122 0.224,-0.214 0.45,-0.367 -0.306,-0.318 -1.018,-0.568 -1.812,-0.738 -1.044,-0.223 -2.218,-0.305 -2.811,-0.228 0.292,0.491 0.414,0.995 0.428,1.467 0.02,0.661 -0.173,1.26 -0.407,1.666 -0.05,0.087 -0.21,0.034 -0.194,-0.063 0.045,-0.279 0.144,-0.823 0.116,-1.411 -0.028,-0.568 -0.175,-1.181 -0.605,-1.638 -1.77699,-0.193 -4.31699,0.788 -5.91899,1.405 -0.119,0.046 -0.174,0.067 -0.219,0.085 0.058,0.321 0.025,0.616 -0.009,0.902 -0.065,0.552 -0.125,1.067 0.582,1.619 0.377,-0.737 0.946,-0.811 1.5,-0.572 0.374,0.16 0.739,0.471 1.028,0.812 0.288,0.342 0.501,0.719 0.571,1.009 0.069,0.283 0.009,0.498 -0.226,0.565 -0.02,0.014 -0.045,0.025 -0.074,0.033 -0.136,0.04 -0.432,0.044 -0.731,0 -0.302,-0.045 -0.616,-0.139 -0.786,-0.298 -0.059,-0.054 -0.102,-0.116 -0.124,-0.186 -0.021,-0.043 -0.038,-0.077 -0.054,-0.103 -0.013,0.057 -0.02,0.128 -0.025,0.19 0.018,0.295 0.079,0.591 0.186,0.85 0.088,0.211 0.205,0.396 0.354,0.532 0.058,-0.019 0.127,-0.044 0.202,-0.071 0.269,-0.096 0.627,-0.224 1.011,-0.277 0,0 0.014,-10e-4 0.015,-10e-4 0.254,10e-4 0.524,0.009 0.798,0.018 0.894,0.028 1.82899,0.058 2.38399,-0.202 0.515,-0.241 0.696,-0.762 0.174,-1.839 -0.043,-0.09 0.115,-0.18 0.178,-0.101 0.979,1.25 0.566,2.007 -0.007,2.442 -0.274,0.207 -0.582,0.338 -0.789,0.413 0.223,0.136 0.349,0.327 0.396,0.549 0.049,0.222 0.017,0.474 -0.072,0.724 -0.045,0.126 -0.104,0.253 -0.176,0.376 -0.006,0.01 -0.043,0.041 -0.054,0.045 -1.28399,0.453 -3.70699,1.501 -5.51999,2.841 -1.087,0.804 -1.953,1.71 -2.212,2.648 0.258,-0.154 0.52,-0.268 0.806,-0.344 0.363,-0.097 0.762,-0.132 1.234,-0.108 0.098,0.005 0.12,0.164 0.028,0.193 -0.264,0.083 -0.532,0.189 -0.797,0.315 -1.088,0.517 -2.138,1.382 -2.776,2.542 -0.637,1.159 -0.863,2.614 -0.307,4.314 0.088,0.271 0.197,0.549 0.327,0.832 0.13,-0.325 0.229,-0.671 0.325,-1.014 0.09,-0.317 0.179,-0.632 0.295,-0.933 z m 5.97199,-18.77 0.029,-0.033 0,0 c 0.003,-0.002 0.004,-0.005 0.006,-0.007 0,0 0,0 0,0 0.003,-0.003 0.005,-0.006 0.007,-0.008 0,0 0,0 0,0 0.003,-0.003 0.005,-0.005 0.008,-0.008 0,0 0,0 0,0 0.002,-0.002 0.005,-0.005 0.007,-0.008 0,0 0,0 0,0 0.003,-0.002 0.005,-0.005 0.007,-0.007 0,0 0,0 0,0 0.003,-0.003 0.006,-0.005 0.008,-0.008 0,0 0,0 0,0 0.003,-0.002 0.005,-0.005 0.008,-0.008 0,0 0,0 0,0 0.003,-0.002 0.005,-0.004 0.008,-0.007 0,0 0,0 0,0 0.002,-0.003 0.005,-0.005 0.008,-0.008 0,0 0,0 0,0 0.003,-0.002 0.005,-0.005 0.008,-0.007 0,0 0,0 0,0 0.003,-0.003 0.006,-0.005 0.009,-0.008 0,0 0,0 0,0 0.003,-0.003 0.005,-0.005 0.008,-0.008 0,0 0,0 0,0 0.003,-0.002 0.006,-0.005 0.009,-0.008 0,0 0,10e-4 0,0 0.003,-0.002 0.006,-0.005 0.009,-0.007 0,0 0,0 0,0 0.003,-0.003 0.006,-0.005 0.009,-0.008 0,0 0,0 0,0 0.003,-0.002 0.006,-0.005 0.01,-0.008 0,0 0,0 0,0 0.003,-0.002 0.005,-0.005 0.008,-0.007 0,0 0,0 0,0 0.004,-0.002 0.007,-0.005 0.01,-0.008 0,0 0,0 0,0 0.003,-0.002 0.007,-0.005 0.01,-0.007 0,0 0,0 0,0 0.003,-0.003 0.007,-0.005 0.01,-0.008 0,0 0,0 0,0 0.003,-0.002 0.007,-0.005 0.01,-0.007 0,0 0,0 0,0 0.003,-0.003 0.006,-0.005 0.01,-0.008 0,0 0,0 0,0 0.003,-0.002 0.006,-0.005 0.01,-0.007 0,0 0,0 0,0 0.003,-0.003 0.007,-0.005 0.01,-0.008 0,0 0,0 0,0 0.004,-0.002 0.008,-0.005 0.011,-0.007 0,0 0,0 0,0 0.004,-0.002 0.007,-0.005 0.011,-0.007 0,0 0,0 0,0 0.003,-0.003 0.006,-0.005 0.011,-0.008 0,0 0,0 0,0 0.003,-0.002 0.007,-0.005 0.01,-0.007 0,0 0,0 0,0 0.004,-0.002 0.008,-0.005 0.012,-0.007 0,0 0,0 0,0 0.003,-0.003 0.007,-0.005 0.01,-0.007 0,0 0,0 0,0 0.005,-0.003 0.008,-0.005 0.012,-0.008 0,0 0,0 0,0 0.003,-0.002 0.008,-0.005 0.011,-0.007 0,0 0,0 0,0 0.005,-0.002 0.008,-0.005 0.012,-0.007 0,0 0,0 0,0 0.004,-0.002 0.008,-0.005 0.012,-0.007 0,0 0,0 0,0 0.004,-0.002 0.008,-0.004 0.011,-0.007 0,0 0,0 0,0 0.005,-0.002 0.009,-0.004 0.013,-0.007 0,0 0,0 0,0 0.004,-0.002 0.008,-0.004 0.012,-0.007 0,0 0,0 0,0 0.004,-0.002 0.008,-0.004 0.011,-0.006 0,0 0,0 0.001,0 0.004,-0.002 0.008,-0.005 0.012,-0.007 0,0 0,0 0,0 0.004,-0.002 0.009,-0.004 0.012,-0.007 0,0 0,0 0,0 0.005,-0.002 0.009,-0.004 0.013,-0.006 0,0 0,0 0,0 0.004,-0.002 0.009,-0.004 0.013,-0.006 0,0 0,0 0,0 0.004,-0.003 0.009,-0.005 0.012,-0.007 0,0 0,0 0,0 0.005,-0.002 0.009,-0.004 0.014,-0.006 0,0 0,0 0,0 0.004,-0.002 0.008,-0.004 0.012,-0.007 0,0 0,0 0,0 0.005,-0.002 0.009,-0.004 0.014,-0.006 0,0 0,0 0,0 0.004,-0.002 0.008,-0.004 0.013,-0.006 0,0 0,0 0,0 0.004,-0.002 0.009,-0.004 0.013,-0.006 0,0 0,0 0,0 0.005,-0.002 0.009,-0.004 0.014,-0.006 0,0 0,0 0,0 0.004,-0.002 0.008,-0.004 0.013,-0.006 0,0 0,0 0,0 0.005,-0.002 0.009,-0.003 0.014,-0.005 0,0 0,0 0,0 0.004,-0.002 0.008,-0.004 0.013,-0.006 0,0 0,0 0,0 0.005,-0.002 0.01,-0.004 0.014,-0.006 0,0 0,0 0,0 0.004,-10e-4 0.009,-0.003 0.014,-0.005 0,0 0,0 0,0 0.005,-0.002 0.009,-0.004 0.014,-0.005 0,0 0,0 0,0 0.004,-0.002 0.009,-0.004 0.014,-0.006 0,0 0,0 0,0 0.005,-10e-4 0.009,-0.003 0.014,-0.005 0,0 0,0 0,0 0.005,-0.002 0.01,-0.004 0.014,-0.005 0,0 0,0 0,0 0.005,-0.002 0.01,-0.004 0.015,-0.005 0,0 0,0 0,0 0.004,-0.002 0.009,-0.003 0.014,-0.005 0,0 0,0 0,0 0.005,-0.001 0.01,-0.003 0.015,-0.005 0,0 0,0 0,0 0.005,-0.001 0.009,-0.003 0.014,-0.004 0,0 0,0 0,0 0.005,-0.002 0.01,-0.004 0.014,-0.005 0,0 0,0 0,0 0.005,-0.002 0.01,-0.003 0.015,-0.004 0,0 0,0 0,0 0.005,-0.002 0.008,-0.003 0.012,-0.004 0,0 0,0 0,0 0.004,-10e-4 0.008,-0.002 0.012,-0.003 0,0 0,0 0,0 0.004,-10e-4 0.008,-0.002 0.012,-0.003 0,0 0,0 0,0 0.004,-10e-4 0.008,-0.003 0.012,-0.004 0,0 0,0 0,0 0.004,-10e-4 0.008,-10e-4 0.012,-0.003 0,0 0,0 0,0 0.004,-10e-4 0.008,-0.002 0.012,-0.003 0,0 0,0 0,0 0.004,-0.001 0.008,-0.002 0.011,-0.003 0,0 10e-4,0 10e-4,0 0.004,-10e-4 0.007,-0.002 0.012,-0.002 0,0 0,0 0,0 0.003,-0.002 0.008,-0.002 0.012,-0.003 0,0 0,0 0,0 0.003,-10e-4 0.008,-0.002 0.012,-0.003 0,0 0,0 0,0 0.004,-10e-4 0.008,-0.002 0.012,-0.003 0,0 0,0 0,0 0.004,-10e-4 0.009,-10e-4 0.012,-0.002 0,0 0,0 0,0 0.004,-10e-4 0.008,-0.002 0.012,-0.003 0,0 0,0 0,0 0.005,-10e-4 0.009,-10e-4 0.013,-0.002 0,0 0,0 0,0 0.004,-10e-4 0.008,-10e-4 0.012,-0.002 0,0 0,0 0,0 0.004,-10e-4 0.008,-0.002 0.013,-0.002 0,0 0,0 0,0 0.004,-10e-4 0.008,-0.002 0.012,-0.002 0,0 0,0 0,0 0.004,-10e-4 0.008,-0.002 0.013,-0.003 0,0 0,0 0,0 0.003,0 0.008,-10e-4 0.012,-0.002 0,0 0,0 0,0 0.004,0 0.008,-10e-4 0.013,-10e-4 0,0 0,0 0,0 0.003,-10e-4 0.008,-0.002 0.012,-0.002 0,0 0,0 0,0 0.004,0 0.008,-10e-4 0.013,-0.002 0,0 0,0 0,0 0.003,0 0.008,0 0.012,-10e-4 0,0 0.001,0 0.001,0 0.003,-10e-4 0.007,-10e-4 0.012,-0.002 0,0 0,0 0,0 0.004,0 0.008,0 0.012,-10e-4 0,0 0,0 0,0 0.005,0 0.009,-10e-4 0.013,-10e-4 0,0 0,0 0,0 0.004,0 0.008,-10e-4 0.013,-10e-4 0,0 0,0 0,0 0.004,-10e-4 0.008,-10e-4 0.013,-0.002 0,0 0,0 0,0 0.004,0 0.008,0 0.012,0 0,0 0,0 0,0 0.005,-10e-4 0.009,-10e-4 0.013,-10e-4 0,0 0,0 0,0 0.005,0 0.008,-10e-4 0.013,-10e-4 0,0 0,0 0,0 0.005,0 0.009,0 0.012,0 0,0 0,0 0,0 0.005,-10e-4 0.01,-10e-4 0.013,-10e-4 0,0 0,0 0,0 0.005,0 0.01,0 0.013,0 0,0 0,0 0,0 0.005,0 0.009,-0.001 0.014,-0.001 0,0 0,0 0,0 0.003,0 0.008,0 0.012,0 0,0 0,0 0,0 0.005,0 0.009,0 0.013,0 0,0 0,0 0,0 0.005,0 0.009,0 0.013,0 0,0 0,0 0,0 0.005,0 0.009,0 0.013,0 0,0 0,0 0,0 0.005,0 0.009,0 0.013,0.001 0,0 0,0 0,0 0.004,0 0.009,0 0.013,0 0,0 0,0 0,0 0.004,0 0.009,10e-4 0.013,10e-4 0,0 10e-4,0 10e-4,0 0.003,0 0.008,0 0.013,0 0,0 0,0 0,0 0.004,0 0.008,10e-4 0.012,10e-4 0,0 0,0 0,0 0.005,0 0.009,10e-4 0.013,10e-4 0,0 0,0 0,0 0.004,0 0.009,0 0.013,0.001 0,0 0,0 0,0 0.005,0 0.009,10e-4 0.014,10e-4 0,0 0,0 0,0 0.004,10e-4 0.008,10e-4 0.013,10e-4 0,0 0,0 0,0 0.004,0 0.008,10e-4 0.013,0.002 0,0 0,0 0,0 0.004,0 0.009,0 0.013,0.001 0,0 0,0 0,0 0.004,10e-4 0.009,10e-4 0.013,0.002 0,0 0,0 0,0 0.004,0 0.009,10e-4 0.013,10e-4 0,0 0,0 0,0 0.005,10e-4 0.009,0.002 0.013,0.002 0,0 0,0 0,0 0.005,10e-4 0.009,0.002 0.013,0.002 0,0 0,0 0,0 0.005,10e-4 0.009,0.002 0.013,0.002 0,0 0,0 0,0 0.005,0.001 0.009,0.002 0.014,0.003 0,0 0,0 0,0 0.004,0 0.008,10e-4 0.013,0.002 0,0 0,0 0,0 0.005,0.001 0.009,0.002 0.013,0.003 0,0 0,0 0,0 0.005,0 0.009,0.002 0.013,0.002 0,0 0,0 0,0 0.004,10e-4 0.009,0.002 0.013,0.003 0,0 0,0 0,0 0.005,10e-4 0.009,0.002 0.014,0.003 0,0 0,0 0,0 0.004,10e-4 0.008,0.002 0.013,0.003 0,0 0,0 0,0 0.004,0.001 0.009,0.002 0.013,0.003 0,0 0,0 0,0 0.004,10e-4 0.009,0.002 0.013,0.003 0,0 0,0 0,0 l 0.018,0.005 0,0 0,0.018 c 0,0 0,0 0,0 -0.001,0.001 -0.001,0.002 -0.001,0.003 0,0 0,0 0,0 0,10e-4 0,0.002 0,0.003 0,0 0,0 0,0 -10e-4,10e-4 -10e-4,0.002 -10e-4,0.003 0,0 0,0 0,0 0,0.001 0,0.002 0,0.003 0,0 0,0 0,0 0,10e-4 0,0.002 0,0.003 0,0 0,0 0,0 0,10e-4 0,0.002 0,0.003 0,0 0,0 0,0 0,10e-4 0,0.003 0,0.004 0,0 0,0 0,0 -0.001,10e-4 -0.001,0.002 -0.001,0.002 0,0 0,0 0,0 -10e-4,0.002 -10e-4,0.003 -10e-4,0.004 0,0 0,0 0,0 0,10e-4 0,0.002 0,0.003 0,0 0,0 0,0 0,10e-4 0,0.003 0,0.003 0,0 0,0 0,0 -10e-4,0.002 -10e-4,0.002 -10e-4,0.004 0,0 0,0 0,0 0,0.001 -0.001,0.002 -0.001,0.003 0,0 -10e-4,0 -10e-4,0 0,10e-4 0,0.002 0,0.003 0,0 0,0 0,0 0,0.002 0,0.003 0,0.004 0,0 0,0 0,0 -0.001,0.001 -0.001,0.002 -0.002,0.003 0,0 0,0 0,0 0,10e-4 0,0.003 0,0.004 0,0 0,0 0,0 0,10e-4 0,0.002 -0.001,0.003 0,0 0,0 0,0 0,0.001 -10e-4,0.003 -10e-4,0.004 0,0 0,0 0,0 -10e-4,0.001 -10e-4,0.002 -10e-4,0.004 0,0 0,0 0,0 0,0 0,0.002 -0.001,0.003 0,0 0,0 0,0 -10e-4,10e-4 -10e-4,0.002 -10e-4,0.004 0,0 0,0 0,0 0,10e-4 0,0.002 -0.001,0.003 0,0 0,0 0,0 0,0.002 -10e-4,0.002 -0.002,0.004 0,0 0,0 0,0 0,10e-4 0,0.002 0,0.003 0,0 0,0 0,0 -0.001,0.002 -0.002,0.003 -0.002,0.004 0,0 0,0 0,0 0,10e-4 0,0.003 -0.001,0.004 0,0 0,0 0,0 0,0.001 -10e-4,0.002 -10e-4,0.004 0,0 0,0 0,0 -0.001,10e-4 -0.001,0.002 -0.001,0.004 0,0 0,0 0,0 -0.002,10e-4 -0.002,0.002 -0.002,0.004 0,0 0,0 0,0 0,10e-4 -0.001,0.002 -0.001,0.003 0,0 0,0 0,0 -10e-4,0.002 -10e-4,0.003 -0.002,0.004 0,0 0,0 0,0 0,0.001 -10e-4,0.003 -0.002,0.004 0,0 0,0 0,0 0,10e-4 0,0.003 0,0.004 0,0 0,0 0,0 -0.001,10e-4 -0.002,0.002 -0.002,0.004 0,0 0,0 0,0 -0.001,10e-4 -0.001,0.002 -0.002,0.003 0,0 0,0 0,0 -0.001,0.002 -0.001,0.003 -0.001,0.005 0,0 0,0 0,0 -10e-4,0.001 -10e-4,0.002 -0.002,0.004 0,0 0,0 0,0 -0.001,0.001 -0.001,0.002 -0.002,0.004 0,0 0,0 0,0 -0.001,10e-4 -0.001,0.002 -0.001,0.003 0,0 0,0 0,0 -10e-4,0.002 -10e-4,0.003 -0.002,0.004 0,0 0,0 0,0 -0.001,0.002 -0.001,0.003 -0.002,0.005 0,0 0,0 0,0 -0.001,10e-4 -0.001,0.002 -0.001,0.004 0,0 -10e-4,0 -10e-4,0 0,0.001 -0.001,0.002 -0.002,0.004 0,0 0,0 0,0 0,10e-4 -10e-4,0.002 -10e-4,0.004 0,0 -0.001,0 -0.001,0 0,10e-4 -10e-4,0.002 -10e-4,0.003 0,0 0,0 0,0 -0.001,0.002 -0.002,0.003 -0.002,0.005 0,0 0,0 0,0 -10e-4,10e-4 -10e-4,0.002 -0.002,0.003 0,0 0,0 0,0 -10e-4,0.002 -10e-4,0.003 -0.002,0.004 0,0 0,0 0,0 -10e-4,0.002 -10e-4,0.003 -0.002,0.005 0,0 0,0 0,0 -0.001,10e-4 -0.002,0.002 -0.002,0.004 0,0 0,0 0,0 -0.001,10e-4 -0.001,0.002 -0.002,0.003 0,0 0,0 0,0 -0.001,0.002 -0.002,0.003 -0.002,0.005 0,0 0,0 0,0 -10e-4,10e-4 -0.002,0.003 -0.002,0.004 0,0 -10e-4,0 -10e-4,0 0,10e-4 -0.001,0.003 -0.002,0.004 0,0 0,0 0,0 0,0.001 -10e-4,0.003 -10e-4,0.004 0,0 -0.001,0 -0.001,0 0,10e-4 -10e-4,0.003 -0.002,0.004 0,0 0,0 0,0 -10e-4,10e-4 -10e-4,0.002 -0.002,0.004 0,0 0,0 0,0 -10e-4,10e-4 -0.002,0.003 -0.002,0.004 0,0 0,0 0,0 -0.001,10e-4 -0.002,0.003 -0.003,0.004 0,0 0,0 0,0 0,10e-4 -10e-4,0.002 -0.002,0.004 0,0 0,0 0,0 0,0.001 -0.001,0.003 -0.002,0.004 0,0 0,0 0,0 -0.001,0.002 -0.002,0.003 -0.002,0.004 0,0 -0.001,0 -0.001,0 0,10e-4 -10e-4,0.002 -0.002,0.004 0,0 0,0 0,0 -0.001,10e-4 -0.001,0.003 -0.002,0.004 0,0 0,0 0,0 -0.001,10e-4 -0.001,0.002 -0.002,0.004 0,0 0,0 0,0 -10e-4,10e-4 -0.002,0.002 -0.002,0.003 0,0 -10e-4,0 -10e-4,0 -0.001,0.002 -0.001,0.003 -0.002,0.005 0,0 0,0 0,0 -0.001,10e-4 -0.002,0.002 -0.002,0.003 0,0 0,0 0,0 -10e-4,0.002 -0.002,0.003 -0.003,0.004 0,0 0,0 0,0 0,10e-4 -0.001,0.003 -0.002,0.004 0,0 0,0 0,0 0,10e-4 -0.002,0.002 -0.003,0.004 0,0 0,0 0,0 0,0.001 -0.001,0.002 -0.002,0.004 0,0 0,0 0,0 0,10e-4 -0.002,0.002 -0.003,0.003 0,0 0,0 0,0 0,10e-4 -0.001,0.003 -0.002,0.004 0,0 0,0 0,0 0,10e-4 -0.002,0.002 -0.003,0.004 0,0 0,0 0,0 0,0.001 -0.001,0.002 -0.002,0.004 0,0 0,0 0,0 0,0.001 -0.002,0.002 -0.003,0.003 0,0 0,0 0,0 0,10e-4 -10e-4,0.002 -0.002,0.004 0,0 0,0 0,0 0,10e-4 -0.002,0.002 -0.003,0.004 0,0 0,0 0,0 0,10e-4 -10e-4,0.002 -0.002,0.003 0,0 0,0 0,0 0,10e-4 -0.002,0.003 -0.003,0.004 0,0 0,0 0,0 0,10e-4 -10e-4,0.002 -0.002,0.004 0,0 0,0 0,0 -10e-4,10e-4 -0.002,0.002 -0.003,0.003 0,0 0,0 0,0 0,10e-4 -0.002,0.003 -0.002,0.004 0,0 0,0 0,0 -10e-4,0.001 -0.002,0.002 -0.003,0.003 0,0 0,0 0,0 -10e-4,10e-4 -0.002,0.003 -0.002,0.004 0,0 0,0 0,0 -0.002,10e-4 -0.003,0.002 -0.003,0.003 0,0 0,0 0,0 -10e-4,0.001 -0.002,0.003 -0.002,0.004 0,0 0,0 0,0 -0.002,10e-4 -0.002,0.002 -0.003,0.003 0,0 0,0 0,0 -0.002,10e-4 -0.002,0.003 -0.003,0.004 0,0 0,0 0,0 -0.001,10e-4 -0.002,0.002 -0.002,0.003 0,0 0,0 0,0 -0.002,0.001 -0.002,0.002 -0.003,0.004 0,0 0,0 0,0 -0.001,10e-4 -0.002,0.002 -0.003,0.003 0,0 0,0 0,0 -10e-4,10e-4 -0.002,0.002 -0.003,0.003 0,0 0,0 0,0 -10e-4,0.002 -10e-4,0.002 -0.003,0.004 0,0 0,0 0,0 0,0 -0.001,0.002 -0.002,0.003 0,0 0,0 0,0 -10e-4,10e-4 -0.002,0.002 -0.003,0.003 0,0 0,0 0,0 -0.001,10e-4 -0.002,0.002 -0.003,0.003 0,0 0,0 0,0 0,10e-4 -0.002,0.002 -0.002,0.004 0,0 0,0 0,0 -0.001,0 -0.002,0.002 -0.003,0.003 0,0 0,0 0,0 -0.001,10e-4 -0.002,0.002 -0.003,0.003 0,0 0,0 0,0 -10e-4,10e-4 -0.002,0.002 -0.003,0.003 0,0 0,0 0,0 -10e-4,10e-4 -10e-4,0.002 -0.002,0.003 0,0 0,0 0,0 -10e-4,0.001 -0.002,0.002 -0.003,0.003 0,0 0,0 0,0 -10e-4,10e-4 -0.002,0.002 -0.003,0.003 0,0 0,0 0,0 -0.001,10e-4 -0.002,0.002 -0.003,0.003 0,0 0,0 0,0 -10e-4,0.001 -0.002,0.002 -0.003,0.003 0,0 0,0 0,0 0,10e-4 -10e-4,0.002 -0.002,0.003 0,0 0,0 0,0 -10e-4,10e-4 -0.002,0.002 -0.003,0.002 0,0 0,0 0,0 -10e-4,10e-4 -0.002,0.003 -0.003,0.003 0,0 0,0 0,0 -0.001,10e-4 -0.002,0.002 -0.002,0.003 0,0 -10e-4,0 -10e-4,0 -0.001,10e-4 -0.002,0.002 -0.002,0.003 0,0 0,0 0,0 -0.002,10e-4 -0.002,10e-4 -0.003,0.002 0,0 0,0 0,0 -0.001,10e-4 -0.002,0.002 -0.003,0.003 0,0 0,0 0,0 -10e-4,10e-4 -0.002,0.002 -0.003,0.003 0,0 0,0 0,0 -10e-4,10e-4 -0.002,10e-4 -0.003,0.002 0,0 0,0 0,0 0,10e-4 -0.002,0.002 -0.003,0.003 0,0 0,0 0,0 0,0 -0.002,10e-4 -0.002,0.002 0,0 0,0 0,0 -0.001,10e-4 -0.002,0.002 -0.003,0.002 0,0 0,0 0,0 -10e-4,0.001 -0.002,0.002 -0.003,0.003 0,0 0,0 0,0 -10e-4,10e-4 -0.002,10e-4 -0.002,0.002 0,0 0,0 0,0 -0.002,0.001 -0.002,0.001 -0.003,0.002 0,0 0,0 -10e-4,0 -0.001,10e-4 -0.001,0.002 -0.002,0.002 0,0 0,0 0,0 -0.001,10e-4 -0.002,0.002 -0.003,0.003 0,0 0,-10e-4 0,0 -0.001,0 -0.001,10e-4 -0.003,0.002 0,0 0,0 0,0 0,0 -0.002,0.001 -0.003,0.002 0,0 0,0 0,0 0,0 -10e-4,10e-4 -0.002,0.002 l 0,0 -0.008,0.003 c 0,0 0,0 0,0 -0.003,10e-4 -0.007,0.002 -0.01,0.003 0,0 0,0 0,0 -0.004,0.001 -0.007,0.001 -0.01,0.002 0,0 0,0 0,0 -0.004,10e-4 -0.007,0.002 -0.01,0.003 0,0 0,0 0,0 -0.004,0 -0.007,0.001 -0.011,0.002 0,0 0,0 0,0 -0.004,0 -0.007,10e-4 -0.01,0.002 0,0 0,0 0,0 -0.004,10e-4 -0.007,10e-4 -0.01,0.002 0,0 0,0 0,0 -0.004,10e-4 -0.007,10e-4 -0.01,0.002 0,0 -10e-4,0 -10e-4,0 -0.003,10e-4 -0.006,10e-4 -0.01,0.002 0,0 0,0 0,0 -0.003,0 -0.007,10e-4 -0.01,0.002 0,0 0,0 0,0 -0.003,0 -0.007,10e-4 -0.011,0.002 0,0 0,0 0,0 -0.003,0 -0.006,0.001 -0.01,0.002 0,0 0,0 0,0 -0.003,0 -0.007,10e-4 -0.01,10e-4 0,0 0,0 0,0 -0.003,10e-4 -0.007,0.002 -0.01,0.002 0,0 -0.001,0 -0.001,0 -0.003,0.001 -0.007,0.001 -0.01,0.002 0,0 0,0 0,0 -0.004,10e-4 -0.007,10e-4 -0.01,10e-4 0,0 0,0 0,0 -0.004,10e-4 -0.007,0.002 -0.01,0.002 0,0 0,0 0,0 -0.004,0 -0.007,0.001 -0.011,0.002 0,0 -10e-4,0 -10e-4,0 -0.002,0 -0.006,10e-4 -0.01,10e-4 0,0 0,0 0,0 -0.003,10e-4 -0.007,10e-4 -0.01,0.002 0,0 0,0 0,0 -0.003,0 -0.007,0.001 -0.01,0.001 0,0 0,0 0,0 -0.004,10e-4 -0.008,10e-4 -0.011,0.002 0,0 0,0 0,0 -0.004,0 -0.007,0 -0.011,10e-4 0,0 0,0 0,0 -0.003,0 -0.007,0.001 -0.01,0.001 0,0 0,0 0,0 -0.004,0 -0.007,10e-4 -0.011,10e-4 0,0 0,0 0,0 -0.003,10e-4 -0.007,10e-4 -0.01,0.002 0,0 0,0 0,0 -0.003,0 -0.008,0 -0.011,10e-4 0,0 0,0 0,0 -0.004,0 -0.007,0.001 -0.011,0.001 0,0 0,0 0,0 -0.003,0 -0.006,10e-4 -0.01,10e-4 0,0 0,0 0,0 -0.003,0 -0.007,10e-4 -0.011,10e-4 0,0 0,0 0,0 -0.003,10e-4 -0.007,10e-4 -0.01,10e-4 0,0 0,0 0,0 -0.004,0 -0.007,10e-4 -0.011,10e-4 0,0 0,0 0,0 -0.003,0 -0.006,0.001 -0.011,0.001 0,0 0,0 0,0 -0.003,0 -0.006,0 -0.01,10e-4 0,0 0,0 0,0 -0.003,0 -0.007,10e-4 -0.01,10e-4 0,0 0,0 0,0 -0.005,0 -0.008,10e-4 -0.011,10e-4 0,0 0,0 0,0 -0.004,0 -0.007,0 -0.011,0 0,0 0,0 0,0 -0.004,10e-4 -0.007,10e-4 -0.011,10e-4 0,0 0,0 0,0 -0.003,0.001 -0.007,0.001 -0.01,0.001 0,0 0,0 0,0 -0.004,0 -0.008,0 -0.011,0 0,0 0,0 0,0 -0.004,10e-4 -0.007,10e-4 -0.01,10e-4 0,0 0,0 0,0 -0.004,0 -0.007,10e-4 -0.012,10e-4 0,0 0,0 0,0 -0.003,0 -0.007,0 -0.01,10e-4 0,0 0,0 0,0 -0.003,0 -0.007,0 -0.01,0 0,0 0,0 0,0 -0.004,0 -0.007,0 -0.011,0 0,0 0,0 0,0 -0.004,10e-4 -0.007,10e-4 -0.011,10e-4 0,0 0,0 0,0 -0.003,0 -0.007,0 -0.01,0 0,0 0,0 0,0 -0.004,0 -0.008,0.001 -0.011,0.001 0,0 0,0 0,0 -0.003,0 -0.007,0 -0.01,0 0,0 0,0 0,0 -0.004,0 -0.008,0 -0.011,0 0,0 0,0 0,0 -0.004,0 -0.007,0 -0.011,10e-4 0,0 0,0 0,0 -0.003,0 -0.007,0 -0.011,0 0,0 0,0 0,0 -0.003,0 -0.007,0 -0.01,0 0,0 0,0 0,0 -0.004,0 -0.007,0 -0.01,0 0,0 0,0 0,0 -0.005,10e-4 -0.008,10e-4 -0.011,10e-4 0,0 -10e-4,0 -10e-4,0 -0.003,0 -0.006,0 -0.01,0 0,0 0,0 0,0 -0.003,0 -0.007,0 -0.01,0 0,0 0,0 0,0 -0.004,0 -0.008,0 -0.011,0 0,0 0,0 0,0 -0.004,0 -0.007,0 -0.01,0 0,0 0,0 0,0 -0.004,0 -0.007,0 -0.012,0 0,0 0,0 0,0 -0.002,0 -0.006,0 -0.01,0 0,0 0,0 0,0 -0.003,0 -0.007,0 -0.01,0 0,0 0,0 0,0 -0.004,0 -0.007,0 -0.01,0 0,0 0,0 0,0 -0.004,0 -0.008,0 -0.011,0 0,0 0,0 0,0 -0.004,0 -0.007,0 -0.01,0 0,0 0,0 0,0 -0.004,0 -0.007,0 -0.01,0 0,0 -10e-4,0 -10e-4,0 -0.004,0 -0.007,0 -0.01,0 0,0 -0.001,0 -0.001,0 -0.003,0 -0.006,0 -0.01,-10e-4 0,0 0,0 0,0 -0.003,0 -0.007,0 -0.01,0 0,0 0,0 0,0 -0.003,0 -0.007,0 -0.01,0 0,0 0,0 0,0 -0.004,0 -0.008,0 -0.01,0 0,0 0,0 0,0 -0.004,0 -0.008,0 -0.011,-10e-4 0,0 0,0 0,0 -0.004,0 -0.007,0 -0.01,0 0,0 0,0 0,0 -0.004,0 -0.007,0 -0.01,0 0,0 0,0 0,0 -0.004,0 -0.007,0 -0.011,0 0,0 0,0 0,0 -0.003,0 -0.006,0 -0.01,-0.001 0,0 0,0 0,0 -0.004,0 -0.007,0 -0.01,0 0,0 0,0 0,0 -0.004,0 -0.007,0 -0.01,0 0,0 0,0 0,0 -0.004,0 -0.007,-10e-4 -0.011,-10e-4 0,0 0,0 0,0 -0.003,0 -0.006,0 -0.01,0 0,0 0,0 0,0 -0.003,0 -0.006,0 -0.01,0 0,0 0,0 0,0 -0.003,-10e-4 -0.006,-10e-4 -0.01,-10e-4 0,0 0,0 0,0 -0.003,0 -0.006,0 -0.01,-10e-4 0,0 0,0 0,0 -0.003,0 -0.006,0 -0.01,0 0,0 0,0 0,0 -0.003,0 -0.006,0 -0.01,-10e-4 0,0 0,0 0,0 -0.003,0 -0.006,0 -0.01,0 0,0 0,0 0,0 -0.003,0 -0.006,0 -0.009,0 0,0 0,0 0,0 -0.004,-0.001 -0.007,-0.001 -0.01,-0.001 0,0 0,0 0,0 -0.004,0 -0.007,-10e-4 -0.01,-10e-4 0,0 0,0 0,0 -0.004,0 -0.007,0 -0.009,0 0,0 -10e-4,0 -10e-4,0 -0.003,0 -0.006,-10e-4 -0.009,-10e-4 0,0 0,0 0,0 -0.004,0 -0.007,0 -0.01,0 0,0 0,0 0,0 -0.003,-10e-4 -0.007,-10e-4 -0.01,-10e-4 0,0 0,0 0,0 -0.003,-10e-4 -0.006,-10e-4 -0.01,-10e-4 0,0 0,0 0,0 -0.003,0 -0.006,0 -0.009,0 0,0 0,0 0,0 -0.003,-0.001 -0.007,-0.001 -0.009,-0.001 0,0 -10e-4,0 -10e-4,0 -0.002,0 -0.006,-10e-4 -0.009,-10e-4 0,0 0,0 0,0 -0.003,0 -0.006,0 -0.01,0 0,0 0,0 0,0 -0.003,-10e-4 -0.006,-10e-4 -0.009,-10e-4 0,0 0,0 0,0 -0.003,0 -0.007,-10e-4 -0.009,-10e-4 0,0 0,0 0,0 -0.003,0 -0.007,-10e-4 -0.01,-10e-4 0,0 0,0 0,0 -0.002,0 -0.006,0 -0.009,0 0,0 0,0 0,0 -0.003,0 -0.006,-0.001 -0.009,-0.001 0,0 0,0 0,0 -0.003,0 -0.007,-10e-4 -0.009,-10e-4 0,0 -0.001,0 -0.001,0 -0.002,0 -0.005,0 -0.008,0 0,0 0,0 0,0 -0.004,-10e-4 -0.007,-10e-4 -0.009,-10e-4 0,0 0,0 0,0 -0.004,-10e-4 -0.007,-10e-4 -0.01,-10e-4 0,0 0,0 0,0 -0.003,-10e-4 -0.006,-10e-4 -0.009,-10e-4 0,0 0,0 0,0 -0.003,0 -0.006,0 -0.009,-0.001 0,0 0,0 0,0 -0.003,0 -0.006,0 -0.008,-10e-4 0,0 0,0 0,0 -0.004,0 -0.007,0 -0.01,0 0,0 0,0 0,0 -0.002,0 -0.005,-10e-4 -0.008,-10e-4 0,0 0,0 0,0 -0.003,0 -0.006,-10e-4 -0.009,-10e-4 0,0 0,0 0,0 -0.003,0 -0.006,-0.001 -0.008,-0.001 0,0 0,0 0,0 -0.004,0 -0.007,0 -0.01,0 0,0 0,0 0,0 -0.002,-10e-4 -0.005,-10e-4 -0.007,-10e-4 0,0 -0.001,0 -0.001,0 -0.002,-10e-4 -0.005,-10e-4 -0.009,-10e-4 0,0 0,0 0,0 -0.003,0 -0.005,-10e-4 -0.008,-10e-4 0,0 0,0 0,0 -0.002,0 -0.005,-10e-4 -0.008,-10e-4 0,0 0,0 0,0 -0.003,0 -0.006,-0.001 -0.009,-0.001 0,0 0,0 0,0 -0.002,0 -0.005,0 -0.008,0 0,0 0,0 0,0 -0.003,-10e-4 -0.005,-10e-4 -0.008,-10e-4 0,0 0,0 0,0 -0.003,-10e-4 -0.006,-10e-4 -0.008,-10e-4 0,0 0,0 0,0 -0.003,0 -0.006,-10e-4 -0.009,-10e-4 0,0 0,0 0,0 -0.002,0 -0.005,-10e-4 -0.008,-10e-4 0,0 0,0 0,0 -0.002,0 -0.005,-0.001 -0.007,-0.001 0,0 0,0 0,0 -0.003,0 -0.006,0 -0.008,0 0,0 0,0 0,0 -0.003,-10e-4 -0.006,-10e-4 -0.008,-10e-4 0,0 0,0 0,0 -0.003,-10e-4 -0.005,-10e-4 -0.008,-10e-4 l 0,0 -0.044,-0.005 z"
         style="fill:#000000;stroke:none" />
      <path
         inkscape:connector-curvature="0"
         id="path950"
         d="m -454.67097,637.86564 c -0.38,0.049 -0.744,0.164 -1.087,0.272 -0.905,0.285 -1.669,0.525 -2.259,-0.573 -0.008,-0.013 0.011,-0.029 0.025,-0.02 0.87,0.579 1.812,0.284 2.655,0.02 0.725,-0.227 1.377,-0.432 1.855,-0.044 0.007,0.006 0.008,0.017 0.002,0.023 -0.021,0.023 -0.179,0.057 -0.378,0.1 -0.285,0.061 -0.656,0.141 -0.807,0.22 0,10e-4 -0.005,0.002 -0.006,0.002 z"
         style="fill:#000000;stroke:none" />
      <path
         inkscape:connector-curvature="0"
         id="path952"
         d="m -462.79498,658.52964 1.345,-16.81 c -0.369,0.014 -0.736,-0.003 -1.09099,-0.018 -0.007,0 -0.014,-10e-4 -0.02,-10e-4 -0.39,-0.018 -0.68,-0.491 -0.511,-0.836 0.171,-0.351 0.366,-0.711 0.592,-1.041 0.238,-0.348 0.514,-0.67 0.837,-0.929 0.143,-0.115 0.289,-0.191 0.437,-0.235 l 0.025,-0.301 -6.519,-0.031 0.089,1.244 c 0.631,0.288 1.18,0.74 1.697,1.166 l 0,10e-4 c 0.016,0.014 0.033,0.028 0.049,0.041 l 0.001,-10e-4 -0.001,10e-4 c 0.009,0.007 0.019,0.015 0.027,0.022 0.284,0.261 0.254,0.73 -0.066,0.881 -0.03,0.014 -0.061,0.028 -0.092,0.042 -0.067,0.032 -0.136,0.064 -0.205,0.096 -0.075,-0.062 -0.169,-0.138 -0.284,-0.231 l 0,10e-4 c 0.027,0.022 0.156,0.127 0.284,0.231 -0.05,0.023 -0.099,0.046 -0.148,0.068 0.008,0.004 0.016,0.007 0.024,0.011 0.107,0.049 0.194,0.089 0.265,0.123 0.113,0.054 0.194,0.093 0.249,0.121 l 0.003,10e-4 c 0.375,0.184 0.465,0.713 0.156,0.937 -0.165,0.119 -0.334,0.239 -0.501,0.355 0.337,0.132 0.51,0.583 0.304,0.859 -0.168,0.226 -0.53,0.675 -0.927,1.017 -0.08,0.069 -0.164,0.135 -0.248,0.196 -0.052,0.036 -0.102,0.071 -0.154,0.102 l 0.004,0.054 0,0 0,0 0,0 10e-4,0.014 0,0 0.02,0.274 c 0.21,3.743 0.639,8.752 0.958,12.847 0.175,-0.015 0.376,0 0.603,0.052 0.799,0.183 2.12,-0.419 2.797,-0.323 z m -3.06899,-17.751 c 0.009,0.007 0.018,0.015 0.026,0.023 1.22999,1.001 -0.093,-0.078 -0.026,-0.023 z m -1.66,0.018 0.027,0.361 c 0.102,-0.04 0.205,-0.083 0.308,-0.128 -0.111,-0.082 -0.222,-0.161 -0.335,-0.233 z m 0.129,1.779 0.022,0.305 c 0.082,-0.052 0.164,-0.106 0.247,-0.16 0.012,-0.008 0.023,-0.016 0.034,-0.023 -0.102,-0.043 -0.203,-0.083 -0.303,-0.122 z m 1.194,-0.755 c 0,0 0,10e-4 0,10e-4 0.244,0.198 0.482,0.391 0,-10e-4 z m 4.839,-1.213 0.035,-0.438 c -0.094,0.111 -0.18301,0.228 -0.26601,0.351 -0.024,0.034 -0.047,0.068 -0.07,0.103 0.102,-0.003 0.203,-0.008 0.301,-0.016 z"
         style="fill:#000000;stroke:none" />
      <path
         inkscape:connector-curvature="0"
         id="path954"
         d="m -460.83098,618.23364 c -1.11499,-0.24 -2.482,-0.312 -3.80299,-0.265 -1.32,0.046 -2.68,0.214 -3.775,0.532 -1.625,-0.971 -1.833,-2.844 -0.16,-3.648 1.241,-0.255 2.561,-0.451 3.81,-0.495 1.25,-0.044 2.57999,0.058 3.83499,0.225 1.725,0.685 1.647,2.567 0.093,3.651 z"
         style="fill:#000000;stroke:none" />
      <path
         inkscape:connector-curvature="0"
         id="path956"
         d="m -449.82798,618.04264 c -1.292,0 -2.671,0.157 -3.744,0.49 0,0.043 0.002,0.929 0.002,1.792 1.253,-0.035 2.5,-0.052 3.742,-0.052 1.242,0 2.49,0.017 3.741,0.052 10e-4,-0.863 0.002,-1.749 0.004,-1.792 -1.074,-0.333 -2.453,-0.49 -3.745,-0.49 z"
         style="fill:#000000;stroke:none" />
      <path
         inkscape:connector-curvature="0"
         id="path958"
         d="m -464.60697,618.73564 c -1.292,0.045 -2.663,0.251 -3.726,0.621 0.005,0.088 0.048,1.198 0.088,2.256 2.469,-0.388 4.957,-0.682 7.451,-0.893 -0.027,-0.774 -0.053,-1.561 -0.054,-1.627 -1.08401,-0.295 -2.46801,-0.403 -3.759,-0.357 z"
         style="fill:#000000;stroke:none" />
      <path
         inkscape:connector-curvature="0"
         id="path960"
         d="m -438.82598,618.23364 c 1.116,-0.24 2.483,-0.312 3.804,-0.265 1.321,0.046 2.679,0.214 3.776,0.532 1.624,-0.971 1.832,-2.844 0.158,-3.648 -1.24,-0.255 -2.56,-0.451 -3.81,-0.495 -1.249,-0.044 -2.578,0.058 -3.835,0.225 -1.724,0.685 -1.646,2.567 -0.093,3.651 z"
         style="fill:#000000;stroke:none" />
      <path
         inkscape:connector-curvature="0"
         id="path962"
         d="m -435.04898,618.73564 c 1.292,0.045 2.663,0.251 3.725,0.621 -0.004,0.086 -0.045,1.142 -0.084,2.174 -2.469,-0.388 -4.957,-0.681 -7.452,-0.893 0.026,-0.747 0.051,-1.482 0.052,-1.545 1.085,-0.295 2.468,-0.403 3.759,-0.357 z"
         style="fill:#000000;stroke:none" />
      <path
         inkscape:connector-curvature="0"
         id="path964"
         d="m -449.82698,682.26364 -0.001,0 -10e-4,0 -0.038,-0.061 c -1.2,-1.875 -1.333,-3.656 -1.45999,-5.344 -0.003,-0.048 -0.006,-0.362 -0.01,-0.776 1.01,-0.009 2.016,-0.006 3.017,0.01 -0.004,0.409 -0.007,0.718 -0.01,0.766 -0.126,1.688 -0.26,3.469 -1.46,5.344 l -0.037,0.061 z"
         style="fill:#000000;stroke:none" />
      <path
         inkscape:connector-curvature="0"
         id="path966"
         d="m -462.51397,682.99364 0,-10e-4 -0.001,10e-4 -0.04,-0.06 c -1.264,-1.832 -1.459,-3.607 -1.644,-5.289 -0.005,-0.046 -0.018,-0.344 -0.035,-0.74 1.003,-0.121 2.006,-0.228 3.009,-0.321 0.013,0.5 0.023,0.901 0.021,0.956 -0.068,1.691 -0.14,3.475 -1.274,5.391 l -0.036,0.063 z"
         style="fill:#000000;stroke:none" />
      <path
         inkscape:connector-curvature="0"
         id="path968"
         d="m -437.14198,682.99364 -0.001,-10e-4 -10e-4,10e-4 -0.035,-0.063 c -1.134,-1.916 -1.207,-3.7 -1.275,-5.391 -10e-4,-0.053 0.008,-0.427 0.02,-0.901 1.013,0.096 2.016,0.204 3.008,0.323 -0.015,0.368 -0.028,0.639 -0.033,0.683 -0.184,1.682 -0.379,3.457 -1.643,5.289 l -0.04,0.06 z"
         style="fill:#000000;stroke:none" />
    </g>
  </g>
  <g
     id="g13825"
     transform="translate(291.5408,-739.96178)">
    <g
       id="g1160"
       transform="translate(-377.4261,39.508217)">
      <path
         style="fill:#cccccc;fill-opacity:1;stroke:#8b0000;stroke-width:0;stroke-miterlimit:4;stroke-opacity:1;stroke-dasharray:none"
         d="m 85.8853,765.734 144.5887,0 0,-6.89 -144.5887,0 0,6.89 z"
         id="path1162"
         inkscape:connector-curvature="0" />
      <path
         style="fill:#666666;fill-opacity:1;stroke:#8b0000;stroke-width:0;stroke-miterlimit:4;stroke-opacity:1;stroke-dasharray:none"
         d="m 114.482,737.128 -0.656,-0.546 -0.546,-0.547 -0.328,-0.765 -0.11,-0.547 0.11,-0.546 0.109,-0.547 0.219,-0.437 0.328,-0.547 0.327,-0.546 0.438,-0.438 0.437,-0.546 0.547,-0.547 0.656,-0.546 0.655,-0.328 0.656,-0.438 0.766,-0.218 0.655,-0.328 0.766,-0.328 0.546,-0.109 0.766,0 0.109,-0.328 0.218,-0.219 0.328,-0.328 0.438,-0.219 0.437,-0.218 0.547,-0.219 0.656,-0.218 0.546,-0.219 0.765,-0.328 0.766,-0.109 0.655,-0.11 0.766,-0.218 0.765,0 0.874,-0.11 0.766,-0.109 0.874,0 0.656,0.219 0.656,0.328 0.437,0.328 0.328,0.437 -0.546,2.077 -0.438,1.749 -0.655,1.202 -0.438,0.766 -0.218,0.437 -0.11,0.437 -0.328,0.328 -0.328,0.438 -0.328,0.327 -0.328,0.328 -0.437,0.328 -0.437,0.328 -0.547,0.328 -0.437,0.328 -0.547,0.219 -0.437,0.328 -0.656,0.109 -0.437,0.219 -0.656,0.218 -0.437,0.219 -0.656,0.219 -0.437,0.109 -0.438,0.219 -0.437,0.109 -0.328,0 -0.219,0.109 -0.218,0.11 -0.109,0 -0.328,0 -0.438,0 -0.328,0.109 -0.328,0 -0.328,0 -0.437,0.109 -0.437,0 -0.437,0 -0.766,0 -0.656,-0.109 -0.546,-0.109 -0.437,-0.11 -0.438,-0.109 -0.437,-0.219 -0.219,-0.218 -0.109,-0.219 0.109,0 0.11,-0.109 0.109,-0.11 z m -18.5841,31.266 -0.2186,-0.219 -0.1093,-0.547 0,-0.546 0,-0.656 0,-0.437 0,-0.438 0,-0.656 0,-0.546 0,-0.656 0.2186,-0.656 0.1093,-0.437 0,-0.328 0.1093,-0.11 0.2187,0 0.2186,-0.109 0.328,-0.328 0.3279,-0.219 0.4373,-0.327 0.5466,-0.328 0.5466,-0.328 0.4373,-0.328 0.4372,-0.328 0.5466,-0.219 0.547,-0.328 0.437,-0.109 0.437,-0.219 0.437,-0.219 0.328,0 0.11,-0.327 0.218,-0.219 0.328,-0.219 0.438,-0.328 0.437,-0.328 0.546,-0.546 0.656,-0.328 0.656,-0.547 0.766,-0.437 0.655,-0.328 0.656,-0.437 0.656,-0.328 0.547,-0.328 0.437,-0.219 0.437,-0.109 0.438,-0.109 0.437,-0.547 0.328,-0.328 0.437,-0.328 0.437,-0.328 0.438,-0.328 0.328,-0.219 0.437,-0.109 0.437,-0.218 1.531,0.109 1.311,0.109 1.312,0.219 1.203,0.218 1.202,0.438 0.984,0.328 0.875,0.546 0.765,0.547 0.219,0.546 0.218,0.984 0.219,1.203 0.328,1.53 0.328,1.64 0.546,1.531 0.547,1.311 0.656,1.094 0.328,0.546 0.328,0.328 0.437,0.437 0.547,0.328 0.656,0.219 0.655,0.219 0.766,0.109 0.874,0.109 0.547,-0.109 0.546,-0.109 0.328,-0.11 0.328,0 0.656,-0.109 0.547,-0.219 0.656,-0.109 0.437,-0.219 0.437,0 0.328,-0.109 0.328,-0.109 0.219,0 0.218,-0.328 0.328,-0.219 0.328,-0.219 0.328,-0.218 0.438,-0.219 0.328,-0.218 0.437,-0.219 0.437,-0.219 0.328,-0.109 0.547,-0.219 0.328,-0.218 0.437,-0.11 0.328,0 0.328,-0.109 0.328,0 0.328,0 0,0.547 0,0.765 -0.11,0.656 -0.109,0.656 0,0.656 0,0.765 0,0.765 0,0.656 -0.437,0.437 -0.656,0.547 -0.656,0.437 -0.765,0.547 -0.765,0.328 -0.875,0.437 -0.984,0.437 -0.984,0.438 -1.093,0.327 -1.093,0.438 -1.203,0.328 -1.311,0.328 -1.422,0.218 -1.421,0.219 -1.53,0.328 -1.64,0.219 -0.656,0 -0.765,-0.219 -0.437,-0.109 -0.438,0 -0.437,-0.11 -0.219,0 -0.218,-0.109 -0.219,0 -0.656,-0.109 -0.656,-0.219 -0.656,-0.219 -0.655,-0.218 -0.438,-0.328 -0.656,-0.219 -0.437,-0.437 -0.328,-0.109 -0.437,-0.328 -0.437,-0.328 -0.328,-0.328 -0.328,-0.328 -0.328,-0.328 -0.219,-0.328 -0.219,-0.219 -0.109,-0.328 -0.437,-0.656 -0.328,-0.437 -0.219,-0.437 -0.328,-0.438 -0.218,-0.109 -0.219,-0.218 -0.219,-0.219 -0.218,-0.219 -0.328,-0.328 -0.328,-0.328 -0.328,-0.437 -0.547,-0.437 -0.328,-0.547 -0.437,-0.328 -0.328,-0.328 -0.437,-0.328 -0.328,-0.218 -0.437,-0.11 -0.438,-0.218 -0.218,0 -0.438,0 -0.437,0.109 -0.328,0.109 -0.437,0.219 -0.547,0.219 -0.328,0.218 -0.656,0.328 -0.546,0.328 -0.547,0.328 -0.656,0.437 -0.437,0.328 -0.547,0.328 -0.546,0.328 -0.547,0.328 -0.437,0.328 -0.5466,0.219 -0.2186,0.109 -0.4373,0 -0.3279,0.219 -0.328,0.109 -0.3279,0.109 -0.328,0.11 -0.2186,0.218 -0.328,0.219 -0.4373,0.328 -0.4372,0.328 -0.2187,0.219 z"
         id="path1164"
         inkscape:connector-curvature="0" />
      <path
         style="fill:#990000;fill-opacity:1;stroke:#8b0000;stroke-width:0;stroke-miterlimit:4;stroke-opacity:1;stroke-dasharray:none"
         d="m 106.928,732.094 -0.656,-0.547 -0.437,-0.656 -0.437,-0.656 0,-0.656 0,-0.437 0.109,-0.547 0.328,-0.437 0.219,-0.656 0.328,-0.437 0.437,-0.547 0.437,-0.546 0.547,-0.438 0.765,-0.546 0.547,-0.437 0.765,-0.328 0.656,-0.328 0.765,-0.328 0.656,-0.219 0.656,-0.109 0.656,-0.109 0.218,-0.219 0.219,-0.328 0.328,-0.219 0.328,-0.218 0.546,-0.328 0.438,-0.11 0.656,-0.218 0.656,-0.328 0.655,-0.219 0.766,-0.109 0.765,-0.219 0.765,-0.109 0.765,-0.109 0.766,0 0.765,-0.11 0.874,0 0.656,0.219 0.656,0.328 0.438,0.328 0.327,0.328 -0.437,2.186 -0.546,1.749 -0.656,1.093 -0.438,0.875 -0.218,0.437 -0.11,0.328 -0.328,0.437 -0.218,0.328 -0.328,0.438 -0.437,0.328 -0.438,0.328 -0.437,0.218 -0.437,0.328 -0.547,0.328 -0.437,0.328 -0.547,0.219 -0.546,0.218 -0.547,0.219 -0.546,0.219 -0.547,0.109 -0.547,0.328 -0.546,0.109 -0.437,0.11 -0.438,0.109 -0.218,0.109 -0.219,0.11 -0.219,0.109 -0.218,0 -0.328,0 -0.328,0 -0.328,0.109 -0.437,0 -0.328,0 -0.438,0 -0.328,0 -0.546,0 -0.765,0 -0.656,0 -0.547,-0.109 -0.437,-0.109 -0.437,-0.219 -0.328,-0.219 -0.219,-0.109 -0.219,-0.328 0.11,0 0.109,0 0.109,-0.109 z m -18.5839,31.265 -0.1093,-0.328 -0.1094,-0.437 0,-0.547 0,-0.656 0,-0.547 0,-0.437 0,-0.546 0,-0.656 0,-0.547 0.1094,-0.656 0.1093,-0.437 0,-0.328 0.2186,-0.109 0.1093,-0.11 0.2187,-0.109 0.3279,-0.219 0.328,-0.218 0.5466,-0.328 0.4372,-0.328 0.5466,-0.328 0.4373,-0.328 0.5466,-0.328 0.5466,-0.219 0.4373,-0.328 0.4372,-0.109 0.4373,-0.219 0.4373,-0.218 0.4373,-0.11 0.1093,-0.218 0.2186,-0.219 0.328,-0.218 0.3279,-0.328 0.5466,-0.328 0.4373,-0.547 0.6559,-0.437 0.6559,-0.438 0.7653,-0.546 0.6559,-0.328 0.7654,-0.328 0.656,-0.328 0.437,-0.328 0.547,-0.328 0.328,-0.109 0.437,0 0.437,-0.547 0.328,-0.328 0.437,-0.328 0.547,-0.437 0.328,-0.219 0.437,-0.218 0.328,-0.11 0.437,-0.218 1.531,0.109 1.312,0.109 1.311,0.219 1.203,0.219 1.202,0.328 0.984,0.437 0.875,0.546 0.765,0.547 0.219,0.547 0.218,0.874 0.328,1.312 0.219,1.531 0.328,1.639 0.547,1.421 0.546,1.312 0.656,1.203 0.328,0.437 0.328,0.437 0.437,0.328 0.656,0.328 0.547,0.328 0.765,0.109 0.656,0.219 0.874,0.109 0.547,-0.109 0.547,-0.219 0.328,0 0.328,0 0.765,-0.109 0.546,-0.218 0.547,-0.11 0.547,-0.218 0.327,-0.11 0.328,0 0.328,-0.109 0.219,-0.109 0.328,-0.219 0.219,-0.219 0.328,-0.218 0.328,-0.219 0.437,-0.328 0.328,-0.109 0.437,-0.219 0.437,-0.218 0.438,-0.11 0.437,-0.328 0.437,-0.109 0.328,-0.109 0.328,-0.11 0.328,0 0.328,-0.109 0.437,0 0,0.656 0,0.656 -0.218,0.765 -0.11,0.547 0,0.765 0,0.765 0,0.656 0,0.656 -0.437,0.547 -0.656,0.546 -0.656,0.437 -0.656,0.438 -0.874,0.437 -0.875,0.437 -0.874,0.437 -1.094,0.328 -0.983,0.438 -1.203,0.328 -1.202,0.328 -1.312,0.328 -1.421,0.328 -1.422,0.218 -1.53,0.328 -1.64,0.219 -0.656,-0.11 -0.656,-0.109 -0.546,-0.109 -0.437,-0.11 -0.438,0 -0.109,0 -0.328,-0.109 -0.109,0 -0.766,-0.109 -0.546,-0.328 -0.765,-0.219 -0.547,-0.218 -0.547,-0.328 -0.546,-0.219 -0.437,-0.328 -0.438,-0.219 -0.437,-0.218 -0.437,-0.328 -0.328,-0.328 -0.328,-0.328 -0.219,-0.328 -0.328,-0.328 -0.109,-0.328 -0.219,-0.219 -0.437,-0.655 -0.219,-0.547 -0.328,-0.437 -0.218,-0.328 -0.219,-0.11 -0.328,-0.218 -0.218,-0.219 -0.219,-0.219 -0.328,-0.328 -0.328,-0.437 -0.328,-0.328 -0.437,-0.546 -0.438,-0.438 -0.437,-0.437 -0.328,-0.219 -0.328,-0.327 -0.437,-0.219 -0.437,-0.219 -0.328,-0.109 -0.3282,0 -0.4372,0 -0.328,0.109 -0.4373,0.11 -0.4372,0.218 -0.5466,0.219 -0.328,0.218 -0.6559,0.219 -0.4373,0.328 -0.5466,0.437 -0.6559,0.438 -0.5466,0.328 -0.5466,0.328 -0.5466,0.327 -0.5465,0.328 -0.4373,0.219 -0.4373,0.328 -0.3279,0 -0.4373,0.109 -0.328,0.219 -0.2186,0 -0.4373,0.219 -0.2186,0.109 -0.328,0.219 -0.2186,0.109 -0.5466,0.437 -0.4373,0.328 -0.1093,0.109 -0.1093,0.11 z"
         id="path1166"
         inkscape:connector-curvature="0" />
      <path
         style="fill:#990000;fill-opacity:1;stroke:#8b0000;stroke-width:0;stroke-miterlimit:4;stroke-opacity:1;stroke-dasharray:none"
         d="m 173.849,742.788 0,-1.83 c 0.323,0 0.646,-0.108 0.862,-0.431 0.215,-0.323 0.323,-0.753 0.323,-1.291 0,-0.646 -0.108,-1.077 -0.323,-1.4 -0.108,-0.215 -0.431,-0.431 -0.862,-0.431 0,0 0,0 0,0.108 l 0,-1.83 c 0,0 0.108,0 0.108,0 1.184,0 2.046,0.215 2.692,0.861 0.646,0.646 0.969,1.4 0.969,2.584 0,1.076 -0.323,2.045 -0.969,2.691 -0.754,0.646 -1.615,0.969 -2.8,0.969 z m 0,-7.105 0,1.83 c -0.43,0 -0.753,0.108 -0.861,0.431 -0.215,0.323 -0.323,0.753 -0.323,1.399 0,0.538 0.108,0.969 0.215,1.184 0.216,0.323 0.539,0.431 0.862,0.431 0.107,0 0.107,0 0.107,0 l 0,1.83 c -0.107,0 -0.107,0 -0.107,0 -1.185,0 -2.153,-0.323 -2.799,-0.861 -0.646,-0.646 -0.969,-1.4 -0.969,-2.584 0,-1.184 0.43,-2.045 1.076,-2.691 0.646,-0.646 1.615,-0.969 2.799,-0.969 z m -27.345,7.105 0,-1.83 c 0.215,0 0.43,0 0.753,0 0.323,0 0.539,0 0.861,0 0.323,0 0.646,-0.108 0.969,-0.215 l -0.323,1.83 c -0.43,0 -0.861,0.108 -1.184,0.215 -0.43,0 -0.753,0 -1.076,0 z m 0,-3.122 0,-1.292 0.861,0 0,-0.107 c 0,-0.323 -0.108,-0.646 -0.215,-0.754 -0.108,-0.215 -0.323,-0.323 -0.539,-0.323 -0.107,0 -0.107,0 -0.107,0 l 0,-1.507 c 0,0 0.107,0 0.215,0 0.969,0 1.722,0.215 2.261,0.646 0.538,0.43 0.753,1.184 0.753,2.045 0,0.216 0,0.323 0,0.539 0,0.323 -0.107,0.538 -0.107,0.753 l -3.122,0 z m 4.091,2.907 c 0.107,-0.969 0.215,-2.046 0.215,-3.23 0.108,-1.076 0.108,-2.261 0.108,-3.553 l 2.476,0 0,0.862 c 0.323,-0.323 0.646,-0.646 0.969,-0.754 0.43,-0.215 0.861,-0.215 1.399,-0.215 0.862,0 1.508,0.107 1.938,0.43 0.323,0.431 0.539,0.969 0.539,1.723 0,0.323 0,0.969 -0.108,2.045 0,1.077 0,1.938 -0.108,2.692 l -2.476,0 c 0,-0.646 0.108,-1.292 0.108,-1.83 0,-0.646 0,-1.077 0,-1.4 0,-0.646 0,-1.076 -0.216,-1.399 -0.107,-0.216 -0.323,-0.323 -0.646,-0.323 -0.646,0 -0.968,0.323 -1.184,0.969 -0.215,0.538 -0.323,1.937 -0.43,3.983 l -2.584,0 z m 11.735,-3.23 c 0,0.108 0,0.108 0,0.216 0,0 0,0.107 0,0.215 0,0.43 0,0.646 0.215,0.861 0.108,0.108 0.323,0.215 0.538,0.215 0.108,0 0.216,0 0.431,0 0.108,0 0.108,-0.107 0.215,-0.107 l -0.215,1.938 c -0.215,0 -0.431,0.107 -0.646,0.107 -0.215,0 -0.431,0 -0.754,0 -0.753,0 -1.399,-0.107 -1.722,-0.538 -0.431,-0.323 -0.646,-0.861 -0.646,-1.615 l 0,-0.215 0.215,-2.799 -1.076,0 0.107,-1.831 1.077,0 0.107,-1.076 2.369,-0.539 -0.108,1.615 1.508,0 -0.108,1.831 -1.4,0 -0.107,1.722 z m 7.105,-1.615 c -0.107,0 -0.107,0 -0.107,0 -0.108,0 -0.216,0 -0.323,0 -0.431,0 -0.754,0.108 -1.077,0.216 -0.215,0.215 -0.431,0.43 -0.538,0.861 -0.108,0.215 -0.108,0.538 -0.216,0.969 0,0.538 0,1.399 -0.107,2.799 l -2.584,0 c 0.108,-0.969 0.215,-1.938 0.215,-3.014 0.108,-0.969 0.108,-2.046 0.108,-3.015 l 0,-0.754 2.261,0 0,0.969 c 0.215,-0.323 0.43,-0.646 0.753,-0.861 0.323,-0.108 0.646,-0.215 1.077,-0.215 0.108,0 0.215,0 0.431,0 0,0 0,0 0,0 l 0.107,2.045 z m -27.346,-1.83 c -0.43,-0.108 -0.753,-0.215 -1.076,-0.215 -0.431,-0.108 -0.754,-0.108 -1.077,-0.108 -0.969,0 -1.615,0.215 -2.153,0.754 -0.538,0.43 -0.754,1.184 -0.754,2.045 0,0.754 0.216,1.4 0.646,1.83 0.431,0.323 1.185,0.539 2.154,0.539 0.323,0 0.646,0 0.969,0 0.43,-0.108 0.753,-0.108 1.076,-0.216 l -0.215,2.046 c -0.431,0.108 -0.861,0.108 -1.292,0.215 -0.323,0 -0.754,0 -1.184,0 -1.615,0 -2.907,-0.323 -3.768,-1.076 -0.862,-0.754 -1.292,-1.831 -1.292,-3.338 0,-1.507 0.43,-2.691 1.399,-3.553 0.969,-0.753 2.261,-1.184 3.876,-1.184 0.431,0 0.861,0 1.292,0 0.431,0.108 0.861,0.108 1.292,0.215 l 0.107,2.046 z m 4.415,-0.215 0,1.507 c -0.216,0 -0.431,0.108 -0.539,0.323 -0.215,0.215 -0.323,0.431 -0.323,0.861 l 0.862,0 0,1.292 -0.969,0 c 0,0 0,0.108 0,0.108 0,0 0,0.107 0,0.107 0,0.431 0.215,0.646 0.43,0.862 0.108,0.107 0.323,0.107 0.539,0.215 l 0,1.83 c 0,0 -0.108,0 -0.108,0 -1.184,0 -2.046,-0.215 -2.584,-0.861 -0.646,-0.538 -0.969,-1.292 -0.969,-2.368 0,-1.292 0.323,-2.154 1.077,-2.907 0.538,-0.646 1.399,-0.969 2.584,-0.969 z"
         id="path1168"
         inkscape:connector-curvature="0" />
      <g
         id="g1170">
        <path
           style="fill:#990000;fill-opacity:1;stroke:#8b0000;stroke-width:0;stroke-miterlimit:4;stroke-opacity:1;stroke-dasharray:none"
           d="m 182.242,760.19 c 0,0.107 0,0.323 0,0.43 0,0.108 0,0.323 0,0.431 l -0.108,1.615 c 0,0 0,0 0,0.108 0,0 0,0 0,0.107 0,0.216 0,0.323 0.108,0.431 0.107,0.108 0.323,0.108 0.538,0.108 0.215,0 0.431,0 0.538,-0.108 0.108,-0.108 0.108,-0.323 0.216,-0.646 l 0,-1.4 c 0,-0.215 0,-0.323 0,-0.43 0,-0.108 0,-0.216 0,-0.323 0,-0.108 0,-0.108 0,-0.216 0,0 0,-0.107 0,-0.107 l 1.399,0 c -0.107,0.107 -0.107,0.323 -0.107,0.43 0,0.108 0,0.323 0,0.431 l -0.108,1.4 c 0,0.107 0,0.215 0,0.323 0,0.43 -0.108,0.646 -0.108,0.861 -0.107,0.215 -0.323,0.43 -0.646,0.538 -0.323,0.215 -0.753,0.215 -1.292,0.215 -0.538,0 -0.969,-0.107 -1.292,-0.323 -0.323,-0.215 -0.538,-0.538 -0.538,-0.861 0,-0.107 0.108,-0.538 0.108,-1.184 0,-0.646 0,-1.292 0,-1.83 l 1.292,0 z m 13.457,4.091 c 0,-0.431 0.108,-1.077 0.108,-1.723 0,-0.753 0.108,-1.507 0.108,-2.368 l 3.014,0 0,0.969 c -0.215,0 -0.323,0 -0.431,0 -0.107,0 -0.215,0 -0.323,0 l -1.076,0 c 0,0.107 0,0.215 0,0.323 0,0.107 0,0.107 0,0.215 l 0,0.108 0.861,0 c 0.215,0 0.323,0 0.431,0 0.107,0 0.107,0 0.215,0 l 0,0.969 c -0.108,-0.108 -0.215,-0.108 -0.215,-0.108 -0.108,0 -0.216,0 -0.431,0 l -0.215,0 -0.646,0 -0.108,0.861 c 0,0.323 0,0.646 0,0.754 l -1.292,0 z m 15.934,-4.091 c 0.323,0 0.431,0 0.646,0 0.108,0.107 0.215,0.107 0.323,0.107 0.108,0.108 0.215,0.216 0.323,0.431 0.108,0.108 0.108,0.323 0.108,0.538 0,0.431 -0.108,0.862 -0.323,1.077 -0.323,0.323 -0.646,0.431 -1.077,0.431 0,0 -0.108,0 -0.108,0 0,0 -0.107,0 -0.107,0 l -0.323,-0.862 c 0.215,0 0.43,0 0.538,-0.107 0.108,0 0.215,-0.216 0.215,-0.323 0,-0.216 -0.107,-0.323 -0.107,-0.323 -0.108,-0.108 -0.216,-0.108 -0.431,-0.108 0,0 -0.108,0 -0.215,0 l -0.108,0 -0.108,1.938 c 0,0.215 0,0.431 0,0.646 0,0.215 0,0.43 0,0.646 l -1.291,0 c 0,-0.431 0.107,-1.077 0.107,-1.83 0.108,-0.646 0.108,-1.4 0.108,-2.261 l 1.83,0 z m 12.166,4.091 c 0,-0.431 0.107,-1.077 0.107,-1.723 0,-0.753 0,-1.507 0.108,-2.368 l 3.23,0 0,0.969 c -0.215,0 -0.323,0 -0.431,0 -0.107,0 -0.215,0 -0.323,0 l -1.292,0 c 0,0.107 0,0.215 0,0.323 0,0.107 0,0.107 0,0.215 l 0,0.108 1.077,0 c 0.108,0 0.215,0 0.323,0 0.108,0 0.215,0 0.323,0 l 0,0.969 c -0.108,-0.108 -0.215,-0.108 -0.215,-0.108 -0.108,0 -0.216,0 -0.431,0 l -0.215,0 -0.969,0 c 0,0.108 0,0.215 0,0.323 0,0 0,0.108 0,0.215 0,0 0,0.108 0,0.108 0,0 0,0 0,0.108 0.107,0 0.323,0 0.43,0 0.108,0 0.323,0 0.539,0 0.107,0 0.323,0 0.538,0 0.215,0 0.431,0 0.538,0 l 0,0.861 -3.337,0 z"
           id="path1172"
           inkscape:connector-curvature="0" />
        <path
           style="fill:#990000;fill-opacity:1;stroke:#8b0000;stroke-width:0;stroke-miterlimit:4;stroke-opacity:1;stroke-dasharray:none"
           d="m 190.316,761.589 c 0.323,0 0.539,0.323 0.539,0.646 0,0.323 -0.216,0.646 -0.539,0.646 -0.43,0 -0.646,-0.323 -0.646,-0.646 0,-0.323 0.216,-0.646 0.646,-0.646 z"
           id="path1174"
           inkscape:connector-curvature="0" />
        <path
           style="fill:#990000;fill-opacity:1;stroke:#8b0000;stroke-width:0;stroke-miterlimit:4;stroke-opacity:1;stroke-dasharray:none"
           d="m 203.559,761.589 c 0.322,0 0.538,0.323 0.538,0.646 0,0.323 -0.216,0.646 -0.538,0.646 -0.323,0 -0.646,-0.323 -0.646,-0.646 0,-0.323 0.323,-0.646 0.646,-0.646 z"
           id="path1176"
           inkscape:connector-curvature="0" />
        <path
           style="fill:#990000;fill-opacity:1;stroke:#8b0000;stroke-width:0;stroke-miterlimit:4;stroke-opacity:1;stroke-dasharray:none"
           d="m 218.523,761.589 c 0.323,0 0.646,0.323 0.646,0.646 0,0.323 -0.323,0.646 -0.646,0.646 -0.323,0 -0.646,-0.323 -0.646,-0.646 0,-0.323 0.323,-0.646 0.646,-0.646 z"
           id="path1178"
           inkscape:connector-curvature="0" />
      </g>
      <path
         style="fill:#990000;fill-opacity:1;stroke:#8b0000;stroke-width:0;stroke-miterlimit:4;stroke-opacity:1;stroke-dasharray:none"
         d="m 167.861,756.766 0,-2.153 c 0.431,0 0.754,-0.215 0.969,-0.538 0.323,-0.431 0.43,-0.969 0.43,-1.615 0,-0.754 -0.107,-1.292 -0.322,-1.615 -0.216,-0.323 -0.539,-0.538 -1.077,-0.538 0,0 0,0 0,0 l 0,-2.154 c 0,0 0.108,0 0.108,0 1.399,0 2.476,0.431 3.337,1.077 0.754,0.754 1.077,1.723 1.077,3.014 0,1.4 -0.431,2.584 -1.185,3.338 -0.861,0.754 -1.938,1.184 -3.337,1.184 z m 11.52,-6.029 c 0,0 -0.108,0 -0.216,0 0,0 -0.107,0 -0.215,0 -0.538,0 -0.969,0.108 -1.292,0.216 -0.323,0.215 -0.538,0.538 -0.754,0.968 -0.107,0.323 -0.107,0.754 -0.215,1.292 0,0.539 -0.108,1.615 -0.108,3.338 l -3.122,0 c 0.108,-1.184 0.216,-2.476 0.216,-3.661 0.107,-1.184 0.107,-2.476 0.107,-3.66 l 0,-0.861 2.799,0 -0.107,1.184 c 0.323,-0.431 0.646,-0.861 0.969,-1.077 0.43,-0.215 0.861,-0.323 1.399,-0.323 0,0 0.216,0 0.431,0.108 0,0 0,0 0,0 l 0.108,2.476 z m 0.753,5.814 c 0.108,-1.292 0.216,-2.584 0.323,-3.876 0.108,-1.4 0.108,-2.799 0.108,-4.306 l 3.014,0 0,1.076 c 0.323,-0.43 0.646,-0.753 0.969,-0.969 0.431,-0.215 0.862,-0.323 1.4,-0.323 0.646,0 1.184,0.108 1.615,0.323 0.43,0.323 0.646,0.646 0.861,1.077 0.323,-0.538 0.646,-0.861 0.969,-1.077 0.431,-0.215 0.861,-0.323 1.4,-0.323 0.969,0 1.615,0.216 2.045,0.646 0.431,0.431 0.646,1.077 0.646,2.046 0,0.323 0,1.076 -0.107,2.368 -0.108,1.292 -0.108,2.369 -0.108,3.338 l -3.122,0 c 0.107,-0.646 0.107,-1.292 0.215,-1.938 0,-0.646 0,-1.292 0,-2.046 0,-0.753 0,-1.292 -0.108,-1.614 -0.215,-0.216 -0.43,-0.431 -0.646,-0.431 -0.538,0 -0.969,0.431 -1.076,1.184 -0.216,0.861 -0.323,2.261 -0.323,4.414 l 0,0.431 -3.015,0 c 0.108,-0.646 0.108,-1.4 0.216,-2.046 0,-0.646 0,-1.292 0,-1.938 0,-0.753 0,-1.292 -0.216,-1.614 -0.107,-0.216 -0.323,-0.431 -0.646,-0.431 -0.43,0 -0.861,0.431 -1.076,1.184 -0.108,0.861 -0.216,2.261 -0.216,4.414 l 0,0.431 -3.122,0 z m 18.303,0.108 c -0.216,0 -0.539,0 -0.646,0.107 -0.216,0 -0.431,0 -0.646,0 -0.862,0 -1.508,-0.215 -1.938,-0.646 -0.431,-0.43 -0.754,-0.969 -0.754,-1.615 0,-0.753 0.323,-1.292 0.754,-1.722 0.43,-0.431 1.184,-0.754 2.153,-1.077 0.108,0 0.323,0 0.431,0 1.184,-0.323 1.83,-0.646 1.83,-0.969 0,-0.107 -0.108,-0.323 -0.215,-0.323 -0.108,-0.107 -0.431,-0.215 -0.754,-0.215 -0.431,0 -0.969,0.108 -1.4,0.215 -0.538,0.108 -1.076,0.323 -1.615,0.539 l 0.431,-2.369 c 0.431,-0.108 0.969,-0.215 1.507,-0.323 0.431,-0.108 1.077,-0.108 1.615,-0.108 1.184,0 2.046,0.216 2.584,0.539 0.538,0.323 0.861,0.861 0.861,1.615 0,0.107 0,0.215 0,0.323 0,0.215 0,0.323 0,0.538 l -0.215,3.983 c 0,0.108 0,0.216 0,0.431 0,0.108 0,0.431 0,0.969 l -3.122,0 c 0,-0.538 0.108,-0.969 0.108,-1.292 0,-0.323 0,-0.538 0,-0.646 l 0.107,-1.507 c -0.107,0.107 -0.215,0.107 -0.323,0.107 -0.215,0.108 -0.323,0.108 -0.538,0.216 l -0.646,0.107 c -0.323,0.108 -0.538,0.216 -0.646,0.323 -0.108,0.108 -0.215,0.323 -0.215,0.539 0,0.215 0,0.323 0.215,0.43 0.108,0.108 0.323,0.216 0.538,0.216 0.108,0 0.216,0 0.431,-0.108 0.108,0 0.323,0 0.538,-0.108 l -0.43,1.831 z m 3.337,-12.274 -2.476,2.907 -1.077,0 1.508,-2.907 2.045,0 z m 5.706,8.29 c 0,0 0,0.108 0,0.108 0,0.107 0,0.215 0,0.323 0,0.538 0,0.861 0.215,1.076 0.108,0.216 0.323,0.216 0.754,0.216 0,0 0.215,0 0.431,0 0.107,0 0.215,0 0.215,0 l -0.108,2.261 c -0.323,0 -0.538,0.107 -0.861,0.107 -0.323,0 -0.538,0 -0.861,0 -0.969,0 -1.723,-0.215 -2.153,-0.646 -0.431,-0.43 -0.754,-1.076 -0.754,-1.938 l 0,-0.215 0.215,-3.445 -1.184,0 0.108,-2.153 1.292,0 0.107,-1.292 2.799,-0.646 -0.107,1.938 1.83,0 -0.108,2.153 -1.722,0 -0.108,2.153 z m 3.015,-4.845 0.107,-1.83 3.122,0 0,1.83 -3.229,0 z m 3.229,0.754 c -0.215,1.077 -0.323,2.369 -0.323,3.66 -0.107,1.292 -0.107,2.692 -0.107,4.307 l -3.23,0 c 0.108,-1.184 0.215,-2.476 0.215,-3.876 0.108,-1.292 0.108,-2.691 0.108,-4.091 l 3.337,0 z m 7.321,7.967 c -0.43,0.108 -0.861,0.108 -1.184,0.215 -0.431,0 -0.754,0 -1.184,0 -1.292,0 -2.261,-0.323 -2.907,-1.076 -0.754,-0.646 -1.077,-1.615 -1.077,-2.907 0,-1.508 0.431,-2.584 1.185,-3.338 0.861,-0.861 1.938,-1.292 3.337,-1.292 0.431,0 0.754,0.108 1.077,0.108 0.43,0.108 0.753,0.108 1.184,0.215 l 0.108,2.477 c -0.539,-0.216 -0.862,-0.216 -1.077,-0.323 -0.215,0 -0.431,0 -0.646,0 -0.646,0 -1.077,0.107 -1.4,0.538 -0.43,0.323 -0.538,0.861 -0.538,1.507 0,0.538 0.108,0.969 0.431,1.184 0.323,0.323 0.753,0.431 1.292,0.431 0.323,0 0.538,0 0.861,0 0.323,-0.108 0.646,-0.108 0.969,-0.215 l -0.431,2.476 z m 5.168,0.108 c -0.215,0 -0.431,0 -0.646,0.107 -0.215,0 -0.431,0 -0.646,0 -0.753,0 -1.399,-0.215 -1.938,-0.646 -0.43,-0.43 -0.646,-0.969 -0.646,-1.615 0,-0.753 0.216,-1.292 0.646,-1.722 0.431,-0.431 1.185,-0.754 2.261,-1.077 0.108,0 0.215,0 0.431,0 1.184,-0.323 1.722,-0.646 1.722,-0.969 0,-0.107 0,-0.323 -0.215,-0.323 -0.108,-0.107 -0.323,-0.215 -0.646,-0.215 -0.538,0 -0.969,0.108 -1.507,0.215 -0.539,0.108 -1.077,0.323 -1.507,0.539 l 0.323,-2.369 c 0.43,-0.108 0.968,-0.215 1.507,-0.323 0.538,-0.108 1.076,-0.108 1.615,-0.108 1.184,0 2.045,0.216 2.584,0.539 0.646,0.323 0.861,0.861 0.861,1.615 0,0.107 0,0.215 0,0.323 0,0.215 0,0.323 0,0.538 l -0.215,3.983 c 0,0.108 0,0.216 0,0.431 0,0.108 0,0.431 0,0.969 l -3.123,0 c 0.108,-0.538 0.108,-0.969 0.108,-1.292 0,-0.323 0,-0.538 0.108,-0.646 l 0,-1.507 c -0.108,0.107 -0.216,0.107 -0.323,0.107 -0.108,0.108 -0.323,0.108 -0.539,0.216 l -0.646,0.107 c -0.215,0.108 -0.43,0.216 -0.646,0.323 -0.107,0.108 -0.215,0.323 -0.215,0.539 0,0.215 0.108,0.323 0.215,0.43 0.108,0.108 0.323,0.216 0.539,0.216 0.107,0 0.215,0 0.43,-0.108 0.108,0 0.323,0 0.539,-0.108 l -0.431,1.831 z m -58.352,-8.506 0,2.154 c -0.538,0.107 -0.861,0.215 -1.077,0.646 -0.215,0.322 -0.43,0.861 -0.43,1.614 0,0.754 0.215,1.185 0.43,1.508 0.216,0.323 0.539,0.538 0.969,0.538 0,0 0.108,0 0.108,0 l 0,2.153 c -0.108,0 -0.108,0 -0.108,0 -1.507,0 -2.584,-0.323 -3.337,-1.076 -0.646,-0.539 -0.969,-1.292 -1.077,-2.154 l 0,-1.722 c 0.108,-1.077 0.538,-1.83 1.184,-2.476 0.862,-0.754 1.938,-1.077 3.338,-1.185 z m -4.522,-0.538 0,-1.184 0,1.184 c 0,0 0,0 0,0 z m -18.195,8.936 -3.445,0 c 0.108,-1.292 0.216,-2.907 0.323,-4.737 0.108,-1.723 0.216,-3.768 0.216,-5.814 l 3.445,0 c -0.108,0.215 -0.108,0.538 -0.108,0.861 0,0.216 -0.108,0.754 -0.108,1.292 l -0.215,4.953 c -0.108,0.43 -0.108,0.969 -0.108,1.507 0,0.646 0,1.292 0,1.938 z m 18.195,-10.12 0,1.184 c -0.215,-0.108 -0.43,-0.108 -0.646,-0.108 -0.107,0 -0.323,-0.107 -0.43,-0.107 -0.431,0 -0.646,0.107 -0.862,0.323 -0.215,0.107 -0.323,0.43 -0.323,0.646 l 1.938,0 -0.107,2.261 -1.723,0 c -0.108,0.861 -0.108,1.722 -0.108,2.583 0,0.969 -0.107,2.046 -0.107,3.338 l -3.23,0 c 0.107,-1.292 0.215,-2.476 0.215,-3.338 0.108,-0.969 0.108,-1.722 0.108,-2.368 l 0,-0.215 -1.184,0 0.215,-2.261 1.076,0 c 0,-0.969 0.216,-1.615 0.754,-2.046 0.431,-0.431 1.292,-0.538 2.369,-0.538 0.323,0 0.646,0 0.969,0 0.323,0 0.646,0.107 0.969,0.107 l 0.107,0.539 z m 0,5.383 c -0.107,0.215 -0.107,0.538 -0.107,0.861 0,0.323 0,0.538 0.107,0.861 l 0,-1.722 z m -16.472,4.737 c 0.108,-1.292 0.215,-2.584 0.215,-3.876 0.108,-1.4 0.108,-2.799 0.108,-4.306 l 3.015,0 0,1.076 c 0.323,-0.43 0.753,-0.753 1.184,-0.969 0.43,-0.215 0.969,-0.323 1.615,-0.323 1.076,0 1.83,0.216 2.261,0.646 0.538,0.431 0.753,1.077 0.753,2.046 0,0.323 0,1.076 -0.107,2.368 -0.108,1.292 -0.108,2.369 -0.108,3.338 l -3.122,0 c 0.107,-0.861 0.107,-1.615 0.215,-2.261 0,-0.754 0,-1.292 0,-1.723 0,-0.753 -0.108,-1.292 -0.215,-1.614 -0.216,-0.216 -0.431,-0.431 -0.862,-0.431 -0.646,0 -1.184,0.431 -1.399,1.184 -0.323,0.754 -0.431,2.369 -0.431,4.845 l -3.122,0 z"
         id="path1180"
         inkscape:connector-curvature="0" />
      <path
         style="fill:#990000;fill-opacity:1;stroke:#8b0000;stroke-width:0;stroke-miterlimit:4;stroke-opacity:1;stroke-dasharray:none"
         d="m 137.048,753.255 0,-1.615 c 0.215,0.108 0.431,0.108 0.646,0.108 0.215,0 0.431,0 0.753,0 0.216,-0.108 0.431,-0.108 0.646,-0.215 l -0.215,1.399 c -0.323,0.108 -0.646,0.215 -0.969,0.215 -0.323,0 -0.538,0.108 -0.861,0.108 z m 0,-2.584 0,-1.076 0.754,0 c 0,-0.323 -0.108,-0.539 -0.216,-0.646 -0.107,-0.216 -0.215,-0.216 -0.43,-0.216 0,0 -0.108,0 -0.108,0 l 0,-1.292 c 0.108,0 0.108,0 0.215,0 0.754,0 1.4,0.216 1.83,0.539 0.431,0.43 0.646,0.969 0.646,1.722 0,0.108 0,0.216 -0.107,0.431 0,0.215 0,0.323 0,0.538 l -2.584,0 z m -5.706,-1.722 c -0.108,0 -0.215,-0.108 -0.323,-0.108 -0.108,0 -0.108,0 -0.215,0 -0.216,0 -0.323,0 -0.431,0.108 l 0,-1.4 c 0,0 0.108,-0.108 0.215,-0.108 0.108,0 0.216,0.108 0.323,0.108 0.108,0 0.323,0 0.431,0 0,-0.215 0,-0.431 0,-0.754 0,-0.215 0.108,-0.538 0.108,-0.861 l 2.045,0 c -0.108,1.4 -0.215,2.692 -0.323,3.876 0,1.184 -0.108,2.261 -0.108,3.23 l -1.937,0 0,-0.323 c -0.216,0.215 -0.431,0.323 -0.646,0.323 -0.108,0.107 -0.108,0.107 -0.108,0.107 l 0,-1.399 c 0.215,-0.108 0.431,-0.215 0.538,-0.323 0.216,-0.323 0.323,-0.646 0.323,-1.077 l 0.108,-1.399 z m 5.706,-1.508 0,1.292 c -0.108,0 -0.323,0.108 -0.431,0.216 -0.107,0.215 -0.215,0.43 -0.215,0.646 l 0.646,0 0,1.076 -0.646,0 c 0,0 0,0.108 0,0.108 0,0 0,0 0,0.108 0,0.323 0.108,0.538 0.323,0.646 0,0.107 0.215,0.107 0.323,0.107 l 0,1.615 c 0,0 0,0 0,0 -0.969,0 -1.615,-0.323 -2.153,-0.754 -0.431,-0.43 -0.754,-1.076 -0.754,-1.937 0,-0.969 0.323,-1.723 0.861,-2.261 0.539,-0.539 1.185,-0.754 2.046,-0.862 z m -6.675,1.508 c -0.323,0 -0.431,0.215 -0.646,0.323 -0.215,0.323 -0.323,0.753 -0.323,1.292 0,0.323 0,0.646 0.215,0.861 0.108,0.215 0.323,0.323 0.646,0.323 0,0 0,0 0.108,0 l 0,1.399 c -0.215,0 -0.538,0.108 -0.754,0.108 -0.753,0 -1.292,-0.323 -1.722,-0.754 -0.431,-0.43 -0.646,-0.968 -0.646,-1.722 0,-0.969 0.323,-1.83 0.969,-2.369 0.538,-0.538 1.292,-0.861 2.153,-0.861 l 0,1.4 z"
         id="path1182"
         inkscape:connector-curvature="0" />
    </g>
  </g>
  <g
     id="g4598"
     transform="translate(-104.46933,-608.3965)" />
  <g
     id="g4718"
     transform="translate(-99.10905,-616.90989)" />
</svg>
