<?xml version="1.0" encoding="UTF-8" standalone="no"?>
<!-- Created with sK1/UniConvertor (http://sk1project.org/) -->

<svg
   xmlns:dc="http://purl.org/dc/elements/1.1/"
   xmlns:cc="http://creativecommons.org/ns#"
   xmlns:rdf="http://www.w3.org/1999/02/22-rdf-syntax-ns#"
   xmlns:svg="http://www.w3.org/2000/svg"
   xmlns="http://www.w3.org/2000/svg"
   xmlns:sodipodi="http://sodipodi.sourceforge.net/DTD/sodipodi-0.dtd"
   xmlns:inkscape="http://www.inkscape.org/namespaces/inkscape"
   width="128"
   height="128"
   viewBox="0 0 102.4 102.4"
   id="svg2"
   version="1.1"
   inkscape:version="0.48.4 r9939"
   sodipodi:docname="ufpelogo.svg"
   style="fill-rule:evenodd">
  <metadata
     id="metadata74">
    <rdf:RDF>
      <cc:Work
         rdf:about="">
        <dc:format>image/svg+xml</dc:format>
        <dc:type
           rdf:resource="http://purl.org/dc/dcmitype/StillImage" />
        <dc:title />
      </cc:Work>
    </rdf:RDF>
  </metadata>
  <sodipodi:namedview
     pagecolor="#ffffff"
     bordercolor="#666666"
     borderopacity="1"
     objecttolerance="10"
     gridtolerance="10"
     guidetolerance="10"
     inkscape:pageopacity="0"
     inkscape:pageshadow="2"
     inkscape:window-width="1366"
     inkscape:window-height="744"
     id="namedview72"
     showgrid="false"
     fit-margin-top="0"
     fit-margin-left="0"
     fit-margin-right="0"
     fit-margin-bottom="0"
     inkscape:zoom="3.588117"
     inkscape:cx="45.747926"
     inkscape:cy="77.690378"
     inkscape:window-x="0"
     inkscape:window-y="24"
     inkscape:window-maximized="1"
     inkscape:current-layer="svg2"
     showguides="true"
     inkscape:guide-bbox="true">
    <sodipodi:guide
       orientation="1,0"
       position="115.65955,112.03648"
       id="guide3024" />
    <sodipodi:guide
       orientation="1,0"
       position="15.049676,73.854893"
       id="guide3026" />
  </sodipodi:namedview>
  <defs
     id="defs4">
    <marker
       id="ArrowEnd"
       viewBox="0 0 10 10"
       refX="0"
       refY="5"
       markerUnits="strokeWidth"
       markerWidth="4"
       markerHeight="3"
       orient="auto">
      <path
         d="M 0,0 10,5 0,10 z"
         id="path7"
         inkscape:connector-curvature="0" />
    </marker>
    <marker
       id="ArrowStart"
       viewBox="0 0 10 10"
       refX="10"
       refY="5"
       markerUnits="strokeWidth"
       markerWidth="4"
       markerHeight="3"
       orient="auto">
      <path
         d="M 10,0 0,5 10,10 z"
         id="path10"
         inkscape:connector-curvature="0" />
    </marker>
  </defs>
  <g
     id="g12"
     transform="matrix(0.30360719,0,0,0.2789114,-34.793032,-71.69707)">
    <g
       id="g14">
      <g
         id="g16">
        <path
           style="fill:#000000;stroke:none"
           d="m 286.613,370.714 c -31.068,0 -64.551,2.48 -94.76,9.488 2.644,47.659 0.061,143.49 22.033,169.189 -2.735,0.442 -5.47,0.912 -8.205,1.411 -15.864,-25.974 -17.658,-90.777 -19.055,-140.683 -0.366,-13.179 -0.7,-25.319 -1.216,-35.431 l -0.061,-0.079 0.061,-0.018 c 33.008,-7.646 67.38,-10.513 101.203,-10.512 33.823,10e-4 68.187,2.859 101.186,10.512 l 0.077,0.018 -0.004,0.079 c -0.56,10.112 -0.899,22.252 -1.267,35.431 -1.393,49.906 -3.206,114.709 -19.012,140.683 -2.765,-0.499 -5.522,-0.969 -8.269,-1.411 22.005,-25.699 19.406,-121.53 22.045,-169.189 -30.215,-7.008 -63.689,-9.488 -94.756,-9.488 z"
           id="path18"
           inkscape:connector-curvature="0" />
        <path
           style="fill:#000000;stroke:none"
           d="m 302.82,347.687 c -4.728,-1.181 -10.557,-1.691 -16.207,-1.691 -5.65,0 -11.48,0.51 -16.208,1.691 -6.799,-4.354 -7.408,-12.308 -0.142,-15.462 5.34,-0.891 11.006,-1.52 16.35,-1.52 5.343,0 11.009,0.629 16.349,1.52 7.266,3.154 6.656,11.108 -0.142,15.462 z"
           id="path20"
           inkscape:connector-curvature="0" />
        <path
           style="fill:#000000;stroke:none"
           d="m 216.93,406.835 c -4.892,-16.549 9.998,-26.384 19.891,-27.102 27.113,-1.966 42.89,4.663 73.009,6.471 11.197,0.102 22.136,-0.372 33.413,-4.996 -2.578,7.893 -37.197,14.043 -51.366,14.118 -4.997,0.027 -10.319,-0.307 -15.222,-1.058 -3.047,-0.467 -48.733,-7.462 -47.349,7.323 0.127,1.353 1.905,1.344 2.455,1.121 8.391,-3.403 14.337,-6.077 23.106,-6.391 17.499,-0.628 29.538,4.638 48.779,0.735 -13.436,8.72 -47.637,5.676 -54.562,7.742 -7.036,2.1 -12.697,5.918 -19.023,7.692 -10.226,2.866 -12.792,-4.505 -13.131,-5.655 z"
           id="path22"
           inkscape:connector-curvature="0" />
        <path
           style="fill:#000000;stroke:none"
           d="m 232.039,447.074 c 1.378,-2.786 3.129,-5.721 5.573,-7.659 4.084,-3.238 9.137,5.017 4.03,6.878 -2.952,1.075 -6.403,0.922 -9.603,0.781 z"
           id="path24"
           inkscape:connector-curvature="0" />
        <path
           style="fill:#000000;stroke:none"
           d="m 217.494,453.328 c -2.408,-1.179 -5.29,-2.442 -7.901,-3.231 2.426,-0.655 4.857,-1.819 7.144,-2.885 -2.611,-2.128 -5.423,-4.464 -8.549,-5.382 -4.634,-1.36 -5.783,6.137 -2.643,8.141 -3.584,1.547 -2.984,8.782 1.222,8.925 -1.393,2.22 0.955,6.835 3.924,5.285 2.221,-1.157 4.629,-4.071 5.553,-5.299 -1.848,-0.451 -3.851,-0.923 -5.747,-1.097 2.413,-1.226 4.827,-2.903 6.997,-4.457 z"
           id="path26"
           inkscape:connector-curvature="0" />
        <path
           style="fill:#000000;stroke:none"
           d="m 230.437,546.277 c 12.484,-2.169 17.869,-4.307 25.542,-7.66 8.201,-3.051 15.023,-6.749 23.187,-11.769 -7.527,-0.483 -13.796,-3.352 -18.644,-6.97 -6.36,-4.753 -10.224,-10.774 -11.063,-14.459 -0.732,4.145 -2.14,7.676 -4.635,11.168 -2.722,3.813 -7.715,11.652 -12.599,6.649 -2.308,-1.548 -9.106,1.891 -12.997,1.007 -7.703,-1.751 -7.569,6.279 -3.227,8.437 -3.62,2.47 -2.087,8.872 2.899,9.427 -1.589,2.494 2.028,6.658 6.076,5.199 1.87,-0.674 3.353,-0.622 5.461,-1.029 z"
           id="path28"
           inkscape:connector-curvature="0" />
        <path
           style="fill:#000000;stroke:none"
           d="m 236.478,483.849 c 1.544,0.889 3.763,2.144 5.053,3.119 l 0,0 c 0.135,0.102 0.253,0.191 0.354,0.267 0.734,-2.245 1.637,-4.067 2.672,-5.553 1.056,-1.518 2.25,-2.688 3.544,-3.608 0.387,-2.223 0.943,-3.832 1.332,-5.41 0.361,-1.465 2.392,-4.709 3.938,-6.332 -0.678,-0.322 -2.056,-0.398 -3.076,-0.546 -3.79,-0.55 -9.342,-2.055 -11.63,-3.523 -0.319,3.635 -0.704,7.192 -1.089,10.748 -0.388,3.576 -0.776,7.153 -1.098,10.838 z"
           id="path30"
           inkscape:connector-curvature="0" />
        <path
           style="fill:#000000;stroke:none"
           d="m 238.883,415.396 c 3.143,1.676 5.783,3.268 5.66,8.248 -0.08,3.2 -3.096,7.94 -5.66,8.99 l -30.13,0 c -2.563,-1.05 -5.58,-5.79 -5.659,-8.99 -0.124,-4.98 2.516,-6.572 5.659,-8.248 l 30.13,0 z"
           id="path32"
           inkscape:connector-curvature="0" />
        <path
           style="fill:#000000;stroke:none"
           d="m 348.974,547.436 c 3.53,-2.178 6.557,-5.199 9.015,-9.092 l 0.001,0 c 3.312,-5.179 5.196,-11.177 5.246,-17.756 0.038,-5.117 -0.707,-10.588 -1.409,-16.299 -0.886,-7.211 -15.536,-42.033 -18.842,-48.686 -2.607,-5.249 -7.253,-14.279 -6.903,-18.208 0.224,-8.506 7.213,-13.604 15.775,-13.535 4.817,0.039 10.157,3.463 12.854,7.802 l 0,0.001 c 2.005,3.557 2.289,8.129 1.292,13.747 -0.002,0.015 -0.034,0.073 -0.045,0.083 -8.814,8.285 -7.062,14.191 -3.997,24.517 1.858,6.259 4.195,14.133 4.972,25.121 0.928,-9.051 1.761,-17.851 2.521,-26.616 0.815,-9.4 1.898,-14.011 2.576,-23.605 0,-0.001 0,-0.002 0,-0.004 l 0,0.004 c 0,-0.001 0,-0.002 0,-0.004 0.284,-6.658 -0.813,-13.367 -4.263,-18.021 -3.758,-5.069 -9.486,-8.473 -16.826,-8.105 -17.055,0.855 -25.362,15.417 -17.969,29.613 5.596,10.745 12.791,28.545 17.256,39.883 4.48,11.377 6.555,21.04 2.557,24.962 -0.065,0.064 -0.192,0.054 -0.246,-0.02 -4.204,-5.811 -10.295,-7.898 -16.598,-10.057 -7.426,-2.545 -15.569,-6.014 -20.915,-14.924 -1.131,2.302 -3.122,4.345 -5.329,5.998 -3.013,2.258 -8.705,5.22 -10.878,5.699 -0.125,0.028 -0.234,-0.1 -0.181,-0.211 0.243,-0.513 0.487,-1.046 0.66,-1.738 0.156,-0.624 0.256,-1.384 0.25,-2.386 -2.015,1.73 -2.84,1.929 -6.174,3.677 -7.848,4.117 -16.181,7.903 -15.389,16.295 0.899,9.531 11.848,12.075 23.905,12.81 6.998,0.426 13.985,0.867 19.575,3.051 0.042,-0.993 0.727,-2.862 1.7,-4.531 0.714,-1.223 1.713,-2.343 3.048,-2.947 0.129,-0.059 0.275,0.085 0.211,0.207 -1.324,2.494 -1.92,6.995 -1.867,9.244 0.279,11.908 15.617,13.043 24.417,14.031 z"
           id="path34"
           inkscape:connector-curvature="0" />
        <path
           style="fill:#000000;stroke:none"
           d="m 248.823,497.697 c 0.141,-0.362 0.731,-0.338 0.843,0.032 2.333,7.71 6.851,14.823 13.096,19.927 5.12,4.183 11.403,7.016 18.598,7.721 -1.464,-0.851 -2.908,-2.08 -4.091,-3.591 -1.528,-1.952 -2.625,-4.378 -2.769,-7.069 -0.143,-2.689 0.664,-5.639 2.942,-8.642 2.778,-3.66 7.752,-7.399 15.879,-10.827 1.145,-0.592 3.684,-1.871 5.99,-3.911 2.298,-2.033 4.394,-4.838 4.703,-8.505 0.035,-0.411 0.732,-0.486 0.866,-0.092 0.585,1.721 0.73,3.544 0.558,5.421 -0.141,1.546 -0.496,3.129 -0.994,4.724 4.235,-2.297 7.317,-6.288 9.53,-10.672 4.017,-7.954 5.175,-17.169 5.204,-20.014 0.004,-0.35 0.464,-0.539 0.739,-0.304 0.575,0.49 1.17,1.132 1.679,1.935 0.096,0.152 0.189,0.31 0.279,0.474 0.237,-5.296 -0.306,-9.857 -1.601,-14.128 -1.452,-4.788 -3.848,-9.221 -7.148,-13.922 -0.184,-0.263 0.012,-0.632 0.345,-0.648 0.473,-0.024 0.996,0.069 1.576,0.3 0.217,0.086 0.442,0.193 0.678,0.32 -2.446,-6.004 -5.686,-9.694 -9.648,-14.205 -0.419,-0.477 -0.843,-0.96 -1.195,-1.363 -0.057,-0.066 -0.111,-0.271 -0.091,-0.354 0.305,-1.314 0.507,-1.995 0.963,-2.584 0.4,-0.516 0.956,-0.907 1.923,-1.555 -1.311,-1.348 -4.355,-2.404 -7.748,-3.124 -4.463,-0.946 -9.481,-1.291 -12.016,-0.963 1.245,2.075 1.767,4.21 1.828,6.208 0.086,2.798 -0.738,5.333 -1.74,7.054 -0.213,0.365 -0.896,0.143 -0.828,-0.267 0.196,-1.182 0.618,-3.484 0.495,-5.974 -0.119,-2.405 -0.747,-5 -2.586,-6.934 -7.597,-0.817 -18.455,3.333 -25.3,5.949 -0.509,0.195 -0.741,0.284 -0.937,0.359 0.251,1.358 0.104,2.608 -0.039,3.819 -0.276,2.335 -0.534,4.515 2.489,6.85 1.613,-3.116 4.042,-3.432 6.414,-2.421 1.597,0.681 3.158,1.995 4.39,3.441 1.234,1.447 2.147,3.04 2.445,4.269 0.291,1.198 0.038,2.106 -0.965,2.391 -0.088,0.059 -0.195,0.106 -0.32,0.142 -0.579,0.17 -1.845,0.187 -3.124,0 -1.291,-0.19 -2.63,-0.592 -3.36,-1.262 -0.251,-0.23 -0.436,-0.492 -0.532,-0.788 -0.086,-0.183 -0.162,-0.325 -0.228,-0.434 -0.056,0.238 -0.088,0.541 -0.106,0.803 0.075,1.248 0.337,2.502 0.794,3.596 0.373,0.894 0.876,1.678 1.512,2.254 0.249,-0.08 0.541,-0.184 0.863,-0.298 1.154,-0.408 2.683,-0.95 4.321,-1.174 0.002,0 0.063,-0.004 0.065,-0.004 1.083,0.001 2.241,0.037 3.414,0.074 3.818,0.121 7.817,0.247 10.186,-0.853 2.204,-1.023 2.979,-3.228 0.749,-7.787 -0.185,-0.381 0.491,-0.761 0.756,-0.426 4.186,5.292 2.423,8.494 -0.031,10.337 -1.167,0.877 -2.485,1.429 -3.369,1.75 0.953,0.572 1.488,1.384 1.694,2.321 0.207,0.942 0.071,2.005 -0.311,3.068 -0.192,0.533 -0.446,1.069 -0.75,1.589 -0.025,0.044 -0.184,0.175 -0.234,0.192 -5.485,1.915 -15.842,6.356 -23.592,12.028 -4.647,3.401 -8.348,7.236 -9.456,11.208 1.1,-0.652 2.222,-1.136 3.441,-1.458 1.554,-0.411 3.26,-0.557 5.279,-0.456 0.417,0.021 0.514,0.693 0.118,0.817 -1.129,0.354 -2.273,0.8 -3.406,1.333 -4.651,2.188 -9.138,5.85 -11.865,10.761 -2.724,4.906 -3.693,11.068 -1.315,18.264 0.38,1.148 0.844,2.322 1.399,3.52 0.558,-1.373 0.977,-2.839 1.392,-4.292 0.382,-1.342 0.762,-2.674 1.26,-3.95 z m 25.527,-79.458 0.123,-0.139 10e-4,0 c 0.009,-0.011 0.018,-0.021 0.028,-0.032 0,0 0,0 0,0 0.01,-0.011 0.019,-0.022 0.029,-0.033 0,0 0,0 0,0 0.01,-0.01 0.02,-0.021 0.031,-0.032 0,0 0,0 0,0 0.01,-0.011 0.02,-0.022 0.031,-0.032 0,0 0,0 0,0 0.011,-0.011 0.021,-0.022 0.031,-0.033 0,0 10e-4,0 10e-4,0 0.01,-0.011 0.021,-0.021 0.032,-0.032 0,0 0,0 0,0 0.011,-0.011 0.022,-0.021 0.033,-0.032 0,0 10e-4,0 10e-4,0 0.011,-0.011 0.022,-0.022 0.034,-0.034 0,0 0,0 0,0 0.011,-0.01 0.022,-0.021 0.034,-0.032 0,0 0,0 0,0 0.012,-0.011 0.024,-0.021 0.035,-0.032 0,0 0,0 0.001,0 0.012,-0.011 0.023,-0.022 0.035,-0.033 0,0 0,0.001 0.001,0 0.012,-0.01 0.024,-0.022 0.037,-0.032 0,0 0,0 0,0 0.012,-0.011 0.024,-0.022 0.037,-0.033 0,0 0,10e-4 0,0 0.013,-0.01 0.025,-0.022 0.038,-0.032 0,0 0,0 0,0 0.013,-0.011 0.026,-0.022 0.039,-0.032 0,0 0,0 0,0 0.013,-0.011 0.027,-0.023 0.04,-0.033 0,0 0,0 0,0 0.013,-0.011 0.026,-0.022 0.04,-0.032 0,0 0,0 0,0 0.013,-0.011 0.027,-0.022 0.04,-0.033 0,0 0,0 0.001,10e-4 0.013,-0.011 0.027,-0.022 0.041,-0.033 0,0 0,0 0,0 0.014,-0.01 0.028,-0.021 0.042,-0.032 0,0 0,0 0,0 0.014,-0.01 0.028,-0.02 0.042,-0.031 0,0 0,0 0,0 0.014,-0.011 0.029,-0.021 0.043,-0.032 0,0 0,0 10e-4,0 0.014,-0.01 0.028,-0.021 0.043,-0.031 0,0 0,0 0,0 0.015,-0.011 0.03,-0.022 0.045,-0.032 0,0 0,0 0,0 0.015,-0.011 0.03,-0.021 0.045,-0.031 0,0 0,0 0,0 0.015,-0.011 0.03,-0.021 0.046,-0.031 0,0 0,0 0,0 0.015,-0.011 0.03,-0.021 0.046,-0.031 0,0 0,0 0,0 0.015,-0.011 0.031,-0.021 0.047,-0.031 0,0 0,0 0,0 0.016,-0.011 0.031,-0.021 0.047,-0.031 0,0 0,0 0,0 0.016,-0.01 0.032,-0.02 0.048,-0.03 0,0 0,0 0,0 0.016,-0.01 0.032,-0.021 0.048,-0.031 0,0 0,0 10e-4,0 0.016,-0.01 0.032,-0.02 0.049,-0.03 0,0 0,0 0,0 0.017,-0.01 0.033,-0.02 0.049,-0.03 0,0 0,0 0,0 0.017,-0.009 0.033,-0.02 0.05,-0.029 0,0 0,0 0,0 0.017,-0.01 0.034,-0.02 0.051,-0.029 0,0 0,0 0,0 0.017,-0.01 0.034,-0.02 0.051,-0.03 0,0 0,0 0,0 0.017,-0.009 0.034,-0.019 0.051,-0.028 0,0 0,0 0.001,0 0.017,-0.01 0.034,-0.02 0.052,-0.029 0,0 0,0 0,0 0.017,-0.01 0.035,-0.019 0.052,-0.028 0,0 0,0 0,0 0.018,-0.009 0.036,-0.019 0.054,-0.028 0,0 0,0 0,0 0.018,-0.01 0.035,-0.019 0.053,-0.028 0,0 0,0 0,0 0.018,-0.009 0.036,-0.018 0.054,-0.027 0,0 0,0 0,0 0.018,-0.009 0.036,-0.018 0.055,-0.027 0,0 0,0 0,0 0.018,-0.009 0.036,-0.019 0.055,-0.027 0,0 0,0 0,0 0.018,-0.009 0.037,-0.018 0.055,-0.027 0,0 0,0 0,0 0.019,-0.008 0.038,-0.017 0.056,-0.026 0,0 10e-4,0 10e-4,0 0.018,-0.009 0.037,-0.017 0.056,-0.026 0,0 0,0 0,0 0.019,-0.008 0.038,-0.017 0.057,-0.026 0,0 0,0 0,0 0.019,-0.008 0.038,-0.016 0.057,-0.024 0,0 0,0 0,0 0.019,-0.009 0.038,-0.017 0.058,-0.025 0,0 0,0 0,0 0.019,-0.009 0.038,-0.016 0.058,-0.025 0,0 0,0 0,0 0.019,-0.007 0.039,-0.016 0.058,-0.024 0,0 10e-4,0 10e-4,0 0.019,-0.008 0.038,-0.015 0.058,-0.023 0,0 0,0 0,0 0.02,-0.008 0.039,-0.016 0.059,-0.024 0,0 0,0 0,0 0.02,-0.008 0.04,-0.015 0.06,-0.022 0,0 0,0 0,0 0.02,-0.008 0.04,-0.016 0.06,-0.023 0,0 10e-4,0 10e-4,0 0.02,-0.008 0.039,-0.015 0.06,-0.022 0,0 0,0 0,0 0.02,-0.007 0.04,-0.014 0.06,-0.021 0,0 10e-4,0 10e-4,0 0.02,-0.007 0.04,-0.014 0.061,-0.021 0,0 0,0 0,0 0.021,-0.007 0.041,-0.014 0.061,-0.021 0,0 10e-4,0 10e-4,0 0.02,-0.007 0.04,-0.013 0.061,-0.02 0,0 0,0 0,0 0.021,-0.007 0.042,-0.014 0.062,-0.02 0,0 10e-4,0 10e-4,0 0.02,-0.006 0.041,-0.013 0.062,-0.019 0,0 0,0 0,0 0.021,-0.007 0.042,-0.013 0.063,-0.019 0,0 10e-4,0 10e-4,0 0.016,-0.005 0.033,-0.01 0.049,-0.015 0,0 0,0 0,0 0.017,-0.004 0.034,-0.009 0.051,-0.014 0,0 0,0 0,0 0.017,-0.005 0.033,-0.009 0.05,-0.013 0,0 0,0 0,0 0.017,-0.005 0.034,-0.01 0.051,-0.014 0,0 0,0 0,0 0.017,-0.005 0.034,-0.009 0.051,-0.013 0,0 0,0 0,0 0.017,-0.004 0.034,-0.009 0.051,-0.013 0,0 0,0 0,0 0.017,-0.004 0.034,-0.008 0.051,-0.012 0,0 0,0 0,0 0.017,-0.005 0.035,-0.009 0.052,-0.013 0,0 0,0 0,0 0.017,-0.004 0.034,-0.008 0.051,-0.011 0,0 10e-4,0 10e-4,0 0.017,-0.004 0.034,-0.008 0.051,-0.012 0,0 0.001,0 0.001,0 0.017,-0.004 0.034,-0.007 0.051,-0.011 0,0 10e-4,0 10e-4,0 0.017,-0.004 0.034,-0.008 0.052,-0.011 0,0 0,0 0,0 0.017,-0.003 0.035,-0.007 0.052,-0.01 0,0 0,0 0,0 0.018,-0.004 0.035,-0.007 0.053,-0.01 0,0 0,0 0,0 0.017,-0.003 0.035,-0.007 0.052,-0.01 0,0 0.001,0 0.001,0 0.017,-0.003 0.035,-0.006 0.053,-0.009 0,0 0,0 0,0 0.018,-0.003 0.035,-0.006 0.052,-0.009 0,0 0.001,0 0.001,0 0.017,-0.003 0.035,-0.005 0.052,-0.008 0,0 0.001,0 0.001,0 0.018,-0.003 0.035,-0.006 0.053,-0.009 0,0 0,0 0,0 0.018,-0.002 0.036,-0.005 0.053,-0.007 0,0 10e-4,0 10e-4,0 0.017,-0.003 0.035,-0.005 0.053,-0.007 0,0 0,0 0,0 0.018,-0.003 0.036,-0.005 0.054,-0.007 0,0 0,0 0,0 0.018,-0.002 0.036,-0.004 0.054,-0.007 0,0 0,0 0,0 0.018,-0.002 0.036,-0.004 0.054,-0.006 0,0 0,0 0,0 0.018,-0.002 0.036,-0.004 0.054,-0.005 0,0 0,0 0,0 0.018,-0.002 0.036,-0.004 0.054,-0.006 0,0 0,0 0,0 0.018,-0.002 0.036,-0.003 0.054,-0.004 0,0 0,0 0,0 0.018,-0.002 0.037,-0.004 0.055,-0.005 0,0 0,0 0,0 0.018,-0.002 0.036,-0.003 0.054,-0.004 0,0 0.001,0 0.001,0 0.018,-0.001 0.036,-0.002 0.054,-0.003 0,0 0,0 0,0 0.019,-0.001 0.037,-0.002 0.055,-0.003 0,0 0,0 0,0 0.018,-10e-4 0.037,-0.003 0.055,-0.004 0,0 0,0 0,0 0.019,0 0.037,-0.001 0.055,-0.001 0,0 0,0 0,0 0.018,-10e-4 0.037,-10e-4 0.055,-0.002 0,0 0,0 0,0 0.018,0 0.036,-0.001 0.055,-0.001 0,0 0,0 0,0 0.018,0 0.037,-10e-4 0.055,-10e-4 0,0 10e-4,0 10e-4,0 0.018,0 0.036,0 0.054,0 0,0 0.001,0 0.001,0 0.018,0 0.036,0 0.055,0 0,0 0,0 0,0 0.019,0 0.037,10e-4 0.055,10e-4 0,0 10e-4,0 10e-4,0 0.018,0.001 0.036,0.001 0.055,0.001 0,0 0,0 0,0 0.019,0 0.037,0.002 0.055,0.002 0,0 10e-4,0 10e-4,0 0.018,0.001 0.037,0.001 0.055,0.002 0,0 0,0 0,0 0.019,0.001 0.037,0.002 0.056,0.003 0,0 0,0 0,0 0.018,0.001 0.037,0.002 0.056,0.003 0,0 0,0 0,0 0.018,10e-4 0.037,0.002 0.056,0.004 0,0 0,0 0,0 0.018,0.001 0.037,0.003 0.056,0.004 0,0 0,0 0,0 0.019,10e-4 0.037,0.003 0.056,0.005 0,0 0,0 0,0 0.019,10e-4 0.037,0.003 0.056,0.005 0,0 0,0 0,0 0.019,0.002 0.037,0.004 0.056,0.006 0,0 0,0 0,0 0.018,0.002 0.037,0.004 0.056,0.006 0,0 0,0 0,0 0.018,0.002 0.037,0.005 0.055,0.007 0,0 0.001,0 0.001,0 0.018,0.002 0.037,0.005 0.056,0.007 0,0 0,0 0,0 0.019,0.002 0.037,0.006 0.056,0.008 0,0 0,0 0,0 0.018,0.003 0.038,0.006 0.056,0.009 0,0 10e-4,0 10e-4,0 0.018,0.002 0.036,0.006 0.055,0.009 0,0 0,0 0,0 0.019,0.003 0.038,0.005 0.057,0.009 0,0 0,0 0,0 0.019,0.003 0.037,0.007 0.056,0.01 0,0 0,0 0,0 0.018,0.004 0.038,0.007 0.056,0.011 0,0 0,0 0,0 0.019,0.004 0.037,0.008 0.056,0.011 0,0 0,0 0,0 0.019,0.004 0.038,0.008 0.056,0.012 0,0 10e-4,0 10e-4,0 0.018,0.004 0.037,0.008 0.055,0.012 0,0 0,0 0,0 0.019,0.005 0.038,0.009 0.057,0.013 0,0 0,0 0,0 0.019,0.004 0.037,0.009 0.056,0.014 0,0 0,0 0,0 0.019,0.004 0.038,0.009 0.057,0.014 0,0 0,0 0,0 l 0.076,0.02 10e-4,0 -0.003,0.076 c 0,0 0,0 0,0 0,0.004 -0.001,0.009 -0.001,0.013 0,0 0,0 0,0 0,0.004 -10e-4,0.008 -10e-4,0.012 0,0 0,0 0,0 0,0.004 0,0.009 -0.001,0.013 0,0 0,0 0,0 -10e-4,0.004 0,0.008 -10e-4,0.012 0,0 0,0 0,0 0,0.005 -10e-4,0.009 -10e-4,0.014 0,0 -0.001,0 -0.001,0 0,0.004 0,0.008 -10e-4,0.013 0,0 0,0 0,0 -0.001,0.004 -0.001,0.009 -0.002,0.013 0,0 0,0 0,0 -10e-4,0.005 -10e-4,0.009 -10e-4,0.013 0,0 0,0 0,0 -0.001,0.005 -0.002,0.01 -0.003,0.014 0,0 0,0 0,0 -10e-4,0.005 -10e-4,0.009 -0.002,0.014 0,0 0,0 0,0 -10e-4,0.004 -0.002,0.009 -0.003,0.014 0,0 0,0 0,0 -10e-4,0.004 -10e-4,0.009 -0.002,0.014 0,0 0,0 0,0 -10e-4,0.004 -0.002,0.009 -0.003,0.014 0,0 -10e-4,0 -10e-4,0 -0.001,0.005 -0.001,0.009 -0.002,0.014 0,0 0,0 0,0 -0.001,0.005 -0.003,0.01 -0.004,0.015 0,0 0,0 0,0 -10e-4,0.004 -10e-4,0.009 -0.003,0.014 0,0 0,0 0,0 -10e-4,0.005 -0.003,0.01 -0.004,0.015 0,0 0,0 0,0 -10e-4,0.005 -0.002,0.01 -0.004,0.015 0,0 0,0 0,0 -0.001,0.005 -0.003,0.01 -0.004,0.015 0,0 0,0 0,0 -0.002,0.005 -0.002,0.01 -0.004,0.015 0,0 0,0 0,0 -10e-4,0.005 -0.003,0.01 -0.004,0.015 0,0 -0.001,0 -0.001,0 -10e-4,0.005 -0.002,0.011 -0.004,0.016 0,0 0,0 0,0 -0.002,0.005 -0.003,0.01 -0.005,0.015 0,0 0,0 0,0 -10e-4,0.005 -0.002,0.01 -0.004,0.015 0,0 0,0 0,0 -0.002,0.005 -0.003,0.011 -0.005,0.016 0,0 0,0 0,0 -0.002,0.005 -0.004,0.01 -0.005,0.016 0,0 -0.001,0 -0.001,0 -10e-4,0.005 -0.003,0.01 -0.005,0.015 0,0 0,0 0,0 -0.002,0.006 -0.003,0.011 -0.005,0.016 0,0 0,0 0,0 -0.002,0.006 -0.005,0.011 -0.006,0.017 0,0 -0.001,0 -0.001,0 -0.002,0.005 -0.003,0.01 -0.005,0.016 0,0 0,0 0,0 -0.002,0.005 -0.004,0.011 -0.006,0.016 0,0 0,0 0,0 -0.002,0.006 -0.003,0.01 -0.005,0.016 0,0 -0.001,0 -0.001,0 -0.002,0.005 -0.004,0.011 -0.006,0.016 0,0 0,0 0,0 -0.002,0.006 -0.004,0.011 -0.007,0.017 0,0 0,0 0,0 -0.002,0.005 -0.004,0.011 -0.006,0.016 0,0 -10e-4,0 -10e-4,0 -0.002,0.006 -0.003,0.011 -0.006,0.017 0,0 0,0 0,0 -0.002,0.005 -0.005,0.012 -0.007,0.017 0,0 0,0 0,0 -0.003,0.006 -0.005,0.011 -0.007,0.017 0,0 0,0 0,0 -0.002,0.005 -0.004,0.011 -0.007,0.016 0,0 0,0 0,0 -0.003,0.006 -0.005,0.011 -0.007,0.017 0,0 0,0 0,0 -0.003,0.005 -0.005,0.012 -0.007,0.017 0,0 -0.001,0 -0.001,0 -0.002,0.006 -0.005,0.011 -0.007,0.017 0,0 0,0 0,0 -0.003,0.005 -0.005,0.012 -0.008,0.017 0,0 0,0 0,0 -0.003,0.006 -0.005,0.011 -0.007,0.017 0,0 -10e-4,0 -10e-4,0 -0.002,0.005 -0.005,0.011 -0.008,0.017 0,0 0,0 0,0 -0.003,0.005 -0.005,0.011 -0.007,0.016 0,0 -10e-4,0 -10e-4,0 -0.002,0.006 -0.005,0.012 -0.008,0.018 0,0 0,0 0,0 -0.003,0.005 -0.005,0.01 -0.007,0.016 0,0 -0.001,0 -0.001,0 -0.002,0.006 -0.006,0.012 -0.008,0.017 0,0 -10e-4,0 -10e-4,0 -0.002,0.006 -0.005,0.012 -0.008,0.018 0,0 0,0 0,0 -0.003,0.005 -0.006,0.011 -0.008,0.017 0,0 -10e-4,0 -10e-4,0 -0.002,0.005 -0.005,0.011 -0.008,0.017 0,0 0,0 0,0 -0.003,0.006 -0.006,0.012 -0.009,0.017 0,0 0,0 0,0 -0.003,0.006 -0.006,0.012 -0.009,0.017 0,0 0,0 0,0 -0.003,0.006 -0.006,0.012 -0.009,0.017 0,0 0,0 0,0 -0.004,0.006 -0.006,0.012 -0.009,0.017 0,0 0,0 0,0 -0.003,0.006 -0.007,0.012 -0.01,0.017 0,0 0,0 0,0 -0.003,0.006 -0.006,0.012 -0.009,0.017 0,0 0,0 0,0 -0.003,0.006 -0.006,0.012 -0.01,0.018 0,0 0,0 0,0 -0.003,0.005 -0.006,0.011 -0.009,0.017 0,0 0,0 0,0 -0.003,0.005 -0.007,0.011 -0.01,0.017 0,0 0,0 0,0 -0.003,0.005 -0.006,0.011 -0.009,0.017 0,0 -0.001,0 -0.001,0 -0.003,0.005 -0.006,0.011 -0.009,0.017 0,0 -10e-4,0 -10e-4,0 -0.003,0.005 -0.005,0.01 -0.009,0.016 0,0 0,0 0,0 -0.003,0.006 -0.006,0.011 -0.01,0.017 0,0 0,0 0,0 -0.003,0.005 -0.006,0.011 -0.01,0.016 0,0 0,0 0,0 -0.003,0.005 -0.006,0.011 -0.01,0.016 0,0 0,0 0,0 -0.003,0.006 -0.006,0.011 -0.01,0.017 0,0 0,0 0,0 -0.003,0.005 -0.007,0.011 -0.01,0.016 0,0 0,0 0,0 -0.004,0.006 -0.007,0.011 -0.01,0.016 0,0 0,0 0,0 -0.004,0.006 -0.007,0.011 -0.01,0.017 0,0 0,0 0,0 -0.004,0.005 -0.007,0.01 -0.01,0.015 0,0 0,0 0,0 -0.004,0.005 -0.008,0.011 -0.011,0.017 0,0 0,0 0,0 -0.003,0.005 -0.007,0.01 -0.01,0.015 0,0 -10e-4,0 -10e-4,0 -0.003,0.005 -0.006,0.011 -0.01,0.017 0,0 0,0 0,0 -0.004,0.005 -0.007,0.01 -0.01,0.015 0,0 0,0 0,0 -0.004,0.005 -0.008,0.011 -0.011,0.016 0,0 0,0 0,0 -0.004,0.005 -0.007,0.01 -0.011,0.016 0,0 0,0 0,0 -0.003,0.005 -0.007,0.01 -0.01,0.015 0,0 -10e-4,0 -10e-4,0 -0.003,0.005 -0.006,0.011 -0.01,0.016 0,0 0,0 0,0 -0.004,0.005 -0.008,0.01 -0.012,0.015 0,0 0,0 0,0 -0.003,0.005 -0.006,0.011 -0.01,0.016 0,0 0,0 0,0 -0.004,0.005 -0.008,0.01 -0.011,0.015 0,0 -0.001,0 -0.001,0 -0.003,0.005 -0.007,0.011 -0.01,0.015 0,0 0,0 0,0 -0.004,0.005 -0.008,0.011 -0.012,0.016 0,0 0,0 0,0 -0.003,0.005 -0.007,0.01 -0.011,0.015 0,0 0,0 0,0 -0.004,0.005 -0.007,0.01 -0.011,0.015 0,0 -10e-4,0 -10e-4,0 -0.003,0.005 -0.006,0.01 -0.01,0.015 0,0 0,0 0,0 -0.004,0.004 -0.008,0.01 -0.011,0.014 0,0 -10e-4,0 -10e-4,0 -0.003,0.005 -0.007,0.01 -0.011,0.015 0,0 0,0 0,0 -0.004,0.005 -0.008,0.01 -0.011,0.015 0,0 -10e-4,0 -10e-4,0 -0.003,0.005 -0.007,0.009 -0.01,0.014 0,0 -0.001,0 -0.001,0 -0.004,0.005 -0.007,0.01 -0.011,0.015 0,0 0,0 0,0 -0.004,0.005 -0.008,0.009 -0.012,0.014 0,0 0,0 0,0 -0.004,0.005 -0.007,0.009 -0.011,0.014 0,0 0,0 0,0 -0.004,0.005 -0.008,0.009 -0.011,0.014 0,0 -0.001,0 -0.001,0 -0.004,0.004 -0.008,0.009 -0.012,0.014 0,0 0,0 0,0 -0.004,0.004 -0.007,0.009 -0.011,0.014 0,0 0,0 0,0 -0.004,0.004 -0.008,0.009 -0.012,0.013 0,0 0,0 0,0 -0.004,0.005 -0.008,0.009 -0.011,0.014 0,0 -10e-4,0 -10e-4,0 -0.004,0.004 -0.008,0.009 -0.012,0.013 0,0 0,0 0,0 -0.004,0.005 -0.007,0.009 -0.011,0.014 0,0 0,0 0,0 -0.004,0.004 -0.008,0.008 -0.012,0.013 0,0 0,0 -10e-4,0 -0.003,0.004 -0.007,0.008 -0.011,0.012 0,0 0,0 0,0 -0.004,0.005 -0.008,0.009 -0.012,0.013 0,0 0,0 0,0 -0.004,0.005 -0.008,0.009 -0.012,0.013 0,0 0,0 0,0 -0.004,0.004 -0.008,0.008 -0.012,0.012 0,0 0,0 0,0 -0.004,0.005 -0.007,0.009 -0.011,0.013 0,0 0,0 0,0 -0.005,0.004 -0.008,0.008 -0.012,0.012 0,0 -0.001,0 -0.001,0 -0.003,0.004 -0.007,0.008 -0.011,0.012 0,0 0,-0.001 0,0 -0.004,0.004 -0.008,0.008 -0.012,0.011 0,0 0,0 0,0 -0.004,0.004 -0.007,0.008 -0.011,0.012 0,0 -10e-4,0 -10e-4,0 -0.003,0.004 -0.008,0.008 -0.012,0.012 0,0 0,0 0,0 -0.004,0.003 -0.008,0.007 -0.012,0.011 0,0 0,0 0,0 -0.004,0.004 -0.008,0.008 -0.012,0.011 0,0 0,0 0,0 -0.004,0.004 -0.008,0.007 -0.011,0.011 0,0 -10e-4,0 -10e-4,0 -0.004,0.003 -0.007,0.007 -0.011,0.011 0,0 0,0 -10e-4,0 -0.003,0.003 -0.008,0.007 -0.012,0.01 0,0 0,0 0,0 -0.004,0.004 -0.008,0.007 -0.012,0.01 0,0 0,0 0,0 -0.004,0.004 -0.007,0.007 -0.011,0.01 0,0 0,0 0,0 -0.004,0.004 -0.008,0.008 -0.012,0.011 0,0 0,0 0,0 -0.004,0.003 -0.008,0.006 -0.012,0.009 0,0 0,0 0,0 -0.004,0.004 -0.008,0.007 -0.012,0.01 0,0 0,0 0,0 -0.004,0.003 -0.008,0.006 -0.011,0.009 0,0 0,0 -0.001,0 -0.003,0.003 -0.007,0.007 -0.011,0.009 0,0 0,0 -0.001,0 -0.003,0.003 -0.007,0.006 -0.011,0.009 0,0 0,0 0,0 -0.004,0.003 -0.008,0.006 -0.012,0.009 0,0 0,0 0,0 -0.004,0.002 -0.007,0.005 -0.011,0.008 l -10e-4,0 -0.034,0.016 c 0,0 -0.001,0 -0.001,0 -0.014,0.003 -0.029,0.006 -0.043,0.01 0,0 0,0 0,0 -0.014,0.003 -0.029,0.006 -0.043,0.009 0,0 0,0 0,0 -0.015,0.004 -0.029,0.007 -0.044,0.01 0,0 0,0 0,0 -0.014,0.003 -0.028,0.006 -0.043,0.009 0,0 0,0 0,0 -0.014,0.003 -0.029,0.006 -0.044,0.009 0,0 0,0 0,0 -0.015,0.003 -0.028,0.006 -0.043,0.009 0,0 0,0 0,0 -0.015,0.003 -0.03,0.006 -0.044,0.009 0,0 0,0 0,0 -0.015,0.003 -0.029,0.005 -0.044,0.008 0,0 0,0 0,0 -0.014,0.003 -0.029,0.006 -0.044,0.009 0,0 0,0 0,0 -0.015,0.002 -0.029,0.005 -0.044,0.008 0,0 0,0 0,0 -0.015,0.002 -0.03,0.005 -0.044,0.008 0,0 -10e-4,0 -10e-4,0 -0.014,0.002 -0.029,0.005 -0.043,0.007 0,0 -10e-4,0 -10e-4,0 -0.014,0.003 -0.029,0.005 -0.044,0.008 0,0 0,0 0,0 -0.015,0.002 -0.029,0.005 -0.044,0.007 0,0 0,0 0,0 -0.015,0.002 -0.03,0.004 -0.045,0.007 0,0 0,0 0,0 -0.015,0.002 -0.029,0.004 -0.044,0.006 0,0 0,0 0,0 -0.015,0.003 -0.03,0.005 -0.045,0.007 0,0 0,0 0,0 -0.015,0.002 -0.03,0.005 -0.045,0.007 0,0 0,0 0,0 -0.015,0.002 -0.03,0.004 -0.044,0.006 0,0 -10e-4,0 -10e-4,0 -0.015,0.002 -0.029,0.004 -0.044,0.006 0,0 0,0 0,0 -0.015,0.002 -0.031,0.004 -0.046,0.006 0,0 0,0 0,0 -0.015,0.002 -0.029,0.004 -0.044,0.006 0,0 0,0 0,0 -0.015,0.002 -0.031,0.003 -0.045,0.005 0,0 -10e-4,0 -10e-4,0 -0.015,0.002 -0.029,0.003 -0.044,0.005 0,0 0,0 0,0 -0.015,0.002 -0.031,0.004 -0.046,0.005 0,0 0,0 0,0 -0.015,0.002 -0.03,0.004 -0.045,0.006 0,0 0,0 0,0 -0.015,0.001 -0.03,0.003 -0.045,0.004 0,0 0,0 0,0 -0.015,0.002 -0.03,0.003 -0.045,0.005 0,0 0,0 0,0 -0.015,10e-4 -0.03,0.003 -0.045,0.004 0,0 0,0 0,0 -0.016,0.002 -0.03,0.003 -0.046,0.005 0,0 0,0 0,0 -0.015,10e-4 -0.03,0.002 -0.045,0.004 0,0 0,0 0,0 -0.015,0.001 -0.03,0.002 -0.045,0.004 0,0 0,0 0,0 -0.015,10e-4 -0.031,0.002 -0.046,0.004 0,0 0,0 0,0 -0.015,10e-4 -0.03,0.002 -0.045,0.003 0,0 -10e-4,0 -10e-4,0 -0.015,0.002 -0.03,0.003 -0.045,0.004 0,0 0,0 0,0 -0.015,10e-4 -0.03,0.002 -0.045,0.003 0,0 -10e-4,0 -10e-4,0 -0.015,10e-4 -0.03,0.002 -0.045,0.003 0,0 0,0 0,0 -0.016,10e-4 -0.03,0.002 -0.046,0.003 0,0 0,0 0,0 -0.015,0.001 -0.03,0.003 -0.045,0.003 0,0 0,0 0,0 -0.015,10e-4 -0.03,0.002 -0.045,0.003 0,0 0,0 0,0 -0.016,0 -0.032,0.002 -0.046,0.003 0,0 -0.001,0 -0.001,0 -0.015,0 -0.03,10e-4 -0.045,0.002 0,0 0,0 0,0 -0.015,10e-4 -0.03,10e-4 -0.045,0.002 0,0 0,0 0,0 -0.015,10e-4 -0.031,0.002 -0.045,0.002 0,0 -10e-4,0 -10e-4,0 -0.015,10e-4 -0.03,0.002 -0.045,0.002 0,0 0,0 0,0 -0.015,0.001 -0.03,0.001 -0.045,0.002 0,0 -10e-4,0 -10e-4,0 -0.015,0 -0.03,0.001 -0.045,0.001 0,0 0,0 0,0 -0.015,10e-4 -0.03,10e-4 -0.045,0.002 0,0 0,0 0,0 -0.015,0 -0.031,0.001 -0.046,0.001 0,0 0,0 0,0 -0.015,10e-4 -0.03,10e-4 -0.045,0.002 0,0 0,0 0,0 -0.015,0 -0.03,10e-4 -0.045,10e-4 0,0 -0.001,0 -0.001,0 -0.015,0.001 -0.03,0.001 -0.045,0.001 0,0 0,0 0,0 -0.015,0 -0.03,10e-4 -0.045,10e-4 0,0 0,0 0,0 -0.015,0 -0.03,10e-4 -0.045,10e-4 0,0 -10e-4,0 -10e-4,0 -0.014,0 -0.03,0 -0.045,0.001 0,0 0,0 0,0 -0.015,0 -0.03,0 -0.045,0 0,0 0,0 0,0 -0.015,0 -0.03,10e-4 -0.045,10e-4 0,0 0,0 0,0 -0.015,0 -0.03,0 -0.045,0 0,0 0,0 0,0 -0.015,0 -0.03,0 -0.045,0 0,0 0,0 0,0 -0.015,0 -0.03,0 -0.045,0 0,0 0,0 0,0 -0.015,0 -0.03,0 -0.045,0 0,0 0,0 0,0 -0.015,0 -0.03,0 -0.044,0 0,0 -10e-4,0 -10e-4,0 -0.014,-10e-4 -0.029,0 -0.044,-10e-4 0,0 0,0 0,0 -0.015,0 -0.029,0 -0.044,0 0,0 -10e-4,0 -10e-4,0 -0.014,-0.001 -0.03,0 -0.044,0 0,0 -0.001,0 -0.001,0 -0.014,-0.001 -0.029,-0.001 -0.044,-0.001 0,0 0,0 0,0 -0.015,0 -0.029,-10e-4 -0.044,-10e-4 0,0 0,0 0,0 -0.015,0 -0.03,0 -0.045,-10e-4 0,0 0,0 0,0 -0.014,0 -0.03,0 -0.044,0 0,0 0,0 0,0 -0.015,-0.001 -0.029,-0.001 -0.044,-0.001 0,0 0,0 0,0 -0.015,-10e-4 -0.029,-10e-4 -0.044,-10e-4 0,0 -10e-4,0 -10e-4,0 -0.014,-0.001 -0.028,-0.001 -0.043,-0.002 0,0 0,0 0,0 -0.015,0 -0.029,0 -0.044,-0.001 0,0 0,0 0,0 -0.015,0 -0.029,-10e-4 -0.043,-10e-4 0,0 -10e-4,0 -10e-4,0 -0.014,-10e-4 -0.029,-10e-4 -0.043,-0.002 0,0 0,0 0,0 -0.015,0 -0.029,-10e-4 -0.043,-10e-4 0,0 -10e-4,0 -10e-4,0 -0.014,-0.001 -0.029,-0.001 -0.043,-0.002 0,0 0,0 0,0 -0.015,0 -0.029,-10e-4 -0.043,-0.002 0,0 -10e-4,0 -10e-4,0 -0.014,0 -0.028,-10e-4 -0.042,-10e-4 0,0 -10e-4,0 -10e-4,0 -0.014,0 -0.028,-0.002 -0.042,-0.002 0,0 0,0 0,0 -0.015,-0.001 -0.029,-0.001 -0.043,-0.002 0,0 -10e-4,0 -10e-4,0 -0.014,0 -0.028,-10e-4 -0.042,-0.002 0,0 0,0 0,0 -0.015,-10e-4 -0.029,-10e-4 -0.043,-0.002 0,0 0,0 0,0 -0.014,-10e-4 -0.028,-10e-4 -0.042,-0.002 0,0 0,0 0,0 -0.014,-0.001 -0.029,-0.002 -0.043,-0.002 0,0 0,0 0,0 -0.014,-0.001 -0.028,-0.002 -0.042,-0.003 0,0 0,0 0,0 -0.014,0 -0.028,-10e-4 -0.042,-0.002 0,0 0,0 0,0 -0.014,0 -0.028,-0.002 -0.042,-0.003 0,0 0,0 0,0 -0.014,0 -0.028,-10e-4 -0.042,-0.002 0,0 0,0 0,0 -0.014,-0.001 -0.027,-0.002 -0.041,-0.002 0,0 0,0 0,0 -0.014,-0.001 -0.028,-0.002 -0.042,-0.003 0,0 0,0 0,0 -0.014,-10e-4 -0.027,-0.002 -0.041,-0.003 0,0 0,0 0,0 -0.014,-10e-4 -0.027,-0.002 -0.041,-0.003 0,0 0,0 0,0 -0.014,0 -0.027,-10e-4 -0.041,-0.002 0,0 0,0 0,0 -0.014,-10e-4 -0.027,-0.003 -0.041,-0.003 0,0 0,0 0,0 -0.013,-10e-4 -0.027,-0.002 -0.04,-0.003 0,0 0,0 0,0 -0.014,-0.001 -0.027,-0.002 -0.041,-0.003 0,0 0,0 0,0 -0.014,-10e-4 -0.027,-0.002 -0.04,-0.003 0,0 -10e-4,0 -10e-4,0 -0.013,-10e-4 -0.026,-0.002 -0.04,-0.003 0,0 0,0 0,0 -0.013,-10e-4 -0.026,-0.002 -0.039,-0.003 0,0 -10e-4,0 -10e-4,0 -0.013,-0.001 -0.026,-0.002 -0.039,-0.003 0,0 0,0 0,0 -0.013,-10e-4 -0.026,-0.002 -0.039,-0.003 0,0 -10e-4,0 -10e-4,0 -0.013,-10e-4 -0.026,-0.002 -0.039,-0.003 0,0 0,0 0,0 -0.013,-10e-4 -0.026,-0.003 -0.038,-0.004 0,0 -0.001,0 -0.001,0 -0.013,0 -0.026,-10e-4 -0.039,-0.002 0,0 0,0 0,0 -0.013,-10e-4 -0.026,-0.003 -0.039,-0.004 0,0 0,0 0,0 -0.013,-0.001 -0.025,-0.002 -0.038,-0.003 0,0 0,0 0,0 -0.013,-0.001 -0.025,-0.002 -0.038,-0.004 0,0 0,0 0,0 -0.013,-0.001 -0.025,-0.001 -0.038,-0.003 0,0 0,0 0,0 -0.013,-0.001 -0.026,-0.002 -0.038,-0.003 0,0 0,0 0,0 -0.013,-10e-4 -0.025,-0.003 -0.038,-0.004 0,0 0,0 0,0 -0.012,-0.001 -0.024,-0.002 -0.037,-0.003 0,0 0,0 0,0 -0.012,-0.002 -0.025,-0.002 -0.037,-0.004 0,0 0,0 0,0 -0.012,-0.001 -0.025,-0.002 -0.037,-0.003 0,0 0,0 0,0 -0.013,-0.001 -0.024,-0.003 -0.037,-0.004 0,0 0,0 0,0 -0.012,-0.001 -0.024,-0.002 -0.036,-0.003 0,0 0,0 0,0 -0.012,-0.001 -0.025,-0.003 -0.037,-0.004 0,0 0,0 0,0 -0.012,-10e-4 -0.024,-0.002 -0.035,-0.003 0,0 -10e-4,0 -10e-4,0 -0.011,-0.001 -0.023,-0.003 -0.035,-0.004 0,0 0,0 0,0 -0.012,-10e-4 -0.024,-0.002 -0.035,-0.003 0,0 -0.001,0 -0.001,0 -0.011,-0.001 -0.023,-0.003 -0.035,-0.004 0,0 0,0 0,0 -0.012,-10e-4 -0.023,-0.002 -0.035,-0.003 0,0 0,0 0,0 -0.011,-0.001 -0.023,-0.002 -0.035,-0.004 0,0 0,0 0,0 -0.011,-10e-4 -0.023,-0.002 -0.034,-0.003 0,0 0,0 0,0 -0.011,-0.002 -0.023,-0.003 -0.034,-0.004 0,0 0,0 0,0 -0.011,-10e-4 -0.023,-0.002 -0.034,-0.003 0,0 0,0 0,0 -0.011,-10e-4 -0.022,-0.002 -0.033,-0.004 0,0 -0.001,0 -0.001,0 -0.01,-10e-4 -0.021,-0.002 -0.032,-0.004 l 0,0 -0.188,-0.02 z"
           id="path36"
           inkscape:connector-curvature="0" />
        <path
           style="fill:#000000;stroke:none"
           d="m 248.823,497.697 c 0.141,-0.362 0.731,-0.338 0.843,0.032 2.333,7.71 6.851,14.823 13.096,19.927 5.12,4.183 11.403,7.016 18.598,7.721 -1.464,-0.851 -2.908,-2.08 -4.091,-3.591 -1.528,-1.952 -2.625,-4.378 -2.769,-7.069 -0.143,-2.689 0.664,-5.639 2.942,-8.642 2.778,-3.66 7.752,-7.399 15.879,-10.827 1.145,-0.592 3.684,-1.871 5.99,-3.911 2.298,-2.033 4.394,-4.838 4.703,-8.505 0.035,-0.411 0.732,-0.486 0.866,-0.092 0.585,1.721 0.73,3.544 0.558,5.421 -0.141,1.546 -0.496,3.129 -0.994,4.724 4.235,-2.297 7.317,-6.288 9.53,-10.672 4.017,-7.954 5.175,-17.169 5.204,-20.014 0.004,-0.35 0.464,-0.539 0.739,-0.304 0.575,0.49 1.17,1.132 1.679,1.935 0.096,0.152 0.189,0.31 0.279,0.474 0.237,-5.296 -0.306,-9.857 -1.601,-14.128 -1.452,-4.788 -3.848,-9.221 -7.148,-13.922 -0.184,-0.263 0.012,-0.632 0.345,-0.648 0.473,-0.024 0.996,0.069 1.576,0.3 0.217,0.086 0.442,0.193 0.678,0.32 -2.446,-6.004 -5.686,-9.694 -9.648,-14.205 -0.419,-0.477 -0.843,-0.96 -1.195,-1.363 -0.057,-0.066 -0.111,-0.271 -0.091,-0.354 0.305,-1.314 0.507,-1.995 0.963,-2.584 0.4,-0.516 0.956,-0.907 1.923,-1.555 -1.311,-1.348 -4.355,-2.404 -7.748,-3.124 -4.463,-0.946 -9.481,-1.291 -12.016,-0.963 1.245,2.075 1.767,4.21 1.828,6.208 0.086,2.798 -0.738,5.333 -1.74,7.054 -0.213,0.365 -0.896,0.143 -0.828,-0.267 0.196,-1.182 0.618,-3.484 0.495,-5.974 -0.119,-2.405 -0.747,-5 -2.586,-6.934 -7.597,-0.817 -18.455,3.333 -25.3,5.949 -0.509,0.195 -0.741,0.284 -0.937,0.359 0.251,1.358 0.104,2.608 -0.039,3.819 -0.276,2.335 -0.534,4.515 2.489,6.85 1.613,-3.116 4.042,-3.432 6.414,-2.421 1.597,0.681 3.158,1.995 4.39,3.441 1.234,1.447 2.147,3.04 2.445,4.269 0.291,1.198 0.038,2.106 -0.965,2.391 -0.088,0.059 -0.195,0.106 -0.32,0.142 -0.579,0.17 -1.845,0.187 -3.124,0 -1.291,-0.19 -2.63,-0.592 -3.36,-1.262 -0.251,-0.23 -0.436,-0.492 -0.532,-0.788 -0.086,-0.183 -0.162,-0.325 -0.228,-0.434 -0.056,0.238 -0.088,0.541 -0.106,0.803 0.075,1.248 0.337,2.502 0.794,3.596 0.373,0.894 0.876,1.678 1.512,2.254 0.249,-0.08 0.541,-0.184 0.863,-0.298 1.154,-0.408 2.683,-0.95 4.321,-1.174 0.002,0 0.063,-0.004 0.065,-0.004 1.083,0.001 2.241,0.037 3.414,0.074 3.818,0.121 7.817,0.247 10.186,-0.853 2.204,-1.023 2.979,-3.228 0.749,-7.787 -0.185,-0.381 0.491,-0.761 0.756,-0.426 4.186,5.292 2.423,8.494 -0.031,10.337 -1.167,0.877 -2.485,1.429 -3.369,1.75 0.953,0.572 1.488,1.384 1.694,2.321 0.207,0.942 0.071,2.005 -0.311,3.068 -0.192,0.533 -0.446,1.069 -0.75,1.589 -0.025,0.044 -0.184,0.175 -0.234,0.192 -5.485,1.915 -15.842,6.356 -23.592,12.028 -4.647,3.401 -8.348,7.236 -9.456,11.208 1.1,-0.652 2.222,-1.136 3.441,-1.458 1.554,-0.411 3.26,-0.557 5.279,-0.456 0.417,0.021 0.514,0.693 0.118,0.817 -1.129,0.354 -2.273,0.8 -3.406,1.333 -4.651,2.188 -9.138,5.85 -11.865,10.761 -2.724,4.906 -3.693,11.068 -1.315,18.264 0.38,1.148 0.844,2.322 1.399,3.52 0.558,-1.373 0.977,-2.839 1.392,-4.292 0.382,-1.342 0.762,-2.674 1.26,-3.95 z m 25.527,-79.458 0.123,-0.139 10e-4,0 c 0.009,-0.011 0.018,-0.021 0.028,-0.032 0,0 0,0 0,0 0.01,-0.011 0.019,-0.022 0.029,-0.033 0,0 0,0 0,0 0.01,-0.01 0.02,-0.021 0.031,-0.032 0,0 0,0 0,0 0.01,-0.011 0.02,-0.022 0.031,-0.032 0,0 0,0 0,0 0.011,-0.011 0.021,-0.022 0.031,-0.033 0,0 10e-4,0 10e-4,0 0.01,-0.011 0.021,-0.021 0.032,-0.032 0,0 0,0 0,0 0.011,-0.011 0.022,-0.021 0.033,-0.032 0,0 10e-4,0 10e-4,0 0.011,-0.011 0.022,-0.022 0.034,-0.034 0,0 0,0 0,0 0.011,-0.01 0.022,-0.021 0.034,-0.032 0,0 0,0 0,0 0.012,-0.011 0.024,-0.021 0.035,-0.032 0,0 0,0 0.001,0 0.012,-0.011 0.023,-0.022 0.035,-0.033 0,0 0,0.001 0.001,0 0.012,-0.01 0.024,-0.022 0.037,-0.032 0,0 0,0 0,0 0.012,-0.011 0.024,-0.022 0.037,-0.033 0,0 0,10e-4 0,0 0.013,-0.01 0.025,-0.022 0.038,-0.032 0,0 0,0 0,0 0.013,-0.011 0.026,-0.022 0.039,-0.032 0,0 0,0 0,0 0.013,-0.011 0.027,-0.023 0.04,-0.033 0,0 0,0 0,0 0.013,-0.011 0.026,-0.022 0.04,-0.032 0,0 0,0 0,0 0.013,-0.011 0.027,-0.022 0.04,-0.033 0,0 0,0 0.001,10e-4 0.013,-0.011 0.027,-0.022 0.041,-0.033 0,0 0,0 0,0 0.014,-0.01 0.028,-0.021 0.042,-0.032 0,0 0,0 0,0 0.014,-0.01 0.028,-0.02 0.042,-0.031 0,0 0,0 0,0 0.014,-0.011 0.029,-0.021 0.043,-0.032 0,0 0,0 10e-4,0 0.014,-0.01 0.028,-0.021 0.043,-0.031 0,0 0,0 0,0 0.015,-0.011 0.03,-0.022 0.045,-0.032 0,0 0,0 0,0 0.015,-0.011 0.03,-0.021 0.045,-0.031 0,0 0,0 0,0 0.015,-0.011 0.03,-0.021 0.046,-0.031 0,0 0,0 0,0 0.015,-0.011 0.03,-0.021 0.046,-0.031 0,0 0,0 0,0 0.015,-0.011 0.031,-0.021 0.047,-0.031 0,0 0,0 0,0 0.016,-0.011 0.031,-0.021 0.047,-0.031 0,0 0,0 0,0 0.016,-0.01 0.032,-0.02 0.048,-0.03 0,0 0,0 0,0 0.016,-0.01 0.032,-0.021 0.048,-0.031 0,0 0,0 10e-4,0 0.016,-0.01 0.032,-0.02 0.049,-0.03 0,0 0,0 0,0 0.017,-0.01 0.033,-0.02 0.049,-0.03 0,0 0,0 0,0 0.017,-0.009 0.033,-0.02 0.05,-0.029 0,0 0,0 0,0 0.017,-0.01 0.034,-0.02 0.051,-0.029 0,0 0,0 0,0 0.017,-0.01 0.034,-0.02 0.051,-0.03 0,0 0,0 0,0 0.017,-0.009 0.034,-0.019 0.051,-0.028 0,0 0,0 0.001,0 0.017,-0.01 0.034,-0.02 0.052,-0.029 0,0 0,0 0,0 0.017,-0.01 0.035,-0.019 0.052,-0.028 0,0 0,0 0,0 0.018,-0.009 0.036,-0.019 0.054,-0.028 0,0 0,0 0,0 0.018,-0.01 0.035,-0.019 0.053,-0.028 0,0 0,0 0,0 0.018,-0.009 0.036,-0.018 0.054,-0.027 0,0 0,0 0,0 0.018,-0.009 0.036,-0.018 0.055,-0.027 0,0 0,0 0,0 0.018,-0.009 0.036,-0.019 0.055,-0.027 0,0 0,0 0,0 0.018,-0.009 0.037,-0.018 0.055,-0.027 0,0 0,0 0,0 0.019,-0.008 0.038,-0.017 0.056,-0.026 0,0 10e-4,0 10e-4,0 0.018,-0.009 0.037,-0.017 0.056,-0.026 0,0 0,0 0,0 0.019,-0.008 0.038,-0.017 0.057,-0.026 0,0 0,0 0,0 0.019,-0.008 0.038,-0.016 0.057,-0.024 0,0 0,0 0,0 0.019,-0.009 0.038,-0.017 0.058,-0.025 0,0 0,0 0,0 0.019,-0.009 0.038,-0.016 0.058,-0.025 0,0 0,0 0,0 0.019,-0.007 0.039,-0.016 0.058,-0.024 0,0 10e-4,0 10e-4,0 0.019,-0.008 0.038,-0.015 0.058,-0.023 0,0 0,0 0,0 0.02,-0.008 0.039,-0.016 0.059,-0.024 0,0 0,0 0,0 0.02,-0.008 0.04,-0.015 0.06,-0.022 0,0 0,0 0,0 0.02,-0.008 0.04,-0.016 0.06,-0.023 0,0 10e-4,0 10e-4,0 0.02,-0.008 0.039,-0.015 0.06,-0.022 0,0 0,0 0,0 0.02,-0.007 0.04,-0.014 0.06,-0.021 0,0 10e-4,0 10e-4,0 0.02,-0.007 0.04,-0.014 0.061,-0.021 0,0 0,0 0,0 0.021,-0.007 0.041,-0.014 0.061,-0.021 0,0 10e-4,0 10e-4,0 0.02,-0.007 0.04,-0.013 0.061,-0.02 0,0 0,0 0,0 0.021,-0.007 0.042,-0.014 0.062,-0.02 0,0 10e-4,0 10e-4,0 0.02,-0.006 0.041,-0.013 0.062,-0.019 0,0 0,0 0,0 0.021,-0.007 0.042,-0.013 0.063,-0.019 0,0 10e-4,0 10e-4,0 0.016,-0.005 0.033,-0.01 0.049,-0.015 0,0 0,0 0,0 0.017,-0.004 0.034,-0.009 0.051,-0.014 0,0 0,0 0,0 0.017,-0.005 0.033,-0.009 0.05,-0.013 0,0 0,0 0,0 0.017,-0.005 0.034,-0.01 0.051,-0.014 0,0 0,0 0,0 0.017,-0.005 0.034,-0.009 0.051,-0.013 0,0 0,0 0,0 0.017,-0.004 0.034,-0.009 0.051,-0.013 0,0 0,0 0,0 0.017,-0.004 0.034,-0.008 0.051,-0.012 0,0 0,0 0,0 0.017,-0.005 0.035,-0.009 0.052,-0.013 0,0 0,0 0,0 0.017,-0.004 0.034,-0.008 0.051,-0.011 0,0 10e-4,0 10e-4,0 0.017,-0.004 0.034,-0.008 0.051,-0.012 0,0 0.001,0 0.001,0 0.017,-0.004 0.034,-0.007 0.051,-0.011 0,0 10e-4,0 10e-4,0 0.017,-0.004 0.034,-0.008 0.052,-0.011 0,0 0,0 0,0 0.017,-0.003 0.035,-0.007 0.052,-0.01 0,0 0,0 0,0 0.018,-0.004 0.035,-0.007 0.053,-0.01 0,0 0,0 0,0 0.017,-0.003 0.035,-0.007 0.052,-0.01 0,0 0.001,0 0.001,0 0.017,-0.003 0.035,-0.006 0.053,-0.009 0,0 0,0 0,0 0.018,-0.003 0.035,-0.006 0.052,-0.009 0,0 0.001,0 0.001,0 0.017,-0.003 0.035,-0.005 0.052,-0.008 0,0 0.001,0 0.001,0 0.018,-0.003 0.035,-0.006 0.053,-0.009 0,0 0,0 0,0 0.018,-0.002 0.036,-0.005 0.053,-0.007 0,0 10e-4,0 10e-4,0 0.017,-0.003 0.035,-0.005 0.053,-0.007 0,0 0,0 0,0 0.018,-0.003 0.036,-0.005 0.054,-0.007 0,0 0,0 0,0 0.018,-0.002 0.036,-0.004 0.054,-0.007 0,0 0,0 0,0 0.018,-0.002 0.036,-0.004 0.054,-0.006 0,0 0,0 0,0 0.018,-0.002 0.036,-0.004 0.054,-0.005 0,0 0,0 0,0 0.018,-0.002 0.036,-0.004 0.054,-0.006 0,0 0,0 0,0 0.018,-0.002 0.036,-0.003 0.054,-0.004 0,0 0,0 0,0 0.018,-0.002 0.037,-0.004 0.055,-0.005 0,0 0,0 0,0 0.018,-0.002 0.036,-0.003 0.054,-0.004 0,0 0.001,0 0.001,0 0.018,-0.001 0.036,-0.002 0.054,-0.003 0,0 0,0 0,0 0.019,-0.001 0.037,-0.002 0.055,-0.003 0,0 0,0 0,0 0.018,-10e-4 0.037,-0.003 0.055,-0.004 0,0 0,0 0,0 0.019,0 0.037,-0.001 0.055,-0.001 0,0 0,0 0,0 0.018,-10e-4 0.037,-10e-4 0.055,-0.002 0,0 0,0 0,0 0.018,0 0.036,-0.001 0.055,-0.001 0,0 0,0 0,0 0.018,0 0.037,-10e-4 0.055,-10e-4 0,0 10e-4,0 10e-4,0 0.018,0 0.036,0 0.054,0 0,0 0.001,0 0.001,0 0.018,0 0.036,0 0.055,0 0,0 0,0 0,0 0.019,0 0.037,10e-4 0.055,10e-4 0,0 10e-4,0 10e-4,0 0.018,0.001 0.036,0.001 0.055,0.001 0,0 0,0 0,0 0.019,0 0.037,0.002 0.055,0.002 0,0 10e-4,0 10e-4,0 0.018,0.001 0.037,0.001 0.055,0.002 0,0 0,0 0,0 0.019,0.001 0.037,0.002 0.056,0.003 0,0 0,0 0,0 0.018,0.001 0.037,0.002 0.056,0.003 0,0 0,0 0,0 0.018,10e-4 0.037,0.002 0.056,0.004 0,0 0,0 0,0 0.018,0.001 0.037,0.003 0.056,0.004 0,0 0,0 0,0 0.019,10e-4 0.037,0.003 0.056,0.005 0,0 0,0 0,0 0.019,10e-4 0.037,0.003 0.056,0.005 0,0 0,0 0,0 0.019,0.002 0.037,0.004 0.056,0.006 0,0 0,0 0,0 0.018,0.002 0.037,0.004 0.056,0.006 0,0 0,0 0,0 0.018,0.002 0.037,0.005 0.055,0.007 0,0 0.001,0 0.001,0 0.018,0.002 0.037,0.005 0.056,0.007 0,0 0,0 0,0 0.019,0.002 0.037,0.006 0.056,0.008 0,0 0,0 0,0 0.018,0.003 0.038,0.006 0.056,0.009 0,0 10e-4,0 10e-4,0 0.018,0.002 0.036,0.006 0.055,0.009 0,0 0,0 0,0 0.019,0.003 0.038,0.005 0.057,0.009 0,0 0,0 0,0 0.019,0.003 0.037,0.007 0.056,0.01 0,0 0,0 0,0 0.018,0.004 0.038,0.007 0.056,0.011 0,0 0,0 0,0 0.019,0.004 0.037,0.008 0.056,0.011 0,0 0,0 0,0 0.019,0.004 0.038,0.008 0.056,0.012 0,0 10e-4,0 10e-4,0 0.018,0.004 0.037,0.008 0.055,0.012 0,0 0,0 0,0 0.019,0.005 0.038,0.009 0.057,0.013 0,0 0,0 0,0 0.019,0.004 0.037,0.009 0.056,0.014 0,0 0,0 0,0 0.019,0.004 0.038,0.009 0.057,0.014 0,0 0,0 0,0 l 0.076,0.02 10e-4,0 -0.003,0.076 c 0,0 0,0 0,0 0,0.004 -0.001,0.009 -0.001,0.013 0,0 0,0 0,0 0,0.004 -10e-4,0.008 -10e-4,0.012 0,0 0,0 0,0 0,0.004 0,0.009 -0.001,0.013 0,0 0,0 0,0 -10e-4,0.004 0,0.008 -10e-4,0.012 0,0 0,0 0,0 0,0.005 -10e-4,0.009 -10e-4,0.014 0,0 -0.001,0 -0.001,0 0,0.004 0,0.008 -10e-4,0.013 0,0 0,0 0,0 -0.001,0.004 -0.001,0.009 -0.002,0.013 0,0 0,0 0,0 -10e-4,0.005 -10e-4,0.009 -10e-4,0.013 0,0 0,0 0,0 -0.001,0.005 -0.002,0.01 -0.003,0.014 0,0 0,0 0,0 -10e-4,0.005 -10e-4,0.009 -0.002,0.014 0,0 0,0 0,0 -10e-4,0.004 -0.002,0.009 -0.003,0.014 0,0 0,0 0,0 -10e-4,0.004 -10e-4,0.009 -0.002,0.014 0,0 0,0 0,0 -10e-4,0.004 -0.002,0.009 -0.003,0.014 0,0 -10e-4,0 -10e-4,0 -0.001,0.005 -0.001,0.009 -0.002,0.014 0,0 0,0 0,0 -0.001,0.005 -0.003,0.01 -0.004,0.015 0,0 0,0 0,0 -10e-4,0.004 -10e-4,0.009 -0.003,0.014 0,0 0,0 0,0 -10e-4,0.005 -0.003,0.01 -0.004,0.015 0,0 0,0 0,0 -10e-4,0.005 -0.002,0.01 -0.004,0.015 0,0 0,0 0,0 -0.001,0.005 -0.003,0.01 -0.004,0.015 0,0 0,0 0,0 -0.002,0.005 -0.002,0.01 -0.004,0.015 0,0 0,0 0,0 -10e-4,0.005 -0.003,0.01 -0.004,0.015 0,0 -0.001,0 -0.001,0 -10e-4,0.005 -0.002,0.011 -0.004,0.016 0,0 0,0 0,0 -0.002,0.005 -0.003,0.01 -0.005,0.015 0,0 0,0 0,0 -10e-4,0.005 -0.002,0.01 -0.004,0.015 0,0 0,0 0,0 -0.002,0.005 -0.003,0.011 -0.005,0.016 0,0 0,0 0,0 -0.002,0.005 -0.004,0.01 -0.005,0.016 0,0 -0.001,0 -0.001,0 -10e-4,0.005 -0.003,0.01 -0.005,0.015 0,0 0,0 0,0 -0.002,0.006 -0.003,0.011 -0.005,0.016 0,0 0,0 0,0 -0.002,0.006 -0.005,0.011 -0.006,0.017 0,0 -0.001,0 -0.001,0 -0.002,0.005 -0.003,0.01 -0.005,0.016 0,0 0,0 0,0 -0.002,0.005 -0.004,0.011 -0.006,0.016 0,0 0,0 0,0 -0.002,0.006 -0.003,0.01 -0.005,0.016 0,0 -0.001,0 -0.001,0 -0.002,0.005 -0.004,0.011 -0.006,0.016 0,0 0,0 0,0 -0.002,0.006 -0.004,0.011 -0.007,0.017 0,0 0,0 0,0 -0.002,0.005 -0.004,0.011 -0.006,0.016 0,0 -10e-4,0 -10e-4,0 -0.002,0.006 -0.003,0.011 -0.006,0.017 0,0 0,0 0,0 -0.002,0.005 -0.005,0.012 -0.007,0.017 0,0 0,0 0,0 -0.003,0.006 -0.005,0.011 -0.007,0.017 0,0 0,0 0,0 -0.002,0.005 -0.004,0.011 -0.007,0.016 0,0 0,0 0,0 -0.003,0.006 -0.005,0.011 -0.007,0.017 0,0 0,0 0,0 -0.003,0.005 -0.005,0.012 -0.007,0.017 0,0 -0.001,0 -0.001,0 -0.002,0.006 -0.005,0.011 -0.007,0.017 0,0 0,0 0,0 -0.003,0.005 -0.005,0.012 -0.008,0.017 0,0 0,0 0,0 -0.003,0.006 -0.005,0.011 -0.007,0.017 0,0 -10e-4,0 -10e-4,0 -0.002,0.005 -0.005,0.011 -0.008,0.017 0,0 0,0 0,0 -0.003,0.005 -0.005,0.011 -0.007,0.016 0,0 -10e-4,0 -10e-4,0 -0.002,0.006 -0.005,0.012 -0.008,0.018 0,0 0,0 0,0 -0.003,0.005 -0.005,0.01 -0.007,0.016 0,0 -0.001,0 -0.001,0 -0.002,0.006 -0.006,0.012 -0.008,0.017 0,0 -10e-4,0 -10e-4,0 -0.002,0.006 -0.005,0.012 -0.008,0.018 0,0 0,0 0,0 -0.003,0.005 -0.006,0.011 -0.008,0.017 0,0 -10e-4,0 -10e-4,0 -0.002,0.005 -0.005,0.011 -0.008,0.017 0,0 0,0 0,0 -0.003,0.006 -0.006,0.012 -0.009,0.017 0,0 0,0 0,0 -0.003,0.006 -0.006,0.012 -0.009,0.017 0,0 0,0 0,0 -0.003,0.006 -0.006,0.012 -0.009,0.017 0,0 0,0 0,0 -0.004,0.006 -0.006,0.012 -0.009,0.017 0,0 0,0 0,0 -0.003,0.006 -0.007,0.012 -0.01,0.017 0,0 0,0 0,0 -0.003,0.006 -0.006,0.012 -0.009,0.017 0,0 0,0 0,0 -0.003,0.006 -0.006,0.012 -0.01,0.018 0,0 0,0 0,0 -0.003,0.005 -0.006,0.011 -0.009,0.017 0,0 0,0 0,0 -0.003,0.005 -0.007,0.011 -0.01,0.017 0,0 0,0 0,0 -0.003,0.005 -0.006,0.011 -0.009,0.017 0,0 -0.001,0 -0.001,0 -0.003,0.005 -0.006,0.011 -0.009,0.017 0,0 -10e-4,0 -10e-4,0 -0.003,0.005 -0.005,0.01 -0.009,0.016 0,0 0,0 0,0 -0.003,0.006 -0.006,0.011 -0.01,0.017 0,0 0,0 0,0 -0.003,0.005 -0.006,0.011 -0.01,0.016 0,0 0,0 0,0 -0.003,0.005 -0.006,0.011 -0.01,0.016 0,0 0,0 0,0 -0.003,0.006 -0.006,0.011 -0.01,0.017 0,0 0,0 0,0 -0.003,0.005 -0.007,0.011 -0.01,0.016 0,0 0,0 0,0 -0.004,0.006 -0.007,0.011 -0.01,0.016 0,0 0,0 0,0 -0.004,0.006 -0.007,0.011 -0.01,0.017 0,0 0,0 0,0 -0.004,0.005 -0.007,0.01 -0.01,0.015 0,0 0,0 0,0 -0.004,0.005 -0.008,0.011 -0.011,0.017 0,0 0,0 0,0 -0.003,0.005 -0.007,0.01 -0.01,0.015 0,0 -10e-4,0 -10e-4,0 -0.003,0.005 -0.006,0.011 -0.01,0.017 0,0 0,0 0,0 -0.004,0.005 -0.007,0.01 -0.01,0.015 0,0 0,0 0,0 -0.004,0.005 -0.008,0.011 -0.011,0.016 0,0 0,0 0,0 -0.004,0.005 -0.007,0.01 -0.011,0.016 0,0 0,0 0,0 -0.003,0.005 -0.007,0.01 -0.01,0.015 0,0 -10e-4,0 -10e-4,0 -0.003,0.005 -0.006,0.011 -0.01,0.016 0,0 0,0 0,0 -0.004,0.005 -0.008,0.01 -0.012,0.015 0,0 0,0 0,0 -0.003,0.005 -0.006,0.011 -0.01,0.016 0,0 0,0 0,0 -0.004,0.005 -0.008,0.01 -0.011,0.015 0,0 -0.001,0 -0.001,0 -0.003,0.005 -0.007,0.011 -0.01,0.015 0,0 0,0 0,0 -0.004,0.005 -0.008,0.011 -0.012,0.016 0,0 0,0 0,0 -0.003,0.005 -0.007,0.01 -0.011,0.015 0,0 0,0 0,0 -0.004,0.005 -0.007,0.01 -0.011,0.015 0,0 -10e-4,0 -10e-4,0 -0.003,0.005 -0.006,0.01 -0.01,0.015 0,0 0,0 0,0 -0.004,0.004 -0.008,0.01 -0.011,0.014 0,0 -10e-4,0 -10e-4,0 -0.003,0.005 -0.007,0.01 -0.011,0.015 0,0 0,0 0,0 -0.004,0.005 -0.008,0.01 -0.011,0.015 0,0 -10e-4,0 -10e-4,0 -0.003,0.005 -0.007,0.009 -0.01,0.014 0,0 -0.001,0 -0.001,0 -0.004,0.005 -0.007,0.01 -0.011,0.015 0,0 0,0 0,0 -0.004,0.005 -0.008,0.009 -0.012,0.014 0,0 0,0 0,0 -0.004,0.005 -0.007,0.009 -0.011,0.014 0,0 0,0 0,0 -0.004,0.005 -0.008,0.009 -0.011,0.014 0,0 -0.001,0 -0.001,0 -0.004,0.004 -0.008,0.009 -0.012,0.014 0,0 0,0 0,0 -0.004,0.004 -0.007,0.009 -0.011,0.014 0,0 0,0 0,0 -0.004,0.004 -0.008,0.009 -0.012,0.013 0,0 0,0 0,0 -0.004,0.005 -0.008,0.009 -0.011,0.014 0,0 -10e-4,0 -10e-4,0 -0.004,0.004 -0.008,0.009 -0.012,0.013 0,0 0,0 0,0 -0.004,0.005 -0.007,0.009 -0.011,0.014 0,0 0,0 0,0 -0.004,0.004 -0.008,0.008 -0.012,0.013 0,0 0,0 -10e-4,0 -0.003,0.004 -0.007,0.008 -0.011,0.012 0,0 0,0 0,0 -0.004,0.005 -0.008,0.009 -0.012,0.013 0,0 0,0 0,0 -0.004,0.005 -0.008,0.009 -0.012,0.013 0,0 0,0 0,0 -0.004,0.004 -0.008,0.008 -0.012,0.012 0,0 0,0 0,0 -0.004,0.005 -0.007,0.009 -0.011,0.013 0,0 0,0 0,0 -0.005,0.004 -0.008,0.008 -0.012,0.012 0,0 -0.001,0 -0.001,0 -0.003,0.004 -0.007,0.008 -0.011,0.012 0,0 0,-0.001 0,0 -0.004,0.004 -0.008,0.008 -0.012,0.011 0,0 0,0 0,0 -0.004,0.004 -0.007,0.008 -0.011,0.012 0,0 -10e-4,0 -10e-4,0 -0.003,0.004 -0.008,0.008 -0.012,0.012 0,0 0,0 0,0 -0.004,0.003 -0.008,0.007 -0.012,0.011 0,0 0,0 0,0 -0.004,0.004 -0.008,0.008 -0.012,0.011 0,0 0,0 0,0 -0.004,0.004 -0.008,0.007 -0.011,0.011 0,0 -10e-4,0 -10e-4,0 -0.004,0.003 -0.007,0.007 -0.011,0.011 0,0 0,0 -10e-4,0 -0.003,0.003 -0.008,0.007 -0.012,0.01 0,0 0,0 0,0 -0.004,0.004 -0.008,0.007 -0.012,0.01 0,0 0,0 0,0 -0.004,0.004 -0.007,0.007 -0.011,0.01 0,0 0,0 0,0 -0.004,0.004 -0.008,0.008 -0.012,0.011 0,0 0,0 0,0 -0.004,0.003 -0.008,0.006 -0.012,0.009 0,0 0,0 0,0 -0.004,0.004 -0.008,0.007 -0.012,0.01 0,0 0,0 0,0 -0.004,0.003 -0.008,0.006 -0.011,0.009 0,0 0,0 -0.001,0 -0.003,0.003 -0.007,0.007 -0.011,0.009 0,0 0,0 -0.001,0 -0.003,0.003 -0.007,0.006 -0.011,0.009 0,0 0,0 0,0 -0.004,0.003 -0.008,0.006 -0.012,0.009 0,0 0,0 0,0 -0.004,0.002 -0.007,0.005 -0.011,0.008 l -10e-4,0 -0.034,0.016 c 0,0 -0.001,0 -0.001,0 -0.014,0.003 -0.029,0.006 -0.043,0.01 0,0 0,0 0,0 -0.014,0.003 -0.029,0.006 -0.043,0.009 0,0 0,0 0,0 -0.015,0.004 -0.029,0.007 -0.044,0.01 0,0 0,0 0,0 -0.014,0.003 -0.028,0.006 -0.043,0.009 0,0 0,0 0,0 -0.014,0.003 -0.029,0.006 -0.044,0.009 0,0 0,0 0,0 -0.015,0.003 -0.028,0.006 -0.043,0.009 0,0 0,0 0,0 -0.015,0.003 -0.03,0.006 -0.044,0.009 0,0 0,0 0,0 -0.015,0.003 -0.029,0.005 -0.044,0.008 0,0 0,0 0,0 -0.014,0.003 -0.029,0.006 -0.044,0.009 0,0 0,0 0,0 -0.015,0.002 -0.029,0.005 -0.044,0.008 0,0 0,0 0,0 -0.015,0.002 -0.03,0.005 -0.044,0.008 0,0 -10e-4,0 -10e-4,0 -0.014,0.002 -0.029,0.005 -0.043,0.007 0,0 -10e-4,0 -10e-4,0 -0.014,0.003 -0.029,0.005 -0.044,0.008 0,0 0,0 0,0 -0.015,0.002 -0.029,0.005 -0.044,0.007 0,0 0,0 0,0 -0.015,0.002 -0.03,0.004 -0.045,0.007 0,0 0,0 0,0 -0.015,0.002 -0.029,0.004 -0.044,0.006 0,0 0,0 0,0 -0.015,0.003 -0.03,0.005 -0.045,0.007 0,0 0,0 0,0 -0.015,0.002 -0.03,0.005 -0.045,0.007 0,0 0,0 0,0 -0.015,0.002 -0.03,0.004 -0.044,0.006 0,0 -10e-4,0 -10e-4,0 -0.015,0.002 -0.029,0.004 -0.044,0.006 0,0 0,0 0,0 -0.015,0.002 -0.031,0.004 -0.046,0.006 0,0 0,0 0,0 -0.015,0.002 -0.029,0.004 -0.044,0.006 0,0 0,0 0,0 -0.015,0.002 -0.031,0.003 -0.045,0.005 0,0 -10e-4,0 -10e-4,0 -0.015,0.002 -0.029,0.003 -0.044,0.005 0,0 0,0 0,0 -0.015,0.002 -0.031,0.004 -0.046,0.005 0,0 0,0 0,0 -0.015,0.002 -0.03,0.004 -0.045,0.006 0,0 0,0 0,0 -0.015,0.001 -0.03,0.003 -0.045,0.004 0,0 0,0 0,0 -0.015,0.002 -0.03,0.003 -0.045,0.005 0,0 0,0 0,0 -0.015,10e-4 -0.03,0.003 -0.045,0.004 0,0 0,0 0,0 -0.016,0.002 -0.03,0.003 -0.046,0.005 0,0 0,0 0,0 -0.015,10e-4 -0.03,0.002 -0.045,0.004 0,0 0,0 0,0 -0.015,0.001 -0.03,0.002 -0.045,0.004 0,0 0,0 0,0 -0.015,10e-4 -0.031,0.002 -0.046,0.004 0,0 0,0 0,0 -0.015,10e-4 -0.03,0.002 -0.045,0.003 0,0 -10e-4,0 -10e-4,0 -0.015,0.002 -0.03,0.003 -0.045,0.004 0,0 0,0 0,0 -0.015,10e-4 -0.03,0.002 -0.045,0.003 0,0 -10e-4,0 -10e-4,0 -0.015,10e-4 -0.03,0.002 -0.045,0.003 0,0 0,0 0,0 -0.016,10e-4 -0.03,0.002 -0.046,0.003 0,0 0,0 0,0 -0.015,0.001 -0.03,0.003 -0.045,0.003 0,0 0,0 0,0 -0.015,10e-4 -0.03,0.002 -0.045,0.003 0,0 0,0 0,0 -0.016,0 -0.032,0.002 -0.046,0.003 0,0 -0.001,0 -0.001,0 -0.015,0 -0.03,10e-4 -0.045,0.002 0,0 0,0 0,0 -0.015,10e-4 -0.03,10e-4 -0.045,0.002 0,0 0,0 0,0 -0.015,10e-4 -0.031,0.002 -0.045,0.002 0,0 -10e-4,0 -10e-4,0 -0.015,10e-4 -0.03,0.002 -0.045,0.002 0,0 0,0 0,0 -0.015,0.001 -0.03,0.001 -0.045,0.002 0,0 -10e-4,0 -10e-4,0 -0.015,0 -0.03,0.001 -0.045,0.001 0,0 0,0 0,0 -0.015,10e-4 -0.03,10e-4 -0.045,0.002 0,0 0,0 0,0 -0.015,0 -0.031,0.001 -0.046,0.001 0,0 0,0 0,0 -0.015,10e-4 -0.03,10e-4 -0.045,0.002 0,0 0,0 0,0 -0.015,0 -0.03,10e-4 -0.045,10e-4 0,0 -0.001,0 -0.001,0 -0.015,0.001 -0.03,0.001 -0.045,0.001 0,0 0,0 0,0 -0.015,0 -0.03,10e-4 -0.045,10e-4 0,0 0,0 0,0 -0.015,0 -0.03,10e-4 -0.045,10e-4 0,0 -10e-4,0 -10e-4,0 -0.014,0 -0.03,0 -0.045,0.001 0,0 0,0 0,0 -0.015,0 -0.03,0 -0.045,0 0,0 0,0 0,0 -0.015,0 -0.03,10e-4 -0.045,10e-4 0,0 0,0 0,0 -0.015,0 -0.03,0 -0.045,0 0,0 0,0 0,0 -0.015,0 -0.03,0 -0.045,0 0,0 0,0 0,0 -0.015,0 -0.03,0 -0.045,0 0,0 0,0 0,0 -0.015,0 -0.03,0 -0.045,0 0,0 0,0 0,0 -0.015,0 -0.03,0 -0.044,0 0,0 -10e-4,0 -10e-4,0 -0.014,-10e-4 -0.029,0 -0.044,-10e-4 0,0 0,0 0,0 -0.015,0 -0.029,0 -0.044,0 0,0 -10e-4,0 -10e-4,0 -0.014,-0.001 -0.03,0 -0.044,0 0,0 -0.001,0 -0.001,0 -0.014,-0.001 -0.029,-0.001 -0.044,-0.001 0,0 0,0 0,0 -0.015,0 -0.029,-10e-4 -0.044,-10e-4 0,0 0,0 0,0 -0.015,0 -0.03,0 -0.045,-10e-4 0,0 0,0 0,0 -0.014,0 -0.03,0 -0.044,0 0,0 0,0 0,0 -0.015,-0.001 -0.029,-0.001 -0.044,-0.001 0,0 0,0 0,0 -0.015,-10e-4 -0.029,-10e-4 -0.044,-10e-4 0,0 -10e-4,0 -10e-4,0 -0.014,-0.001 -0.028,-0.001 -0.043,-0.002 0,0 0,0 0,0 -0.015,0 -0.029,0 -0.044,-0.001 0,0 0,0 0,0 -0.015,0 -0.029,-10e-4 -0.043,-10e-4 0,0 -10e-4,0 -10e-4,0 -0.014,-10e-4 -0.029,-10e-4 -0.043,-0.002 0,0 0,0 0,0 -0.015,0 -0.029,-10e-4 -0.043,-10e-4 0,0 -10e-4,0 -10e-4,0 -0.014,-0.001 -0.029,-0.001 -0.043,-0.002 0,0 0,0 0,0 -0.015,0 -0.029,-10e-4 -0.043,-0.002 0,0 -10e-4,0 -10e-4,0 -0.014,0 -0.028,-10e-4 -0.042,-10e-4 0,0 -10e-4,0 -10e-4,0 -0.014,0 -0.028,-0.002 -0.042,-0.002 0,0 0,0 0,0 -0.015,-0.001 -0.029,-0.001 -0.043,-0.002 0,0 -10e-4,0 -10e-4,0 -0.014,0 -0.028,-10e-4 -0.042,-0.002 0,0 0,0 0,0 -0.015,-10e-4 -0.029,-10e-4 -0.043,-0.002 0,0 0,0 0,0 -0.014,-10e-4 -0.028,-10e-4 -0.042,-0.002 0,0 0,0 0,0 -0.014,-0.001 -0.029,-0.002 -0.043,-0.002 0,0 0,0 0,0 -0.014,-0.001 -0.028,-0.002 -0.042,-0.003 0,0 0,0 0,0 -0.014,0 -0.028,-10e-4 -0.042,-0.002 0,0 0,0 0,0 -0.014,0 -0.028,-0.002 -0.042,-0.003 0,0 0,0 0,0 -0.014,0 -0.028,-10e-4 -0.042,-0.002 0,0 0,0 0,0 -0.014,-0.001 -0.027,-0.002 -0.041,-0.002 0,0 0,0 0,0 -0.014,-0.001 -0.028,-0.002 -0.042,-0.003 0,0 0,0 0,0 -0.014,-10e-4 -0.027,-0.002 -0.041,-0.003 0,0 0,0 0,0 -0.014,-10e-4 -0.027,-0.002 -0.041,-0.003 0,0 0,0 0,0 -0.014,0 -0.027,-10e-4 -0.041,-0.002 0,0 0,0 0,0 -0.014,-10e-4 -0.027,-0.003 -0.041,-0.003 0,0 0,0 0,0 -0.013,-10e-4 -0.027,-0.002 -0.04,-0.003 0,0 0,0 0,0 -0.014,-0.001 -0.027,-0.002 -0.041,-0.003 0,0 0,0 0,0 -0.014,-10e-4 -0.027,-0.002 -0.04,-0.003 0,0 -10e-4,0 -10e-4,0 -0.013,-10e-4 -0.026,-0.002 -0.04,-0.003 0,0 0,0 0,0 -0.013,-10e-4 -0.026,-0.002 -0.039,-0.003 0,0 -10e-4,0 -10e-4,0 -0.013,-0.001 -0.026,-0.002 -0.039,-0.003 0,0 0,0 0,0 -0.013,-10e-4 -0.026,-0.002 -0.039,-0.003 0,0 -10e-4,0 -10e-4,0 -0.013,-10e-4 -0.026,-0.002 -0.039,-0.003 0,0 0,0 0,0 -0.013,-10e-4 -0.026,-0.003 -0.038,-0.004 0,0 -0.001,0 -0.001,0 -0.013,0 -0.026,-10e-4 -0.039,-0.002 0,0 0,0 0,0 -0.013,-10e-4 -0.026,-0.003 -0.039,-0.004 0,0 0,0 0,0 -0.013,-0.001 -0.025,-0.002 -0.038,-0.003 0,0 0,0 0,0 -0.013,-0.001 -0.025,-0.002 -0.038,-0.004 0,0 0,0 0,0 -0.013,-0.001 -0.025,-0.001 -0.038,-0.003 0,0 0,0 0,0 -0.013,-0.001 -0.026,-0.002 -0.038,-0.003 0,0 0,0 0,0 -0.013,-10e-4 -0.025,-0.003 -0.038,-0.004 0,0 0,0 0,0 -0.012,-0.001 -0.024,-0.002 -0.037,-0.003 0,0 0,0 0,0 -0.012,-0.002 -0.025,-0.002 -0.037,-0.004 0,0 0,0 0,0 -0.012,-0.001 -0.025,-0.002 -0.037,-0.003 0,0 0,0 0,0 -0.013,-0.001 -0.024,-0.003 -0.037,-0.004 0,0 0,0 0,0 -0.012,-0.001 -0.024,-0.002 -0.036,-0.003 0,0 0,0 0,0 -0.012,-0.001 -0.025,-0.003 -0.037,-0.004 0,0 0,0 0,0 -0.012,-10e-4 -0.024,-0.002 -0.035,-0.003 0,0 -10e-4,0 -10e-4,0 -0.011,-0.001 -0.023,-0.003 -0.035,-0.004 0,0 0,0 0,0 -0.012,-10e-4 -0.024,-0.002 -0.035,-0.003 0,0 -0.001,0 -0.001,0 -0.011,-0.001 -0.023,-0.003 -0.035,-0.004 0,0 0,0 0,0 -0.012,-10e-4 -0.023,-0.002 -0.035,-0.003 0,0 0,0 0,0 -0.011,-0.001 -0.023,-0.002 -0.035,-0.004 0,0 0,0 0,0 -0.011,-10e-4 -0.023,-0.002 -0.034,-0.003 0,0 0,0 0,0 -0.011,-0.002 -0.023,-0.003 -0.034,-0.004 0,0 0,0 0,0 -0.011,-10e-4 -0.023,-0.002 -0.034,-0.003 0,0 0,0 0,0 -0.011,-10e-4 -0.022,-0.002 -0.033,-0.004 0,0 -0.001,0 -0.001,0 -0.01,-10e-4 -0.021,-0.002 -0.032,-0.004 l 0,0 -0.188,-0.02 z"
           id="path38"
           inkscape:connector-curvature="0" />
        <path
           style="fill:#000000;stroke:none"
           d="m 265.913,433.162 c -1.629,0.209 -3.182,0.693 -4.646,1.15 -3.871,1.206 -7.136,2.224 -9.661,-2.424 -0.031,-0.058 0.05,-0.125 0.106,-0.088 3.722,2.455 7.75,1.205 11.352,0.087 3.098,-0.962 5.885,-1.827 7.93,-0.184 0.028,0.022 0.032,0.07 0.008,0.097 -0.089,0.098 -0.764,0.242 -1.615,0.422 -1.218,0.259 -2.803,0.596 -3.449,0.933 -10e-4,0.001 -0.023,0.007 -0.025,0.007 z"
           id="path40"
           inkscape:connector-curvature="0" />
        <path
           style="fill:#000000;stroke:none"
           d="m 231.186,520.639 5.746,-71.161 c -1.572,0.057 -3.143,-0.012 -4.664,-0.078 -0.027,-10e-4 -0.056,-0.003 -0.082,-0.004 -1.664,-0.074 -2.909,-2.08 -2.188,-3.538 0.736,-1.486 1.568,-3.01 2.533,-4.406 1.02,-1.475 2.197,-2.839 3.578,-3.934 0.611,-0.485 1.238,-0.808 1.869,-0.994 l 0.103,-1.277 -27.864,-0.129 0.381,5.264 c 2.696,1.222 5.043,3.134 7.255,4.937 l -0.003,0.005 c 0.073,0.059 0.144,0.117 0.213,0.172 l 0.003,-0.004 -0.003,0.004 c 0.039,0.032 0.079,0.063 0.118,0.095 1.209,1.106 1.081,3.089 -0.287,3.727 -0.129,0.06 -0.261,0.121 -0.391,0.182 -0.289,0.135 -0.581,0.27 -0.875,0.405 -0.324,-0.261 -0.725,-0.585 -1.215,-0.98 l -0.004,0.006 c 0.117,0.093 0.668,0.537 1.215,0.977 -0.209,0.096 -0.42,0.193 -0.632,0.289 0.035,0.016 0.07,0.031 0.104,0.047 0.458,0.207 0.828,0.377 1.13,0.52 0.484,0.228 0.83,0.394 1.068,0.51 l 0.011,0.005 c 1.602,0.781 1.985,3.022 0.664,3.968 -0.701,0.502 -1.422,1.012 -2.136,1.503 1.44,0.559 2.18,2.468 1.3,3.636 -0.72,0.956 -2.269,2.856 -3.966,4.305 -0.343,0.292 -0.698,0.573 -1.061,0.829 -0.218,0.154 -0.436,0.3 -0.655,0.433 l 0.016,0.227 0,0 0,0.002 0,10e-4 0.005,0.055 0,0 0.084,1.164 c 0.897,15.846 2.732,37.047 4.096,54.383 0.749,-0.061 1.605,10e-4 2.576,0.222 3.415,0.776 9.066,-1.776 11.958,-1.368 z m -13.12,-75.147 c 0.04,0.033 0.077,0.064 0.115,0.099 5.255,4.237 -0.398,-0.329 -0.115,-0.099 z m -7.092,0.078 0.111,1.53 c 0.437,-0.171 0.875,-0.355 1.315,-0.545 -0.472,-0.348 -0.947,-0.678 -1.426,-0.985 z m 0.546,7.53 0.093,1.29 c 0.352,-0.218 0.704,-0.445 1.059,-0.677 0.049,-0.031 0.097,-0.065 0.145,-0.097 -0.434,-0.18 -0.866,-0.351 -1.297,-0.516 z m 5.108,-3.195 c -10e-4,0.002 -0.002,0.002 -0.004,0.003 1.043,0.838 2.062,1.657 0.004,-0.003 z m 20.685,-5.135 0.149,-1.854 c -0.404,0.468 -0.783,0.966 -1.141,1.484 -0.1,0.144 -0.199,0.289 -0.295,0.436 0.433,-0.012 0.862,-0.032 1.287,-0.066 z"
           id="path42"
           inkscape:connector-curvature="0" />
        <path
           style="fill:#000000;stroke:none"
           d="m 239.582,350.054 c -4.767,-1.016 -10.611,-1.321 -16.257,-1.124 -5.647,0.197 -11.455,0.91 -16.139,2.255 -6.947,-4.114 -7.833,-12.042 -0.681,-15.447 5.305,-1.078 10.946,-1.904 16.286,-2.09 5.34,-0.187 11.025,0.244 16.393,0.949 7.372,2.898 7.04,10.869 0.398,15.457 z"
           id="path44"
           inkscape:connector-curvature="0" />
        <path
           style="fill:#000000;stroke:none"
           d="m 286.613,349.246 c -5.525,0 -11.415,0.664 -16.007,2.071 0.004,0.185 0.011,3.935 0.015,7.588 5.35,-0.149 10.682,-0.22 15.992,-0.22 5.309,0 10.642,0.071 15.991,0.221 0.005,-3.653 0.011,-7.404 0.015,-7.589 -4.59,-1.407 -10.482,-2.071 -16.006,-2.071 z"
           id="path46"
           inkscape:connector-curvature="0" />
        <path
           style="fill:#000000;stroke:none"
           d="m 223.438,352.178 c -5.521,0.192 -11.384,1.062 -15.924,2.628 0.021,0.375 0.204,5.075 0.373,9.551 10.555,-1.641 21.189,-2.884 31.85,-3.781 -0.111,-3.276 -0.226,-6.607 -0.23,-6.887 -4.636,-1.246 -10.548,-1.704 -16.069,-1.511 z"
           id="path48"
           inkscape:connector-curvature="0" />
        <g
           id="g50">
          <path
             style="fill:#cccccc;stroke:none"
             d="m 173.543,560.846 c 78.887,-17.685 163.97,-13.504 226.278,0 l -3.84,21.987 c 4.444,0.814 9.086,1.753 13.798,2.83 l -6.36,30.447 c -8.275,-2.156 -33.612,-6.636 -42.906,-7.125 l 31.038,-8.393 0,-0.528 c -61.014,-12.775 -137.937,-16.027 -210.66,0.188 l 0,0.34 31.239,8.384 c -9.123,0.433 -34.771,4.962 -43.108,7.134 l -6.359,-30.447 c 5.029,-1.149 9.976,-2.141 14.691,-2.992 l -3.811,-21.825 z m 19.019,26.027 -8.632,-15.068 3.515,-0.632 6.689,11.657 2.222,-13.259 2.37,-0.426 -2.86,17.134 -3.304,0.594 z m 11.175,-2.13 -2.234,-16.208 3.307,-0.474 2.234,16.208 -3.307,0.474 z m 7.369,-1.324 -1.957,-16.245 5.965,-0.747 c 1.22,-0.153 2.169,-0.111 2.845,0.119 0.674,0.232 1.238,0.64 1.681,1.228 0.448,0.586 0.717,1.275 0.813,2.073 0.115,0.952 -0.045,1.885 -0.483,2.799 -0.435,0.91 -1.118,1.653 -2.049,2.223 l 6.128,6.93 -4.039,0.506 -4.761,-6.143 -1.819,0.227 0.8,6.639 -3.124,0.391 z m 2.056,-9.259 0.76,-0.095 c 1.367,-0.171 2.275,-0.593 2.72,-1.265 0.445,-0.672 0.623,-1.394 0.531,-2.162 -0.081,-0.667 -0.357,-1.169 -0.827,-1.505 -0.47,-0.341 -1.353,-0.428 -2.654,-0.265 l -1.15,0.144 0.62,5.148 z m 17.023,6.938 -1.208,-14.068 -5.727,0.511 -0.192,-2.237 14.793,-1.32 0.193,2.238 -5.728,0.511 1.207,14.067 -3.338,0.298 z m 10.117,-17.288 3.331,-0.237 0.686,10.005 c 0.124,1.807 0.509,2.983 1.152,3.531 0.642,0.545 1.442,0.783 2.402,0.715 0.945,-0.068 1.679,-0.411 2.197,-1.031 0.518,-0.624 0.722,-1.762 0.608,-3.427 l -0.703,-10.245 2.899,-0.207 0.688,10.027 c 0.13,1.891 -0.01,3.263 -0.42,4.113 -0.409,0.854 -1.036,1.55 -1.883,2.083 -0.851,0.534 -1.946,0.847 -3.294,0.943 -1.33,0.095 -2.483,-0.043 -3.466,-0.411 -0.983,-0.373 -1.78,-0.967 -2.394,-1.794 -0.617,-0.822 -0.988,-2.181 -1.118,-4.071 l -0.685,-9.994 z m 16.706,14.919 -0.096,-2.806 c 1.269,0.483 2.216,0.767 2.837,0.847 0.622,0.08 1.193,0.112 1.711,0.094 0.94,-0.034 1.628,-0.273 2.076,-0.716 0.448,-0.443 0.66,-0.964 0.639,-1.56 -0.015,-0.457 -0.158,-0.863 -0.43,-1.224 -0.268,-0.353 -0.917,-0.798 -1.943,-1.336 l -1.101,-0.569 c -1.577,-0.82 -2.652,-1.594 -3.221,-2.317 -0.581,-0.723 -0.888,-1.578 -0.921,-2.558 -0.043,-1.23 0.384,-2.299 1.275,-3.207 0.895,-0.912 2.205,-1.397 3.937,-1.459 1.291,-0.046 2.752,0.091 4.385,0.407 l 0.09,2.618 c -1.679,-0.563 -3.007,-0.83 -3.98,-0.795 -0.807,0.029 -1.415,0.228 -1.825,0.601 -0.409,0.373 -0.605,0.807 -0.588,1.309 0.013,0.385 0.155,0.735 0.421,1.058 0.259,0.323 0.904,0.753 1.93,1.291 l 1.181,0.611 c 1.807,0.948 2.965,1.783 3.479,2.509 0.507,0.738 0.776,1.57 0.808,2.505 0.047,1.343 -0.414,2.504 -1.384,3.491 -0.97,0.986 -2.549,1.518 -4.736,1.596 -1.295,0.046 -2.811,-0.085 -4.544,-0.39 z m 20.691,-0.532 -0.28,-16.365 3.339,-0.059 0.28,16.364 -3.339,0.06 z m 7.365,0.036 0,-16.368 4.417,0 3.873,11.514 3.983,-11.514 3.881,0 0,16.368 -3.081,0 0,-12.351 -3.917,11.256 -2.688,0 -3.843,-11.422 0,12.517 -2.625,0 z m 20.162,0.298 0.561,-16.358 5.517,0.197 c 1.605,0.057 2.728,0.267 3.368,0.633 0.639,0.367 1.115,0.871 1.426,1.509 0.308,0.638 0.447,1.433 0.415,2.383 -0.063,1.826 -0.676,3.198 -1.838,4.116 -1.165,0.918 -2.695,1.343 -4.593,1.275 l -1.362,-0.048 -0.219,6.409 -3.275,-0.116 z m 3.571,-8.538 0.629,0.023 c 1.225,0.043 2.138,-0.226 2.736,-0.806 0.594,-0.579 0.907,-1.274 0.935,-2.085 0.015,-0.457 -0.063,-0.875 -0.232,-1.251 -0.168,-0.38 -0.435,-0.68 -0.809,-0.909 -0.374,-0.228 -0.977,-0.356 -1.817,-0.386 l -1.255,-0.044 -0.187,5.458 z m 8.297,9.159 7.074,-16.012 3.346,0.179 5.394,16.678 -3.428,-0.183 -1.44,-4.45 -6.629,-0.355 -1.888,4.273 -2.429,-0.13 z m 5.257,-6.273 4.973,0.265 -2.15,-6.65 -2.823,6.385 z m 16.812,7.717 -4.513,-16.833 3.556,0.318 3.502,13.025 5.512,-12.221 2.397,0.214 -7.112,15.795 -3.342,-0.298 z m 11.335,1.474 1.678,-16.277 3.321,0.356 -1.678,16.277 -3.321,-0.356 z m 7.356,0.75 2.234,-16.207 6.841,0.98 c 1.834,0.263 3.219,0.766 4.155,1.51 0.941,0.745 1.63,1.743 2.074,2.996 0.445,1.249 0.555,2.702 0.327,4.35 -0.222,1.615 -0.711,3.017 -1.461,4.201 -0.751,1.189 -1.729,2.074 -2.934,2.652 -1.205,0.578 -2.767,0.732 -4.684,0.457 l -6.552,-0.939 z m 3.624,-1.824 2.471,0.354 c 1.287,0.184 2.301,0.12 3.043,-0.19 0.742,-0.309 1.376,-0.923 1.907,-1.842 0.534,-0.918 0.882,-1.978 1.047,-3.174 0.157,-1.144 0.103,-2.188 -0.16,-3.125 -0.267,-0.942 -0.709,-1.688 -1.329,-2.242 -0.622,-0.554 -1.746,-0.947 -3.37,-1.18 l -1.998,-0.286 -1.611,11.685 z m 12.028,4.297 8.677,-15.17 3.309,0.534 3.654,17.162 -3.389,-0.547 -0.976,-4.58 -6.557,-1.059 -2.316,4.048 -2.402,-0.388 z m 5.871,-5.679 4.919,0.794 -1.456,-6.842 -3.463,6.048 z"
             id="path52"
             inkscape:connector-curvature="0" />
          <path
             style="fill:#cccccc;stroke:none"
             d="m 286.548,328.299 c -5.604,0.038 -23.452,-3.203 -23.547,-14.905 -0.036,-4.449 3.728,-8.629 5.967,-12.463 13.81,-18.327 21.603,-26.726 11.831,-43.826 3.037,0.527 7.674,4.736 10.072,7.819 4.237,7.216 4.637,14.733 1.919,23.078 -2.863,6.946 -12.237,15.624 -9.292,23.593 2.752,7.448 12.364,8.039 9.24,0.214 -1.614,-4.038 -3.609,-4.437 -2.349,-9.1 2.028,-7.509 11.795,-17.018 7.517,-26.059 9.846,5.561 3.803,20.724 4.733,23.371 0.517,2.199 8.123,8.89 7.556,13.425 -1.391,11.117 -14.43,15.36 -23.647,14.853 z"
             id="path54"
             inkscape:connector-curvature="0" />
          <path
             style="fill:#cccccc;stroke:none"
             d="m 223.728,331.2 c -5.603,0.038 -23.452,-3.203 -23.547,-14.905 -0.036,-4.449 3.729,-8.629 5.967,-12.463 13.81,-18.327 21.604,-26.726 11.831,-43.826 3.038,0.526 7.674,4.736 10.072,7.818 4.237,7.217 4.637,14.734 1.919,23.079 -2.863,6.946 -12.236,15.624 -9.292,23.593 2.752,7.448 12.365,8.039 9.24,0.214 -1.613,-4.039 -3.608,-4.437 -2.349,-9.1 2.028,-7.509 11.796,-17.018 7.517,-26.059 9.847,5.561 3.804,20.724 4.733,23.37 0.518,2.2 8.123,8.89 7.556,13.426 -1.39,11.117 -14.429,15.36 -23.647,14.853 z"
             id="path56"
             inkscape:connector-curvature="0" />
          <path
             style="fill:#cccccc;stroke:none"
             d="m 349.367,331.2 c -5.604,0.038 -23.452,-3.203 -23.547,-14.905 -0.036,-4.449 3.729,-8.629 5.967,-12.463 13.81,-18.327 21.603,-26.726 11.831,-43.826 3.038,0.526 7.674,4.736 10.072,7.818 4.237,7.217 4.637,14.734 1.919,23.079 -2.863,6.946 -12.237,15.624 -9.292,23.593 2.752,7.448 12.364,8.039 9.24,0.214 -1.613,-4.039 -3.609,-4.437 -2.349,-9.1 2.028,-7.509 11.796,-17.018 7.517,-26.059 9.847,5.561 3.804,20.724 4.733,23.37 0.518,2.2 8.123,8.89 7.556,13.426 -1.39,11.117 -14.429,15.36 -23.647,14.853 z"
             id="path58"
             inkscape:connector-curvature="0" />
        </g>
        <path
           style="fill:#000000;stroke:none"
           d="m 333.644,350.054 c 4.767,-1.016 10.611,-1.321 16.257,-1.124 5.647,0.197 11.455,0.91 16.139,2.255 6.946,-4.114 7.833,-12.042 0.681,-15.447 -5.305,-1.078 -10.946,-1.904 -16.286,-2.09 -5.341,-0.187 -11.025,0.244 -16.393,0.949 -7.372,2.898 -7.04,10.869 -0.398,15.457 z"
           id="path60"
           inkscape:connector-curvature="0" />
        <path
           style="fill:#000000;stroke:none"
           d="m 349.788,352.178 c 5.521,0.192 11.384,1.062 15.924,2.628 -0.02,0.366 -0.195,4.836 -0.36,9.205 -10.556,-1.642 -21.19,-2.885 -31.851,-3.782 0.108,-3.16 0.214,-6.27 0.218,-6.54 4.636,-1.246 10.547,-1.704 16.069,-1.511 z"
           id="path62"
           inkscape:connector-curvature="0" />
        <path
           style="fill:#000000;stroke:none"
           d="m 286.614,621.112 -0.002,-0.003 -0.002,0.003 -0.164,-0.259 c -5.129,-7.939 -5.698,-15.477 -6.238,-22.621 -0.016,-0.204 -0.03,-1.534 -0.044,-3.287 4.318,-0.04 8.617,-0.024 12.895,0.041 -0.014,1.733 -0.028,3.044 -0.043,3.246 -0.539,7.144 -1.109,14.682 -6.237,22.621 l -0.165,0.259 z"
           id="path64"
           inkscape:connector-curvature="0" />
        <path
           style="fill:#000000;stroke:none"
           d="m 232.387,624.201 -0.003,-0.003 -10e-4,0.004 -0.174,-0.254 c -5.402,-7.756 -6.234,-15.268 -7.023,-22.39 -0.022,-0.197 -0.079,-1.454 -0.152,-3.131 4.288,-0.512 8.575,-0.965 12.86,-1.361 0.058,2.117 0.101,3.813 0.092,4.045 -0.29,7.159 -0.596,14.712 -5.444,22.825 l -0.155,0.265 z"
           id="path66"
           inkscape:connector-curvature="0" />
        <path
           style="fill:#000000;stroke:none"
           d="m 340.839,624.202 -0.002,-0.004 -0.002,0.003 -0.155,-0.265 c -4.849,-8.113 -5.155,-15.666 -5.445,-22.825 -0.009,-0.224 0.032,-1.805 0.086,-3.813 4.327,0.408 8.613,0.866 12.855,1.37 -0.068,1.555 -0.12,2.703 -0.141,2.89 -0.788,7.122 -1.62,14.634 -7.022,22.39 l -0.174,0.254 z"
           id="path68"
           inkscape:connector-curvature="0" />
      </g>
    </g>
  </g>
  <g
     id="g70"
     transform="translate(-162.47501,-521.80202)" />
  <path
     style="fill:#800000;fill-opacity:0.96470588;stroke:#8b0000;stroke-width:0;stroke-miterlimit:4;stroke-opacity:1;stroke-dasharray:none"
     d="m 31.518002,20.594534 c -4.246982,-0.745551 -6.397152,-2.84218 -5.312633,-5.180349 0.409279,-0.882389 1.218631,-2.031909 2.8842,-4.09643 2.470991,-3.0628614 3.177007,-4.2609425 3.45906,-5.8698753 0.182969,-1.043701 -0.01586,-2.1355511 -0.618409,-3.3957759 -0.261644,-0.5472323 -0.51151,-1.07138506 -0.555258,-1.16478511 -0.114273,-0.2439526 0.437126,-0.0748187 1.101023,0.33772511 2.109698,1.3109601 3.096404,3.0420306 3.09297,5.4262913 -0.0025,1.7574457 -0.307192,2.694504 -1.406292,4.3254239 -2.031909,3.015077 -2.366744,4.062748 -1.690346,5.288981 0.408381,0.740347 1.158108,1.270573 1.796558,1.270573 0.963934,0 1.09849,-0.677827 0.384393,-1.936395 -0.766601,-1.351103 -0.712172,-1.694274 0.67207,-4.237381 1.379948,-2.5352209 1.665305,-3.4560994 1.384646,-4.4684234 -0.103013,-0.3715676 -0.156749,-0.6755745 -0.11941,-0.6755745 0.282508,0 1.063414,0.772341 1.337992,1.3233123 0.448037,0.8990371 0.521828,1.7642389 0.311841,3.6562386 l -0.176896,1.593849 0.899841,1.110236 c 1.512345,1.865958 1.686265,2.502443 1.046723,3.830633 -0.560167,1.163348 -2.097379,2.217582 -3.924587,2.691521 -1.183961,0.307093 -3.331785,0.387133 -4.567486,0.170205 l 0,0 z"
     id="path3061"
     inkscape:connector-curvature="0" />
  <path
     style="fill:#800000;fill-opacity:0.96470588;stroke:#8b0000;stroke-width:0;stroke-miterlimit:4;stroke-opacity:1;stroke-dasharray:none"
     d="m 50.181317,19.709381 c -2.493002,-0.497249 -4.207569,-1.462793 -4.85268,-2.732738 -0.774487,-1.524635 -0.300653,-2.594509 2.911584,-6.574116 1.474766,-1.8270707 2.14481,-2.7542353 2.642553,-3.6565857 1.057298,-1.9167567 1.03623,-3.8964234 -0.06275,-5.89640974 C 50.353307,1.7963209e-4 50.353275,-1.9023493e-5 50.681308,-1.9023493e-5 c 0.566605,0 2.699762,1.727093823493 3.169894,2.566477523493 0.990987,1.7693188 1.031328,4.825117 0.08617,6.5270845 -0.153976,0.2772664 -0.700555,1.120896 -1.214623,1.874727 -0.514071,0.75383 -1.058493,1.674634 -1.209841,2.046234 -0.511013,1.254716 -0.288745,2.382232 0.626269,3.176907 0.943607,0.819508 2.076998,0.684698 2.076998,-0.247035 0,-0.132117 -0.22766,-0.653492 -0.505912,-1.158609 -0.768776,-1.395584 -0.72432,-1.670303 0.690431,-4.266767 0.636517,-1.1681803 1.220589,-2.3478326 1.297934,-2.6214523 0.177474,-0.62778 0.182568,-1.6895231 0.01011,-2.1062138 -0.213676,-0.5163059 0.169389,-0.3973147 0.783185,0.243275 0.381313,0.3979568 0.607996,0.7972084 0.775612,1.3660551 0.240625,0.8166234 0.239979,0.9299139 -0.02093,3.696601 l -0.09062,0.961035 0.82043,0.974285 c 1.096096,1.301638 1.437205,1.927477 1.432856,2.628863 -0.0077,1.246092 -1.164395,2.688484 -2.746537,3.425003 -1.655937,0.770869 -4.4118,1.035737 -6.481423,0.62293 l 0,0 z"
     id="path3063"
     inkscape:connector-curvature="0" />
  <path
     style="fill:#800000;fill-opacity:0.96470588;stroke:#8b0000;stroke-width:0;stroke-miterlimit:4;stroke-opacity:1;stroke-dasharray:none"
     d="m 69.696124,20.594534 c -3.601285,-0.6322 -5.602456,-2.079782 -5.593992,-4.046518 0.0047,-1.089243 0.544029,-2.001885 2.980649,-5.043702 1.728098,-2.157322 2.315384,-2.9648072 2.804112,-3.8555079 1.126477,-2.0529742 1.128942,-3.9072785 0.0079,-5.999065 -0.231094,-0.4312352 -0.384867,-0.8164922 -0.34172,-0.85613108 0.162082,-0.14889236 1.45859,0.63037318 2.272499,1.36588478 1.312865,1.1864031 1.882808,2.5473818 1.882124,4.4943413 -7.1e-4,1.9535364 -0.332174,2.8300899 -1.958446,5.1787699 -1.037539,1.498424 -1.430101,2.391029 -1.441633,3.27797 -0.01643,1.26341 1.023757,2.425737 2.170837,2.425737 0.412675,0 0.826698,-0.366293 0.826698,-0.731397 0,-0.09821 -0.251665,-0.680463 -0.559258,-1.293893 -0.556246,-1.109314 -0.558346,-1.119077 -0.389833,-1.810827 0.09318,-0.382519 0.612866,-1.480818 1.154849,-2.440658 1.352039,-2.3944525 1.69169,-3.6193167 1.279671,-4.6148543 -0.189074,-0.4568581 -0.08777,-0.5029782 0.401625,-0.1828411 1.102879,0.721439 1.512372,2.24451 1.212026,4.5080274 -0.10622,0.800521 -0.152024,1.596676 -0.101789,1.769233 0.05024,0.172561 0.471658,0.776847 0.936501,1.342855 1.407961,1.714405 1.554444,2.384928 0.820299,3.754889 -0.660959,1.233392 -2.039257,2.151493 -3.947929,2.629756 -1.069576,0.268011 -3.256387,0.331372 -4.415269,0.127931 l 0,0 z"
     id="path3065"
     inkscape:connector-curvature="0" />
  <path
     style="fill:#800000;fill-opacity:0.96470588;stroke:#8b0000;stroke-width:0;stroke-miterlimit:4;stroke-opacity:1;stroke-dasharray:none"
     d="m 16.4442,100.20137 c 0,-0.0322 -0.426458,-1.9403 -0.947684,-4.240242 -0.521226,-2.299945 -0.947684,-4.228598 -0.947684,-4.285898 0,-0.0573 0.995554,-0.285572 2.212339,-0.507278 2.082639,-0.37947 2.209289,-0.418744 2.16028,-0.669901 -0.859663,-4.405601 -1.081549,-5.748221 -0.96126,-5.816516 0.337966,-0.191882 7.457123,-1.39133 10.939284,-1.843063 7.534163,-0.977398 14.088545,-1.372169 22.812107,-1.373976 10.300704,-0.0022 18.197195,0.552057 27.529275,1.93208 2.509049,0.371036 6.910206,1.147883 7.209084,1.272475 0.192245,0.08014 0.154029,0.413163 -0.352834,3.074778 -0.312634,1.6417 -0.521052,3.013476 -0.463151,3.048393 0.0579,0.03492 0.993434,0.226462 2.078969,0.425652 1.085536,0.199193 1.97309,0.394492 1.972345,0.434 -7.09e-4,0.03951 -0.427201,1.940217 -0.947686,4.223801 -0.520478,2.283581 -0.946324,4.206445 -0.946324,4.273015 0,0.0666 -0.08139,0.0924 -0.180869,0.0573 -0.840703,-0.296365 -8.062259,-1.46514 -11.027205,-1.784703 -1.063864,-0.114663 -1.886323,-0.249888 -1.827674,-0.300502 0.05865,-0.05062 2.056153,-0.573983 4.438903,-1.163044 2.382746,-0.589058 4.423648,-1.106043 4.535338,-1.14885 0.500421,-0.191791 -7.799828,-1.496574 -13.267571,-2.085638 -5.923047,-0.638116 -9.517266,-0.832291 -16.754338,-0.905137 -9.275446,-0.09337 -15.214663,0.221143 -22.913003,1.213343 -3.649953,0.470426 -9.980103,1.5398 -10.188273,1.721142 -0.05622,0.04897 1.923767,0.583943 4.399961,1.188832 2.476193,0.604884 4.552459,1.140516 4.613921,1.190288 0.06146,0.04978 -0.364992,0.129306 -0.947682,0.176738 -2.617374,0.21306 -10.278948,1.418473 -11.991647,1.886681 -0.130306,0.0356 -0.236921,0.0384 -0.236921,0.006 l 0,0 z m 66.744018,-8.185698 c 0,-0.07883 -0.22503,-1.115877 -0.500076,-2.304544 -0.456067,-1.971025 -0.527523,-2.167544 -0.811998,-2.233135 -0.171557,-0.03955 -0.393082,-0.0433 -0.492286,-0.0083 -0.0992,0.03497 -0.658171,0.838539 -1.242147,1.785702 -0.583977,0.947167 -1.149641,1.848045 -1.257029,2.001956 -0.182898,0.262124 -0.174813,0.279832 0.127757,0.279832 0.243218,0 0.405137,-0.138108 0.655478,-0.559103 0.216961,-0.364863 0.404119,-0.540854 0.538708,-0.50657 0.113429,0.02889 0.480388,0.0887 0.81546,0.13289 1.010586,0.133297 1.048752,0.158559 1.217865,0.806166 0.150106,0.574803 0.273354,0.690936 0.779042,0.734047 0.09308,0.008 0.169226,-0.05007 0.169226,-0.128904 l 0,0 z M 24.577014,91.69028 c 0.08176,-0.0865 0.810396,-4.024217 0.805042,-4.350658 -0.0015,-0.08551 -0.115747,-0.155462 -0.254097,-0.155462 -0.218935,0 -0.291562,0.229781 -0.560179,1.772287 -0.169749,0.974761 -0.348967,1.814251 -0.398263,1.86554 -0.0493,0.05129 -0.540494,-0.634306 -1.091545,-1.523545 -0.551052,-0.889239 -1.065863,-1.611221 -1.144022,-1.604402 -0.07816,0.0068 -0.275072,0.0488 -0.437587,0.09328 -0.280397,0.07675 -0.232012,0.184257 0.947682,2.105563 1.224508,1.994292 1.2492,2.023658 1.645087,1.956511 0.221055,-0.03749 0.440604,-0.109091 0.487882,-0.159114 l 0,0 z m 3.311655,-0.557337 c 0.03507,-0.08551 -0.07532,-1.078919 -0.245317,-2.20759 l -0.309081,-2.052121 -0.384617,0.02549 c -0.211539,0.014 -0.405357,0.04454 -0.430708,0.06783 -0.04236,0.03891 0.374144,2.979261 0.554939,3.917659 0.06328,0.328449 0.140954,0.404207 0.414448,0.404207 0.185115,0 0.365266,-0.06996 0.400336,-0.155466 z m 49.394512,-0.281257 c 0.237167,-0.103387 0.590057,-0.413029 0.784207,-0.688094 0.894702,-1.267599 0.458167,-2.952514 -0.863747,-3.333867 -0.497192,-0.143431 -2.546963,-0.435283 -2.604375,-0.370819 -0.07721,0.08669 -0.63866,4.22931 -0.580443,4.282788 0.121492,0.111615 1.265702,0.270996 2.041307,0.284342 0.456273,0.0079 0.974579,-0.06603 1.223051,-0.17435 l 0,0 z M 30.093159,89.951418 c -0.03997,-0.897467 -0.02344,-0.966433 0.239708,-1.000974 0.212965,-0.02795 0.462253,0.179948 1.011282,0.843384 0.682412,0.824615 0.754675,0.875369 1.138892,0.799887 0.225633,-0.04432 0.432693,-0.09934 0.460129,-0.122255 0.02744,-0.02293 -0.329965,-0.434296 -0.794224,-0.91418 l -0.844105,-0.872515 0.354224,-0.386731 c 0.485528,-0.530082 0.487846,-1.251174 0.0054,-1.694334 -0.331394,-0.304437 -0.397201,-0.316154 -1.319987,-0.235007 -1.450516,0.127549 -1.61282,0.17932 -1.533999,0.489313 0.03692,0.145182 0.172704,1.117464 0.301752,2.160627 l 0.23463,1.896661 0.39459,0 0.394585,0 -0.04292,-0.963876 2e-6,0 z m 42.715756,-1.408603 c 0.125869,-1.168053 0.194047,-2.175459 0.151521,-2.238679 -0.04253,-0.06322 -0.223286,-0.114948 -0.401668,-0.114948 -0.260441,0 -0.338952,0.07963 -0.398531,0.404209 -0.148917,0.811203 -0.450863,3.889205 -0.390419,3.979877 0.0342,0.0513 0.230491,0.09328 0.436213,0.09328 l 0.374033,0 0.228851,-2.123738 0,0 z m -36.791751,1.470787 c -0.03453,-0.153906 -0.09815,-0.755552 -0.141369,-1.33699 -0.04322,-0.581433 -0.113838,-1.345904 -0.156928,-1.698819 l -0.07835,-0.641666 0.894058,-0.08796 c 0.751479,-0.07393 0.894057,-0.125315 0.894057,-0.322209 0,-0.161214 -0.09498,-0.232997 -0.304612,-0.230217 -0.63359,0.0084 -4.038059,0.337176 -4.10227,0.396164 -0.03693,0.03392 -0.03351,0.1422 0.0076,0.240613 0.05735,0.1373 0.273822,0.167289 0.930352,0.128886 l 0.855611,-0.05005 0.09178,1.163721 c 0.05048,0.640046 0.129045,1.513516 0.174596,1.941042 l 0.08282,0.777318 0.457726,0 c 0.403027,0 0.450222,-0.03344 0.394937,-0.279834 l 5e-6,0 z M 70.20261,88.079033 c 0.976584,-1.989556 1.029079,-2.138587 0.753317,-2.138587 -0.250377,0 -0.422083,0.260794 -1.105476,1.679011 -0.444982,0.923456 -0.845241,1.679013 -0.889463,1.679013 -0.04423,0 -0.314692,-0.80662 -0.601036,-1.792488 l -0.520634,-1.792486 -0.457507,-0.04907 c -0.405623,-0.0435 -0.449497,-0.02005 -0.386871,0.206757 1.04209,3.774154 1.227734,4.286762 1.569947,4.335017 0.187208,0.02641 0.396094,0.03976 0.464183,0.02971 0.06809,-0.01007 0.596183,-0.980652 1.17354,-2.156875 l 0,0 z m -29.080434,1.79627 c 0.842053,-0.327411 0.97975,-0.59634 0.955078,-1.865292 -0.01217,-0.62523 -0.06172,-1.478133 -0.110129,-1.895345 -0.08448,-0.728048 -0.101745,-0.756154 -0.42917,-0.698654 l -0.34115,0.05991 0.09586,1.592255 c 0.05272,0.875743 0.05857,1.728729 0.01299,1.895529 -0.100139,0.366538 -0.751022,0.644498 -1.243354,0.530984 -0.511466,-0.11793 -0.713406,-0.695692 -0.835257,-2.389716 l -0.106129,-1.475455 -0.439995,-0.03897 c -0.512676,-0.04541 -0.48976,-0.187174 -0.303515,1.877771 0.07271,0.806124 0.220888,1.623242 0.329288,1.815814 0.374746,0.665731 1.509479,0.943448 2.415477,0.591172 l 0,0 z m 24.973511,-0.04826 c -0.03619,-0.119706 -0.391572,-1.157753 -0.789738,-2.306767 l -0.723933,-2.089116 -0.46633,0.03699 c -0.463825,0.0368 -0.471299,0.04734 -1.393388,1.964746 -1.1625,2.417331 -1.143855,2.363052 -0.811806,2.363052 0.188422,0 0.339808,-0.163802 0.51681,-0.559203 l 0.250334,-0.559204 1.099318,-5.67e-4 1.099317,-5.68e-4 0.173966,0.570809 c 0.112038,0.367597 0.274946,0.608317 0.457596,0.676159 0.464648,0.172585 0.659547,0.140583 0.587854,-0.09654 l 0,-1.2e-5 z m -20.9544,-0.149162 c 0.736901,-0.130608 1.220987,-0.61841 1.221974,-1.231357 6.03e-4,-0.482392 -0.485784,-0.971778 -1.564217,-1.573295 -1.225541,-0.683573 -0.850246,-1.513992 0.551089,-1.219403 0.582528,0.122459 0.607651,0.116049 0.607651,-0.155003 0,-0.231493 -0.09523,-0.29752 -0.525361,-0.36428 -1.239258,-0.19234 -2.182308,0.304529 -2.182308,1.149806 0,0.553902 0.314025,0.881684 1.455372,1.519142 0.584513,0.32646 0.710762,0.458644 0.710762,0.744188 0,0.190968 -0.09742,0.421494 -0.216496,0.51228 -0.243295,0.185492 -1.015587,0.224989 -1.577333,0.08067 -0.333251,-0.08562 -0.372305,-0.06365 -0.372305,0.209387 0,0.237292 0.08268,0.316542 0.372305,0.356848 0.628006,0.0874 0.89049,0.08239 1.518867,-0.02899 z m 13.677922,-0.939086 0,-0.932783 0.615946,0 c 0.338772,0 0.800493,-0.08767 1.026042,-0.194817 0.789805,-0.3752 1.00855,-1.590774 0.380266,-2.113113 -0.208851,-0.173634 -0.557222,-0.240213 -1.46566,-0.280111 l -1.191688,-0.05234 -0.0886,0.778765 c -0.156598,1.376397 -0.107966,3.574908 0.08062,3.644817 0.570032,0.211303 0.643073,0.114713 0.643073,-0.850415 z m -8.393773,-1.430269 0,-2.238679 -0.49483,0 -0.494828,0 0.08868,1.698673 c 0.04878,0.934272 0.08868,1.941678 0.08868,2.238683 0,0.517093 0.01722,0.540005 0.406149,0.540005 l 0.406151,0 0,-2.238682 z m 2.03075,0.472613 c 0,-1.031657 0.04987,-1.71694 0.119928,-1.647918 0.06596,0.06498 0.354284,0.778339 0.640724,1.585235 0.516881,1.456071 0.523773,1.466806 0.918119,1.430269 0.378772,-0.0351 0.421504,-0.10327 0.915043,-1.459814 0.284748,-0.78265 0.579159,-1.479441 0.654247,-1.548424 0.09178,-0.08431 0.13653,0.45341 0.13653,1.640652 l 0,1.766069 0.406144,0 0.406151,0 0,-2.245833 0,-2.245831 -0.561872,0.03824 -0.561872,0.03825 -0.608231,1.58869 c -0.334521,0.873785 -0.645212,1.555478 -0.69042,1.514882 -0.04521,-0.0406 -0.33068,-0.755509 -0.634382,-1.588693 l -0.552184,-1.514879 -0.63242,-0.03791 -0.63242,-0.03791 0,2.245496 0,2.245496 0.338456,0 0.338459,0 0,-1.766069 z"
     id="path3067"
     inkscape:connector-curvature="0" />
  <path
     style="fill:#800000;fill-opacity:0.96470588;stroke:#8b0000;stroke-width:0;stroke-miterlimit:4;stroke-opacity:1;stroke-dasharray:none"
     d="m 58.963792,86.594329 c 0.01174,-0.391396 0.02895,-0.745165 0.03825,-0.786148 0.01678,-0.07417 0.01841,-0.07443 0.344973,-0.05442 0.402242,0.02463 0.548257,0.06027 0.687256,0.167715 0.336285,0.259948 0.307512,0.862098 -0.05517,1.15464 -0.190823,0.153915 -0.333362,0.197327 -0.704181,0.214472 l -0.33251,0.01537 0.02139,-0.711628 z"
     id="path3069"
     inkscape:connector-curvature="0" />
  <path
     style="fill:#800000;fill-opacity:0.96470588;stroke:#8b0000;stroke-width:0;stroke-miterlimit:4;stroke-opacity:1;stroke-dasharray:none"
     d="m 63.770469,88.135585 c -0.204768,-0.01199 -0.444648,-0.02362 -0.533071,-0.0258 -0.09248,-0.0022 -0.160769,-0.01857 -0.160769,-0.03841 0,-0.02984 0.804222,-1.731521 0.834779,-1.766338 0.0062,-0.0071 0.01997,-0.005 0.03051,0.0046 0.01692,0.01553 0.657763,1.81383 0.657763,1.845738 0,0.01632 -0.359358,0.0077 -0.829224,-0.01983 l 0,0 z"
     id="path3071"
     inkscape:connector-curvature="0" />
  <path
     style="fill:#800000;fill-opacity:0.96470588;stroke:#8b0000;stroke-width:0;stroke-miterlimit:4;stroke-opacity:1;stroke-dasharray:none"
     d="m 75.870364,90.480405 c -0.04654,-0.0061 -0.277873,-0.03472 -0.514082,-0.06357 l -0.429465,-0.05247 0.01632,-0.07989 c 0.0089,-0.04394 0.120626,-0.776802 0.248127,-1.628586 0.127502,-0.851784 0.239657,-1.555893 0.249232,-1.564687 0.02341,-0.02151 0.73058,0.07315 1.005261,0.13458 0.799386,0.178768 1.161092,0.692936 1.106958,1.573551 -0.03349,0.545071 -0.230962,1.034979 -0.543926,1.349561 -0.09199,0.09246 -0.222519,0.194016 -0.290065,0.225675 -0.206648,0.09685 -0.57072,0.142267 -0.848348,0.105828 z"
     id="path3073"
     inkscape:connector-curvature="0" />
  <path
     style="fill:#800000;fill-opacity:0.96470588;stroke:#8b0000;stroke-width:0;stroke-miterlimit:4;stroke-opacity:1;stroke-dasharray:none"
     d="m 81.058272,90.082858 c -0.357771,-0.05456 -0.658387,-0.106441 -0.668032,-0.115302 -0.0096,-0.0089 0.221156,-0.398785 0.512882,-0.866499 0.418252,-0.670559 0.535952,-0.837764 0.556573,-0.790667 0.02199,0.05022 0.435233,1.819972 0.435233,1.86392 0,0.02799 -0.188496,0.0074 -0.836656,-0.09145 l 0,0 z"
     id="path3075"
     inkscape:connector-curvature="0" />
  <path
     style="fill:#800000;fill-opacity:0.96470588;stroke:#8b0000;stroke-width:0;stroke-miterlimit:4;stroke-opacity:1;stroke-dasharray:none"
     d="m 29.905918,88.428551 c -9.58e-4,-0.01503 -0.04406,-0.342152 -0.09575,-0.726924 -0.05169,-0.384772 -0.09277,-0.701895 -0.0913,-0.704712 0.0015,-0.0028 0.159399,-0.02184 0.350951,-0.04229 0.748015,-0.07982 1.039978,0.06651 1.081531,0.542067 0.03629,0.415333 -0.192608,0.735063 -0.61129,0.853863 -0.253101,0.07181 -0.63152,0.118361 -0.634143,0.078 z"
     id="path3077"
     inkscape:connector-curvature="0" />
</svg>
